<?xml version="1.0" standalone="no"?>
<!DOCTYPE svg PUBLIC "-//W3C//DTD SVG 1.1//EN" "http://www.w3.org/Graphics/SVG/1.1/DTD/svg11.dtd" >
<svg xmlns="http://www.w3.org/2000/svg" xmlns:xlink="http://www.w3.org/1999/xlink" version="1.1">
<metadata></metadata>
<defs>
<font id="woodgritmediumw00-regularRg" horiz-adv-x="346" >
<font-face units-per-em="2048" ascent="1638" descent="-410" />
<missing-glyph horiz-adv-x="500" />
<glyph horiz-adv-x="0" />
<glyph horiz-adv-x="0" />
<glyph unicode="&#xd;" />
<glyph unicode=" " />
<glyph unicode="!" horiz-adv-x="372" d="M14 18q6 82 6 148q0 61 -6 104l6 29q10 2 22.5 3t29.5 1q16 0 33.5 -1t39.5 -3l5 -6l75 6q6 -2 19 -2q14 0 30.5 2t38.5 6q8 -6 9 -18v-8q-2 -10 -3.5 -15.5t-1.5 -9.5t2 -4v-242l-10 -6h-219h-15.5t-29.5 -2h-6q-18 0 -25 18zM18 1196v82v96t2 111q2 10 29 16 q82 0 130 2t67 4h49q29 1 29 -28q-6 -59 -7 -107v-19.5t2 -19.5q0 -16 1.5 -31.5t1.5 -31.5t-1.5 -31.5t-1.5 -32.5l-6 -123q0 -12 -2 -32.5t-8 -49.5q-6 -14 -9 -36.5t-4 -46t-2 -45t-3 -33.5q-12 -78 -23.5 -171.5t-21.5 -201.5q-4 -8 -15 -8q-2 0 -4 1t-4 1q-6 2 -16 2 q-8 0 -11 -2h-51q-33 0 -45 18q-8 70 -15 134.5t-13 127.5l-11 113q0 14 -2 35.5t-8 52.5q-4 18 -6 34.5t-2 33.5q0 14 2 20l-19 100q-2 29 -2 66z" />
<glyph unicode="&#x22;" horiz-adv-x="851" d="M27 973q0 14 4 32.5t8 45.5q4 20 8 42.5t4 51.5q0 25 -2 55.5t-8 65.5q2 96 25 262q6 10 14 10h4l270 -43q10 -4 13 -27q-10 -41 -19.5 -103t-23.5 -148q-23 -47 -45.5 -90.5t-51.5 -84.5q-10 -16 -28.5 -42.5t-44.5 -67.5q-8 -4 -23 -4q-16 0 -25 4q-18 2 -45 10 q-33 10 -32 16v3q-2 4 -2 12zM477 961v10q0 12 3 31.5t7 48.5q12 39 13 94q0 25 -2 55.5t-9 65.5q2 49 8.5 113.5t18.5 148.5q4 10 12 10h4l271 -43q8 -2 14 -27q-10 -41 -20.5 -103t-24.5 -148q-20 -47 -43.5 -90.5t-52.5 -84.5q-10 -16 -28.5 -42.5t-45.5 -67.5 q-6 -4 -22 -4t-25 4q-10 2 -21.5 4t-23.5 6q-33 8 -33 19z" />
<glyph unicode="#" horiz-adv-x="1509" d="M-45 772q0 2 1 3t1 3q0 43 14 56h361q35 158 39 165l30 148l15 84h-23h-113.5t-132.5 -2q-70 -2 -112.5 -2h-59.5q-10 0 -14 10v70q-6 12 -6 18q0 2 1 3t1 3q0 47 14 55q23 -2 63 -2h99h138t178 2q80 418 83 422h17q43 0 61 -16q8 0 14.5 1t12.5 1q25 0 41 -4 q12 -12 16 -21q-27 -127 -43 -167l-45 -216h76l152 5q78 2 122.5 2h59.5q20 102 36.5 180t26.5 133q18 100 21 102h16q43 0 58 -16q8 0 14 1t12 1q14 0 24.5 -1t20.5 -3q4 -6 7 -10t5 -11q-12 -59 -21 -101t-19 -66l-43 -207l229 6q25 0 43 1t33 1q12 0 19 -1t9 -1 q4 -14 6.5 -26.5t2.5 -22.5t-2.5 -16.5t-4.5 -12.5q6 -23 8.5 -40t2.5 -28l-15 -18q-66 0 -109.5 1t-66.5 3l-155 -2h-31l-74 -356q-2 -12 -5 -21.5t-5 -19.5q129 2 214 2t130 2q27 2 46 3t34 1h26h-2q4 -16 6.5 -28.5t2.5 -22.5t-2.5 -16.5t-4.5 -12.5q6 -23 8.5 -40 t2.5 -30q-2 0 -15 -16q-66 0 -109.5 1t-66.5 3l-301 -2q-29 -143 -51.5 -246.5t-34.5 -167.5q-4 -4 -4 -6t-4 -2t-6 2q-20 4 -38 6t-30 7q-6 -4 -14 -5q-6 0 -10 5q-47 10 -50 26q27 125 47.5 220.5t32.5 158.5l-270 -2h-137l-84 -410q-4 -8 -6 -8q-4 0 -7 2q-23 4 -39 6 t-28 7q-6 -4 -14 -5q-8 0 -11 5q-49 10 -51 26q29 125 47.5 217t32.5 154l-324 -2q-10 0 -14 10v68q-6 14 -6 20zM492 836h50t60 -2h80h152q16 2 33.5 2t29.5 4q14 57 23.5 97t15.5 62l31 148l18 90h-389l-23 -6l-71 -348q-4 -16 -5 -28.5t-5 -18.5z" />
<glyph unicode="$" horiz-adv-x="782" d="M4 401v101q16 -2 37.5 -3t50.5 -1q27 0 58.5 1t68.5 3q16 0 39 -17v-170q29 -66 61 -65h7q0 23 2 60.5t6 97.5q2 33 3 62.5t1 53.5q0 10 -1 19.5t-1 19.5q0 20 -1 41t-3 43q-33 18 -68 43t-69 58q-41 35 -69 66.5t-44 59.5q-20 37 -31.5 71t-17.5 67q-4 29 -6 57.5 t-2 56.5q0 57 8 105q2 6 11 28.5t22 63.5q31 82 141 145q10 6 29.5 14.5t48.5 18.5q6 4 20 7t37 8v65h96v-70q145 -39 203 -139q33 -27 45 -80q16 -20 23 -57q6 -25 11 -40t9 -24q0 -23 6 -63.5t6 -60.5q-6 -6 -67 -7q-29 0 -74 4.5t-104 8.5q-10 8 -10.5 30.5t-4.5 30.5 q0 16 -2 40t-8 54q-4 4 -14.5 16.5t-18.5 12.5q-2 -6 -2 -25l-6 -8v-22q-2 -23 -2 -53.5v-71.5v-4v-74t-2 -55q14 -16 96 -74q14 -10 41 -34.5t68 -65.5q12 -16 37 -64q47 -59 47 -84q16 -16 16 -59q6 -52 10 -58q0 -164 -6 -196q0 -8 -5 -23.5t-5 -29.5v-9 q-66 -158 -160 -209q-20 -8 -54 -21t-81 -30q-10 -20 -10 -84v-59l-10 -4q-4 -2 -15 -2q-27 0 -63 12v109q0 25 -19 36q-33 8 -55 13.5t-33 9.5q-25 8 -43 19.5t-36.5 28.5t-38 43t-46.5 65l-22 51q-6 12 -10 51q-4 25 -9.5 60.5t-15.5 84.5zM268 1133q0 -20 2 -31 q6 -16 15.5 -37t23.5 -47q18 0 23 12v201q0 18 -13 18q-51 -41 -51 -116zM426 305q0 -16 4 -29.5t14 -19.5q14 0 37 37q12 61 13 106q-1 33 -7 62q-10 35 -43 76q-16 -16 -16 -33q0 -6 2 -8v-129v-15.5t-2 -25.5q-2 -8 -2 -21z" />
<glyph unicode="%" horiz-adv-x="1009" d="M39 989l2 33v14v16.5t-2 18.5q2 6 2 27v14q0 4 1 5t1 3t-1 3t-1 3q0 10 2 33t2 33q4 16 10 35.5t17 44.5q23 27 44 53.5t54 32.5q10 0 20.5 1t20.5 1t19.5 -1t19.5 -1l12 -6q25 -2 72 -64l16 -31q20 -76 21 -194v-33q-4 -41 -4 -64.5v-33.5v-37q0 -90 -37 -164 q-12 -8 -35 -35q-10 -8 -18.5 -11t-16.5 -7q-29 -14 -61 -14q-31 0 -68 20q-14 10 -29 31q-4 4 -10 13t-16 20q-4 16 -10.5 32.5t-12.5 32.5q-2 10 -6 54t-8 122zM43 90q137 213 227 356.5t138 219.5l77 125q141 229 212 345.5t73 120.5q23 39 36 60.5t15 25.5q4 -2 10 -2 q10 0 12.5 4.5t6.5 4.5t6 -9q29 -10 47.5 -18t30.5 -14q4 -8 6 -14.5t2 -12.5q-29 -45 -57 -84q-29 -39 -49.5 -65.5t-36.5 -42.5l-33 -74l-291 -469q-27 -39 -39 -60.5t-16 -25.5l-47 -84q-76 -125 -129.5 -209t-83.5 -133q-4 -4 -6 -4q-4 0 -8.5 2t-10.5 2t-7 -5t-3 -5 t-4 2t-6 4q-20 4 -25 10q-47 29 -47 49zM178 991q2 -16 2 -28.5v-24.5v-107l4 -34q4 -10 11.5 -14.5t13.5 -6.5q18 8 20 27q2 35 2 72.5t5 78.5v52q-4 12 -5 28q1 21 7 56q-2 16 -2 38.5t-5 53.5q-4 8 -4 24q0 4 1 8.5t1 8.5q-12 25 -24 24q-18 -2 -25 -30l-2 -50l2 -22 q-2 -8 -2 -39q2 -10 2 -24.5v-34.5l-2 -17v-39zM645 326l2 36q0 2 1 4.5t1 6.5q0 8 -1 16t-3 21q4 12 4 22q0 4 -1 8t-1 9q2 4 2 10q0 4 -2 6q0 10 3 32.5t3 32.5q2 14 8.5 34t16.5 46q14 20 23.5 33.5t17.5 20.5q31 31 59 32q10 0 20.5 1t20.5 1t18.5 -1t18.5 -1l14 -6 q4 -2 14.5 -8t22.5 -16q12 -14 35 -41q2 -6 5 -12.5t9 -16.5q12 -39 16.5 -86t4.5 -100v-39q-2 -41 -2 -65.5v-35.5v-34v-19q0 -70 -39 -145l-14.5 -14.5t-18.5 -22.5q-10 -8 -19.5 -12.5t-17.5 -8.5q-12 -4 -26.5 -8t-28.5 -4q-37 0 -74 21q-16 12 -53 63q0 -6 -22 61 q-4 6 -7.5 51.5t-9.5 127.5zM786 332q2 -16 2 -29.5v-23.5v-111l3 -33q10 -16 26 -20q14 10 19 24q4 37 4 75t2 79v51q-2 8 -2 29q0 10 1 24.5t3 30.5q-2 16 -2 38.5t-2 53.5q-6 8 -6 27q0 4 1 7t1 7l-7 14q-6 10 -18 11q-20 -4 -23 -31l-2 -47l2 -23q-2 -8 -2 -39 q2 -10 2 -24v-37l-2 -14v-39z" />
<glyph unicode="&#x26;" horiz-adv-x="1073" d="M-4 436q0 174 86 281q6 6 14 15t19 26l86 73l41 41q-25 39 -48.5 85.5t-48.5 99.5q-12 74 -12 131q0 72 17 110q2 12 11 27.5t20.5 31t20.5 29t13 21.5l68 70q92 49 147 51q10 -2 37 -2h22.5t28.5 2l19 -6q41 0 63 -13h4q0 -2 6 -5t6 -5q4 2 9 2q12 0 26 -14 q49 -31 68 -45q16 -16 29.5 -31.5t23.5 -34.5l29 -55q12 -51 17 -85t5 -52v-8q-25 -150 -159 -285q-37 -37 -82 -66q0 -16 12 -37.5t29 -37.5q14 -23 30.5 -48.5t36.5 -58.5q0 -14 29 -31q20 12 22 43q6 53 9 56v34q6 4 12 8.5t16 4.5q16 0 40 -2t56 -6q23 8 66 8h27h6 q18 0 53 -13q0 -2 2 -2l4 5q4 0 4 -3q-6 -82 -39 -190q-6 -14 -17 -41t-28 -63q-18 -20 -41 -86q-4 -10 -16 -28t-12 -32q0 -12 15 -31.5t17 -27.5q14 -23 34 -57.5t48 -82.5q2 -4 8.5 -16t20.5 -29q27 -37 27 -57q0 -12 -8.5 -23.5t-20.5 -11.5q-2 0 -3 1t-3 1 q-8 2 -13.5 3t-9.5 1h-6h-239q-14 31 -64 86q-20 0 -29 -18q-98 -84 -260 -86h-18q-102 0 -164 35q-51 29 -85 57.5t-54 56.5q-76 121 -76 248q-2 23 -3 41.5t-1 40.5zM289 424q0 -63 26 -111q57 -88 127 -88q4 0 9.5 1t9.5 1q43 0 98 58v2q0 14 -9 27.5t-9 21.5 q-23 29 -42.5 65.5t-41.5 77.5q-14 23 -36 55.5t-50 77.5q6 0 -31 -16q-51 -72 -51 -172zM383 1237q0 -14 2 -20q18 -113 72 -148q6 -6 16 -6q16 0 35 20q2 4 39 54q33 51 33 98q0 49 -43 92q-27 20 -58 21q-29 0 -59 -21q-16 -25 -26.5 -46t-10.5 -44z" />
<glyph unicode="'" horiz-adv-x="800" d="M426 961v10q0 12 3 31.5t7 48.5q12 39 13 94q0 25 -2.5 55.5t-8.5 65.5q2 49 8.5 113.5t18.5 148.5q4 10 12 10h4l271 -43q8 -2 14 -27q-10 -41 -20.5 -103t-24.5 -148q-20 -47 -44 -90.5t-52 -84.5q-10 -16 -28.5 -42.5t-45.5 -67.5q-6 -4 -21 -4q-16 0 -24 4 q-12 2 -23.5 4t-23.5 6q-33 8 -33 19z" />
<glyph unicode="(" horiz-adv-x="425" d="M25 844q10 14 7 44t7 40q0 29 14 98q10 51 28.5 110.5t45.5 131.5q18 57 78 129q39 53 60.5 82.5t29.5 40.5q41 41 69 63.5t44 30.5q18 -4 18 -25q0 -8 -4 -23.5t-4 -17.5q-41 -33 -76 -84q-78 -106 -96 -164q-61 -129 -86 -313q-4 -20 -7 -38.5t-3 -41.5v-186 q0 -35 5 -88t15 -125q10 -29 16.5 -52.5t12.5 -41.5q14 -47 25.5 -81t21.5 -54q16 -29 29.5 -56.5t29.5 -42.5q27 -41 47 -59l62 -68q-6 -43 -6 -55q-2 -2 -7 -2q-8 0 -18 7t-20.5 15.5t-18.5 15.5t-10 7q-72 82 -150 186l-24 45q-102 215 -121 361q-6 55 -10 107.5 t-4 103.5z" />
<glyph unicode=")" horiz-adv-x="471" d="M39 1569q0 14 6 24q0 6 8 6t27 -10q74 -59 138.5 -143t117.5 -195q0 -10 14.5 -35.5t14.5 -41.5q29 -57 69 -281v-39q0 -276 -84 -479q-35 -78 -81 -148.5t-105 -136.5q-47 -53 -103 -86q-4 -4 -6 -4t-4 2q-8 8 -8 18q0 33 31 70l61 60q49 80 80 140t43 107q6 23 15.5 64 t25.5 100l14 117v108q0 66 -1 109t-3 59l-24 148q-35 219 -179 381q-68 57 -67 86z" />
<glyph unicode="*" horiz-adv-x="671" d="M-2 1120q4 27 4 48.5v39.5v33l6 21q70 -16 172 -31l-98 76q-33 23 -33 39v4q66 53 88 82l19 10q23 -29 49 -66t61 -78l-20 150q-2 8 -2 20q0 23 8 31q61 -6 100 -6q6 0 12.5 1t10.5 1l18 -2q-6 -41 -12 -89t-10 -108v-4q16 23 37.5 51.5t50.5 63.5q2 4 6 7t12 13 q7 15 19 15q16 -18 38.5 -43t55.5 -56l-31 -36q-49 -33 -104 -76q25 6 56.5 11t72.5 9q6 2 20 2q18 0 29 -4q-2 -23 -2 -56.5v-78.5q-10 0 -21.5 -1t-27.5 -3q-31 4 -69 8t-83 8q27 -16 57.5 -40.5t71.5 -57.5q2 -6 16.5 -17.5t14.5 -19.5q-18 -16 -41 -37.5t-57 -56.5 l-37 31q-18 25 -40 53.5t-48 60.5q0 -20 9 -62t9 -65q0 -4 1 -9t1 -9q0 -10 -4 -31q-12 2 -26.5 2h-30.5h-37t-41 -2q-2 8 -2 20.5t-4 28.5v5q0 12 4 28.5t8 34.5t8 33.5t4 23.5l-88 -108q-27 -33 -37 -33q-2 0 -2 1t-2 1q-27 33 -47 53.5t-35 34.5l-10 19q31 23 69 50 t85 64l6 4l-154 -12q-8 0 -14 -1t-12 -1q-25 0 -27 8z" />
<glyph unicode="+" horiz-adv-x="1052" d="M-2 715q4 49 6 89t2 70q0 10 -1 20.5t-1 20.5l8 33q92 -4 152.5 -5t95.5 -5l143 -2h3l4 41l-2 283v25t-2 22q0 29 14 41q53 -4 96 -8.5t76 -4.5q23 0 33 2l30 -6q-4 -121 -6 -182.5t-2 -65.5l-2 -141v-6h188t142 -2h12t31 2h12q17 0 23 -8q0 -23 1 -44.5t1 -41.5 q0 -43 -1 -78t-3 -59q-37 -12 -66 -13q-12 0 -16 2h-95.5t-111.5 2l-117 2v-191.5t-2 -135.5q0 -2 -1 -3t-1 -3q0 -6 1 -15.5t3 -23.5v-9q0 -20 -10 -26q-23 0 -42.5 -1t-37.5 -1q-47 0 -82 1t-63 3q-10 37 -11 57q0 10 4 23q0 14 -1 27.5t-1 27.5q0 35 1 73t4 81l2 71v43 l-43 9h-281l-45 -9q-33 0 -41 19z" />
<glyph unicode="," horiz-adv-x="380" d="M20 266q0 27 11 33q244 0 274 6q25 0 25 -26v-103v-158q-27 -55 -44.5 -97t-29.5 -71l12 -10q-18 -23 -43 -76q-23 -43 -41 -49q-35 2 -59.5 3t-38.5 1v2q0 6 4 18.5t10 31.5q39 119 56 157q0 8 6 25.5t6 28.5q0 12 -8 20l-125 6q-6 16 -8 30.5t-2 27.5v14q0 78 -1 125 t-4 61z" />
<glyph unicode="-" horiz-adv-x="532" d="M10 563l4 187q12 25 125 30q111 18 156 31q82 16 149 53q8 4 11 4q12 1 22 -24q-2 -16 -4 -36t-2 -42q0 -23 2 -50.5t4 -58.5q-4 -10 -28 -22q-16 0 -64 -29q-43 -25 -61 -24l-15 4l-250 -45q-4 0 -8 -1t-8 -1q-14 0 -29 8z" />
<glyph unicode="." horiz-adv-x="385" d="M14 12v277l6 10q23 0 53.5 1t67.5 1t80 -1t92 -1l6 -10q0 -33 1.5 -74t3.5 -90v-27q0 -18 -1 -40.5t-4 -49.5q-10 -10 -22 -10h-4q-14 2 -20.5 3t-10.5 1q-20 -2 -46 -3t-56 -1q-29 0 -64 1t-76 3z" />
<glyph unicode="/" horiz-adv-x="956" d="M18 115q135 213 226.5 357t138.5 218l76 127q279 457 286 465q23 39 35.5 60.5t16.5 27.5q57 -18 75 -47q51 -19 74 -33q4 -8 6 -14t4 -10q-66 -104 -96 -140l-371 -598q-47 -78 -53 -84l-49 -84q-74 -125 -127 -209.5t-84 -132.5q-4 -6 -8 -6t-8 2q-25 14 -42.5 25.5 t-27.5 15.5q-20 6 -27 11q-45 27 -45 49z" />
<glyph unicode="0" horiz-adv-x="833" d="M18 737l7 82q0 4 1 10.5t1 12.5q0 16 -2 36.5t-7 47.5q4 12 6.5 27.5t2.5 33.5q0 8 -1 15.5t-1 17.5q6 12 6 20t-6 13q0 4 -1 10t-1 12q0 20 6 51q6 57 6 78q12 57 59 182q4 12 14.5 26.5t21.5 30t20.5 29t13.5 21.5q66 72 160 90q25 4 46 4h44h41.5t46.5 -4l28 -12 q33 -6 93 -55q27 -27 75 -93q8 -27 33 -71q49 -170 49 -416v-50t-2 -52q-2 -74 -4 -131.5t-2 -98.5v-82q0 -33 -3 -71.5t-13 -83.5q-10 -96 -70 -217q-14 -12 -31.5 -32t-42.5 -48q-45 -37 -86 -47q-53 -27 -131 -27q-92 0 -168 45q-31 18 -63 70q-12 16 -27.5 33.5 t-32.5 39.5l-24 72q-12 35 -18.5 52.5t-8.5 21.5q-10 55 -15 98t-7 78q-2 33 -5 90t-8 141zM342 801q0 -23 2 -56q2 -37 2 -67.5v-54.5v-248l6 -82q33 -39 58 -45q43 29 55 106q2 10 2 41v86v174q0 23 1 41.5t1 34.5t-1 27.5t-1 19.5q-2 10 -3 20.5t-1 22.5q0 54 12 146 q-4 37 -6 90t-8 125q-6 18 -6 57q0 8 1 15.5t1 17.5q-4 16 -23 41q-10 16 -37 16q-39 -4 -51 -69l-4 -109l4 -51q-2 -14 -3 -37t-1 -55q2 -23 3 -56.5t1 -81.5l-4 -36v-33z" />
<glyph unicode="1" horiz-adv-x="585" d="M23 1208q0 10 2 15v118q12 14 49 19l51 4q10 4 31.5 15.5t52.5 31.5l31 27q2 2 32 100q10 10 33 10h211q14 -12 14 -37v-10q-2 -16 -3 -28.5t-1 -18.5q0 -4 1 -5t1 -3q0 -154 -2 -296t-6 -276v-241v-72t2 -102q2 -55 4 -98.5t2 -71.5l-8 -64q8 -14 8 -98v-115l-12 -12 h-260l-39 4q-8 18 -8 117v246v63q2 57 4 89t4 40q-8 6 -8 64v292q0 6 1 15.5t1 21.5q0 20 -2 52t-2 55q0 27 2 35l-4 88h-174q-8 14 -8 26z" />
<glyph unicode="2" horiz-adv-x="770" d="M29 985q0 80 1 127t3 62v30q0 27 30 86q16 100 95 178q84 84 176 99q37 6 72 6q80 0 135 -31l10 -12q80 -27 145 -156q4 -18 11.5 -47t17.5 -67q0 -197 -25 -265q0 -16 -10 -34v-5q0 -12 -12 -32.5t-12 -36.5q0 -2 1 -3t1 -3q-10 -6 -12.5 -26.5t-10.5 -25.5l-35 -92 q-6 -14 -15 -31.5t-22 -41.5q0 -6 -22 -48q-10 -12 -19.5 -31.5t-19.5 -43.5q-20 -25 -39.5 -55.5t-36.5 -69.5q-6 -10 -14 -30.5t-19 -51.5q-4 -12 -4 -17q0 -14 21 -24h102l60 6q20 2 38.5 2h34.5h31.5t28.5 -2l14 -16l-4 -254q-10 -16 -29 -17q-35 6 -86 8.5t-121 2.5 h-448q-6 12 -6 30q0 6 1 13.5t3 17.5q6 49 6 59q4 16 9 45t16 64q6 80 63 174l41 94q23 53 55 84q0 10 9.5 22.5t9.5 18.5q6 16 22.5 46t22.5 46q33 45 61 129q16 57 29.5 91t19.5 44q0 18 15 89q12 55 12 92q0 53 -27 96q-31 18 -49 18h-4q-57 -39 -57 -73q0 -14 6 -27 q-4 -41 -6 -73.5t-2 -55.5v-25.5t2 -15.5q0 -16 -2 -31.5t-17 -15.5h-219z" />
<glyph unicode="3" horiz-adv-x="811" d="M8 569q0 12 17 15l18 2h74q25 -2 48 -2h50h49.5t48.5 2l6 -17q-4 -33 -4 -63.5v-59.5v-58.5t4 -57.5q6 -37 41 -70q12 -8 23 -8q16 0 45 18l23 35q8 25 8 98q0 -2 6 52q0 6 1 12t1 12q0 8 -1 14.5t-1 14.5q-4 23 -7 48.5t-7 53.5q-18 68 -68 80q-18 6 -115 6 q-14 12 -14 29q0 8 2 12q2 10 2 18.5t2 14.5q0 8 2 12q-4 12 -4 21q0 8 4 20q-2 14 -3 27.5t-1 26.5q0 14 1 28.5t3 28.5q0 18 29 18q10 0 28.5 -5t26.5 -5q49 0 68 49q4 8 22 90q2 23 2 40.5v33.5q0 82 -14 123q-27 41 -47 41q-33 -12 -41 -41q-2 -10 -5 -26.5t-12 -37.5 v-178l-6 -10q-23 -4 -53.5 -4h-71.5h-2h-65.5t-59.5 -2q-37 0 -36 22l8 132q2 33 8 76.5t20 101.5q2 8 7.5 17t11.5 24q20 31 33.5 48t17.5 21q33 39 64 58q10 6 23 14t32 18q72 27 147 27q29 0 54.5 -4t54.5 -8l4 -6q47 -12 152 -99q4 -14 16 -33.5t29 -46.5q0 -6 5 -18 t11 -25.5t11 -26t5 -20.5v-2q2 -31 13 -94q0 -94 -12.5 -160.5t-41.5 -101.5q-6 -20 -61 -78q-31 -41 -31 -37l6 -8q125 -82 156 -293v-12q0 -6 -1 -12.5t-5 -16.5q4 -6 4 -22q0 -10 -3 -21.5t-3 -19.5q0 -2 1 -3t1 -3l-23 -115q-2 -14 -13 -35.5t-28 -56.5 q-35 -111 -155 -166q-10 -6 -51 -23q-41 -16 -109 -16q-127 0 -207 67q-72 49 -92 111q-37 45 -64 207l-6 16q0 113 -6 172z" />
<glyph unicode="4" horiz-adv-x="817" d="M16 678q0 18 5.5 32.5t13.5 26.5q14 47 38.5 120t59.5 173q10 29 28.5 76t47.5 117q12 29 32.5 85t53.5 138q0 27 35 102q2 2 8 7.5t18 11.5q53 -4 131 -6t181 -9l14 -10q-6 -158 -6 -448v-220q0 -10 -1 -22t-1 -27q0 -41 2 -92t6 -117q12 -12 43 -12h47l10 -12l-4 -217 q-12 -10 -47 -10q-41 0 -45 -3q-8 -8 -8 -28q0 -8 1 -16.5t1 -14.5q0 -16 -4 -29v-239q-12 -18 -35 -19q-10 0 -14 2q-10 0 -19.5 1t-15.5 1q-8 0 -12.5 -1t-8.5 -1h-137q-45 0 -59 11v22q0 66 -1 115t-3 82q4 8 4 18q0 6 -1 14.5t-3 18.5q0 33 -19 68h-96q-4 0 -7 -1t-7 -1 q-20 0 -47 6q-23 2 -38.5 3t-23.5 1q-100 0 -115 10v197q0 4 1 10t1 16t-1 23.5t-1 30.5q0 4 -1 8t-1 8zM221 637q0 -10 10 -21h121q18 6 19 27v31q0 8 1 17t1 22q0 10 -1 23.5t-1 29.5q4 12 4 20q0 4 -1 9.5t-1 11.5q-6 14 -6 27q0 10 4 18v96q-4 4 -4 8q0 2 4 19v4 q0 10 -15 10q-33 -55 -37 -102q-6 -20 -24 -41q-16 -51 -29.5 -89t-23.5 -61q0 -8 -10.5 -28.5t-10.5 -30.5z" />
<glyph unicode="5" horiz-adv-x="776" d="M29 438v23.5t2 23.5q10 2 22.5 3t26.5 1h22q14 -2 24.5 -2h20.5q23 0 29 2q10 0 23.5 1.5t29.5 1.5t34 -1.5t38 -1.5q4 -41 8 -86t10 -92q0 -29 35 -63q2 -2 8 -2q12 0 39 14l23 33q2 47 2 95v99v95.5t-2 95.5l-8 70q-8 41 -39 53h-4q-8 0 -15.5 -4t-11.5 -4 q-4 -6 -37 -93l-8 -4h-211l-47 4v9q0 23 3 57.5t3 56.5v11l4 8q10 100 21.5 251.5t25.5 362.5q2 16 5.5 41t11.5 55h348h43t61 4q35 2 62.5 3.5t44.5 1.5l12 -13v-252l-6 -6q-23 2 -56.5 4t-76.5 6q-14 -4 -34.5 -6t-49.5 -2q-6 0 -12.5 1t-12.5 1q-23 0 -38 -4t-25 -8 q-10 -8 -12.5 -33.5t-4.5 -34.5l-6 -73q-2 -18 -2 -32.5v-27.5q0 -27 2 -32q2 -2 8 -2q10 0 19.5 7t19.5 13q35 14 84 14q72 0 117 -39q16 -2 28.5 -22.5t22.5 -24.5q63 -92 74 -202q2 -4 3 -27t5 -59q0 -27 4 -43q0 -10 -1 -24.5t-3 -35.5q2 -12 3 -24.5t1 -24.5v-18 l-18 -226q-6 -39 -33 -110q-12 -20 -25.5 -40t-27.5 -40q-35 -49 -70 -70q-84 -57 -170 -57q-16 0 -24 2q-4 -2 -15 -2q-14 0 -39.5 3t-66.5 7q-47 27 -79 52.5t-48 54.5q-6 10 -15.5 24.5t-23.5 30.5q-8 16 -17.5 52t-23.5 93q-8 33 -11 65t-3 62z" />
<glyph unicode="6" horiz-adv-x="808" d="M35 641v49q0 49 2 128t8 190q4 47 6 77.5t4 47.5q8 74 31 122q0 23 16 62q14 29 19.5 42t5.5 15q49 70 74 99q51 55 100 69q14 4 36.5 11.5t55.5 17.5l96 -8q55 -8 86 -33q12 -10 30 -24.5t40 -30.5q10 -14 21.5 -36t23.5 -53q4 -8 9.5 -16t15.5 -18q4 -25 10 -48.5 t12 -46.5q12 -53 13 -100v-12q-12 0 -33 1t-42.5 2t-42 2t-32.5 1q-10 -8 -18 -8q-10 0 -19 8h-92q-4 8 -4 23q0 12 3 24t3 21q0 2 -1 4t-1 4q-2 41 -6 53q-8 25 -18.5 37t-30.5 12q-16 0 -31 -6q-55 -37 -55 -322q0 -16 16 -16q8 0 15.5 8t13.5 8q12 6 29.5 14.5t39.5 20.5 q10 2 20.5 3t22.5 1q72 0 136 -45q8 -12 21 -26.5t30 -30.5q0 -12 13 -27.5t18 -23.5q33 -84 32 -94q2 -8 4 -18.5t9 -26.5q8 -47 12 -95.5t4 -99.5q0 -33 -3 -71t-7 -85v-6q0 -25 -19 -92q-49 -190 -178 -270q-68 -29 -143 -29q-92 0 -209 86q-29 37 -44.5 55.5t-17.5 22.5 q-37 53 -45 84q-6 20 -15 60t-26 100q-10 63 -24 233zM326 584q2 -18 3 -30.5t1 -23.5v-8v-67q6 -31 6 -54q0 -18 -2 -26q0 -16 9 -49t9 -52q39 -33 64 -32h4q6 0 35 28q10 35 13 107.5t3 185.5q0 33 -5 77t-17 101q-31 25 -58 25q-8 0 -15 -2l-14 -4q-33 -51 -32 -86 q0 -12 4 -29q-8 -18 -8 -47v-14z" />
<glyph unicode="7" horiz-adv-x="710" d="M10 1280v215l4 33l49 8h564q4 -4 14 -4q4 0 9 1t14 3h12q18 0 24 -8q-2 -16 -2 -38v-48v-56.5t2 -64.5q4 -10 5 -31q0 -39 -27 -86q-12 -25 -18.5 -44t-8.5 -30q-8 -45 -55 -131q-2 -16 -9 -41.5t-18 -62.5q-4 -10 -8 -30.5t-14 -55.5q-29 -115 -29 -121 q-16 -51 -29.5 -129t-21.5 -182q-8 -43 -11 -79t-3 -65v-18t2 -16q-6 -31 -6 -66q0 -8 1 -14t1 -13q2 -25 3 -43t1 -30v-13q0 -20 -25 -28q-29 0 -71 3t-101 7h-18q-14 0 -33 -1t-41 -3q-4 2 -9 4t-14 8q0 18 3.5 75.5t13.5 154.5q6 55 26.5 152t55.5 239q10 35 28.5 103.5 t44.5 166.5q4 16 35 98t86 230q0 8 8 26v5q0 10 -8 16l-10 4q-8 0 -54 -1t-132 -3q-27 -2 -51.5 -3t-47.5 -1t-44 1t-42 3q-10 -6 -22 -6t-23 10z" />
<glyph unicode="8" horiz-adv-x="802" d="M27 469q0 12 1 24.5t1 24.5q6 193 82 275q12 14 32.5 31.5t44.5 39.5v4q0 12 -17 23.5t-21 19.5q-10 4 -29 33t-51 76v2q0 10 -9.5 28.5t-9.5 26.5q-10 6 -10 29v8q0 8 1 15.5t1 11.5q0 6 -1 9t-1 7l-8 17q29 205 127 319q16 8 41 27q88 57 200 57q92 0 158 -47 q10 -8 29.5 -21.5t48.5 -33.5l18 -23q31 -41 42.5 -61.5t17.5 -53.5q20 -29 22 -80l11 -83l-23 -132q-29 -84 -80 -127q-2 -6 -23.5 -20t-21.5 -29q0 -25 27 -24q20 -14 41.5 -38t46.5 -56q16 -29 45 -144q2 -23 4 -42t2 -40q0 -20 -2 -40t-4 -38q0 -8 1 -14t1 -14t-1 -15.5 t-1 -15.5q-2 -29 -3 -45t-1 -18q-23 -100 -56 -148q-49 -115 -192 -170q-12 0 -70 -6q-10 -2 -17 -2h-13q-10 0 -17.5 1t-15.5 3q-8 -2 -23 -2q-10 0 -23.5 2t-29.5 8q-23 4 -34 8t-17 7q-221 76 -221 446zM330 485q2 -23 1 -47t3 -53l6 -80l4 -16q16 -29 59 -29 q44 12 46 39q4 66 6 122t2 107t-2 94.5t-6 77.5q-18 20 -19 25q-6 23 -33 23q-39 0 -53 -33l-4 -41q0 -2 -2 -14.5t-6 -34.5q-2 -8 -2 -25q0 -10 4 -31q-2 -18 -3 -39.5t-1 -44.5zM336 1077q0 -51 20 -92q8 -18 31 -18q4 0 21 4q22 15 36 78q0 121 -4 193.5t-10 94.5 q-6 29 -33 29q-10 0 -16 -2q-23 -10 -41 -51v-191q-2 -12 -3 -23.5t-1 -21.5z" />
<glyph unicode="9" horiz-adv-x="823" d="M12 1051q0 6 1 11t1 9q4 78 12.5 139.5t22.5 108.5q10 31 23 51q43 96 98 146q74 66 162 67q10 0 18 1t19 1q35 0 62.5 -4t49.5 -10q29 -14 59.5 -30.5t61.5 -39.5q8 -10 17.5 -21.5t23.5 -27.5q10 -20 41 -55q6 -23 33 -74q8 -23 16 -58.5t19 -82.5q4 -16 7 -37t11 -45 q0 -90 6 -133q-6 -10 -6 -19q0 -8 5 -24.5t5 -26.5q0 -4 -4 -16v-162q0 -14 -2 -33.5t-4 -44.5v-78q-2 -20 -7 -49t-11 -65q0 -2 -5.5 -30t-17.5 -79q-14 -51 -92 -197q-12 -16 -29.5 -32.5t-36.5 -38.5q-47 -45 -84 -54q-16 -12 -56 -17t-99 -5q-76 14 -76 16h2 q-61 33 -92 62q-53 43 -76 82q-4 8 -8 18t-10 27q-2 8 -15.5 29.5t-13.5 35.5q-23 106 -23 160q0 31 13 35q106 0 166 -6l82 6q4 2 10 2q12 0 22 -14v-58q0 -92 47 -117q6 -2 19 -2q18 0 35 11q29 53 45 235v12q0 33 -13 70q-6 -6 -17 -14t-28 -23q-37 -6 -69 -6 q-131 0 -219 107q-18 35 -58 92q-4 18 -12 48t-23 70v39t-2 62q-6 45 -6 76zM315 1094q0 -10 2 -20.5t5 -24.5v-23q0 -6 2 -38t8 -91q0 -12 12 -27l23 -24q6 -6 16 -6t23 6q2 4 13 21.5t27 54.5l-4 8t-2 8q0 6 2 12t4 11q2 39 4.5 78.5t2.5 80.5q0 18 -1 36t-1 36 q0 16 -5.5 47t-17.5 74q-16 37 -45 37q-2 0 -4 -1t-6 -1q-4 -6 -41 -29q-16 -61 -17 -100q0 -31 11 -62q-10 -27 -11 -63z" />
<glyph unicode=":" horiz-adv-x="376" d="M25 727v274q8 10 57 11q14 -2 31.5 -2h42.5h41h9t21 -2h103q0 -8 2 -43t2 -60v-178q0 -18 -10 -18q-94 0 -164 -1t-117 -3q-18 18 -18 22zM31 18v21q0 55 12 151q-12 27 -12 99l4 10h295q0 -53 1 -111.5t3 -124.5v-22q0 -25 -4 -33h-295z" />
<glyph unicode=";" horiz-adv-x="360" d="M14 100v25l9 180q94 6 290 6l6 -12q0 -4 -2 -35t-4 -88q-2 -20 -2 -36.5v-33.5v-29.5t2 -25.5v-10q0 -25 -14 -55q-10 -27 -15 -42.5t-10 -25.5q-14 -8 -16 -29q-4 -8 -5 -13t-3 -9t-2 -6q-6 -10 -20.5 -41t-37.5 -82q-8 -10 -55 -10q-25 0 -42 1t-27 3q0 16 13 42.5 t15 37.5q14 29 29.5 73.5t34.5 104.5q-6 18 -33 18q-16 2 -26.5 2t-14.5 2q-23 0 -61 6q-8 39 -9 82zM23 727v274q6 18 22 19q4 0 7 -1t7 -1q8 -2 12.5 -4t8.5 -2h211q4 2 10 2q4 0 8 -2t4 -6v-9l6 -131q-2 -10 -2 -30q0 -23 2.5 -51.5t6.5 -63.5l-13 -6h-284z" />
<glyph unicode="&#x3c;" horiz-adv-x="933" d="M41 748q2 0 2 2q-2 0 -2 2q29 49 49 61q45 51 81 86t60 57l131 134q10 14 21 20q76 76 92 98l31 23l190 201q14 16 30.5 33.5t33.5 17.5h6q43 -53 75.5 -88t59.5 -56l17 -26q-63 -61 -105.5 -103.5t-67.5 -64.5l-100 -98q-113 -115 -133 -132q-57 -59 -96 -101t-62 -64 q59 -59 98.5 -101.5t59.5 -64.5l133 -133l100 -97q166 -160 173 -168l-17 -26q-27 -20 -59.5 -56t-75.5 -90h-2q-18 0 -34.5 18.5t-33.5 37.5l-190 198l-31 23q-47 51 -113 119l-131 131l-141 143l-9 9l-16.5 16.5t-16.5 20t-7 18.5z" />
<glyph unicode="=" horiz-adv-x="907" d="M-10 424q4 45 5 82t1 65v52l4 30h51.5t69.5 -2q41 -4 70.5 -4h50.5h327h70t78 4q16 0 30.5 1t24.5 1t16.5 -1t10.5 -1q8 0 18 1t27 3h12q16 0 25 -8q0 -37 1 -68.5t1 -58.5q0 -29 -1 -51.5t-1 -40.5q-20 -6 -37 -8t-29 -2h-14h-279q-55 0 -88 -1t-47 -3l-37 4h-276 l-45 -10q-27 0 -39 16zM-10 856q4 45 5 82t1 66v53l4 30h51.5t69.5 -4q41 -2 70.5 -2h50.5h327h70t78 2q16 2 30.5 2h24.5q23 0 27 -2q8 0 18 2t27 5h12q16 0 25 -9q0 -37 1 -68.5t1 -58.5q0 -29 -1 -51t-1 -41q-20 -6 -37 -8t-29 -2h-14h-279q-109 0 -135 -6l-37 6h-276 l-45 -10q-27 0 -39 14z" />
<glyph unicode="&#x3e;" horiz-adv-x="880" d="M14 186q88 82 130 123t44 43l101 99q55 57 87 89.5t42 43.5q53 55 93 95l69 69q-53 55 -93.5 96t-68.5 69q-41 41 -73 74t-56 60l-101 98q-63 59 -105 101t-69 65l19 26q47 37 135 146h2q25 0 66 -56l190 -196l33 -25q35 -43 110 -116l131 -134l144 -143l28 -27 q19 -20 21 -36q-2 0 -2 -2l2 -3q-29 -49 -49 -61q-51 -53 -86 -89t-58 -54l-131 -133q-6 -10 -10 -13.5t-8 -7.5q-78 -76 -92 -96l-33 -25l-190 -200q-8 -10 -15.5 -17.5t-13.5 -17.5q-16 -16 -35 -17h-4q-43 53 -77 89t-58 55z" />
<glyph unicode="?" horiz-adv-x="667" d="M8 1063v6q2 29 5 61.5t12 67.5q43 217 202 299q16 6 42 10t61 11q82 -1 121 -17l27.5 -11t41.5 -15q123 -104 127 -244q0 -12 1 -23.5t1 -21.5q0 -59 -12 -90q-2 -33 -62 -168q-12 -4 -17 -22.5t-9 -20.5q-25 -33 -47.5 -84t-44.5 -119q0 -23 -10.5 -68t-10.5 -67v-55 q0 -31 -22 -41q-80 6 -238 6q-2 4 -4 23.5t-2 56.5q6 33 18.5 80t28.5 110q29 53 65.5 132t84.5 188q10 29 14 55t4 49q0 57 -23 98q-10 14 -32 23q-16 0 -47 -23q-16 -25 -17 -125q0 -4 1 -9t1 -9q0 -23 -12 -53h-61l-154 -6q-33 0 -33 16zM147 293q12 12 37 12 q8 -2 15.5 -2h11.5q8 0 10 2q14 -2 30.5 -2h37.5q31 0 68.5 2t82.5 6l11 -22q-2 -12 -2 -27.5v-34.5v-37.5t2 -42.5q6 -98 6 -135l-11 -16q-37 6 -100 6h-43q-29 -2 -51.5 -2h-38.5h-30.5t-22.5 2q-10 10 -10 18t4 11q0 111 -2 176t-5 86z" />
<glyph unicode="@" horiz-adv-x="1271" d="M49 819q0 10 2 28.5t2 26.5v-2q0 8 2 21q2 10 2 24.5t4 34.5v43.5t-2 32.5q8 23 13.5 40t11.5 28q6 29 8 49t4 33q12 23 21.5 40t17.5 29q10 23 17.5 38t11.5 26q16 16 26.5 28.5t20.5 20.5q14 18 23.5 31.5t15.5 23.5q23 16 35 27.5t20 15.5q74 55 137.5 89t116.5 44 q25 6 58.5 9.5t76.5 7.5q41 4 72 4h51h23q25 -6 43 -11.5t32 -11.5q25 -6 45.5 -11t34.5 -7q39 -25 65.5 -44.5t43.5 -33.5q23 -18 40 -29.5t27 -21.5q20 -41 35 -78t25 -72q14 -47 19 -75.5t5 -69.5q0 -12 -2 -31.5t-6 -48.5q-8 -57 -16 -95t-19 -61q-33 -72 -86 -125 q-20 -16 -35.5 -27t-27.5 -20q-51 -41 -137 -73q-29 -10 -47.5 -16.5t-24.5 -8.5q-31 -8 -61 -8q-23 0 -43.5 5t-40.5 15h-13q-20 20 -22 21q-6 0 -8 -2q-43 -33 -86 -33q-4 0 -8.5 1t-8.5 1q-39 14 -47 27q-35 41 -43 74.5t-8 60.5v33q0 129 96 172q53 31 105 34q8 27 8 54 v13t-2 13q0 39 -4 43q-8 14 -23 15q-4 0 -6 -1t-6 -1q-16 -27 -17 -45q0 -53 -10 -56q-4 0 -10 1t-14 1t-15.5 -1t-17.5 -1q-23 -4 -37 -4h-25q2 0 -18 8q0 10 2 22.5t6 26.5v5q0 29 35 82q43 57 72 69q25 4 44 8t34 4h16q47 0 102 -30q49 -45 51 -101q-2 -33 -2 -103.5 v-180.5v-125l82 33q80 35 121 83q41 78 55 125q10 37 16.5 54.5t6.5 19.5q2 10 2 26.5v37.5q0 68 -31 145q-10 29 -17 45t-11 21q-8 10 -17.5 21t-23.5 22q-18 10 -33.5 18t-26.5 14q-72 29 -143 33h-18h-41h-146q-25 -6 -40 -10t-25 -8q-16 -4 -27.5 -7.5t-19.5 -5.5 t-17 -4q-23 -16 -39 -28.5t-26 -22.5q-49 -43 -56 -49q-14 -16 -23 -31.5t-20 -32.5q-29 -47 -46 -79.5t-25 -55.5q-14 -39 -21.5 -74.5t-11.5 -70.5q2 -23 2 -39t2 -31q0 -10 -3 -31.5t-3 -31.5q0 -35 12 -74q2 -25 5 -42t7 -30q27 -78 62 -125q16 -16 28.5 -26t16.5 -17 q57 -51 65 -53q35 -18 84 -31q45 -18 68 -30q14 0 35.5 -3t36.5 -3h219q23 10 38 18t25 12q35 12 47 21q12 10 29.5 23.5t34.5 31.5q0 -4 -4 -19.5t-8 -47.5q0 -43 4 -52q0 -51 2 -61q-41 -18 -56 -31q-33 -10 -49 -12q-35 -14 -68.5 -19.5t-70.5 -5.5q-4 -2 -23 -2h-17 t-21 2q-10 0 -30 5.5t-30 5.5q-4 0 -12 -2.5t-23 -4.5q-6 -2 -11 -2h-9q-10 0 -12 2q-25 4 -44.5 8.5t-33.5 10.5q-25 4 -42.5 6t-29.5 4q-45 16 -65 31q-72 37 -106 64.5t-44 41.5q-74 80 -92 111q-12 29 -23.5 63.5t-25.5 75.5q-23 90 -25 131zM621 821q0 -20 12 -33 q29 0 33 5q6 16 8 25t2 13v93q-6 25 -14 24q-23 -20 -29 -30q-6 -12 -8 -22.5t-4 -14.5v-60z" />
<glyph unicode="A" horiz-adv-x="917" d="M8 23q0 4 1 8t1 8q2 23 8.5 37t6.5 47q4 16 5 26.5t3 16.5l12 72q4 41 11 102t18 145q0 20 4 50t8 69q6 45 10 74t6 47q0 10 4 31q10 66 23.5 164t36.5 231q2 20 7 50t15 71l19 110l10 119q20 16 49 17q2 -2 10 -2q6 -2 15.5 -2.5t21.5 -2.5q4 0 7.5 -1t7.5 -1q18 0 34 7 h56q25 -6 57 -7q33 0 76 7h111q4 -37 10 -88.5t16 -114.5q8 -35 16.5 -99.5t24.5 -166.5q4 -23 19.5 -117t39.5 -266q0 -10 2.5 -21.5t8.5 -26.5v-6q0 -18 6 -46.5t6 -41.5l10 -96v-6q0 -20 19 -45l51 -363v-6q0 -6 -6 -8l-11 2h-178h-104q-12 33 -12 45h6q-4 20 -8.5 47 t-8.5 64q0 14 -22 110q-16 23 -51 23h-60q-14 -4 -28.5 -4h-26.5q-33 -2 -49 -19q-6 -76 -12.5 -138t-10.5 -116l-10 -12q-63 0 -111.5 1t-81.5 3l-4 -4l-88 4q-6 6 -6 19zM373 530q8 -10 30.5 -10t24.5 -2q8 -2 43 -2q27 1 39 21q0 72 -14 137q2 8 2 26q0 20 -8.5 64.5 t-8.5 71.5v6q0 16 -5 48t-5 48q-4 23 -10 60.5t-12 91.5q-16 0 -29 -60q-8 -47 -11 -82t-6 -61q-4 -98 -30 -271v-86z" />
<glyph unicode="B" horiz-adv-x="872" d="M23 31q0 4 1 7t1 7q2 53 3 108.5t1 110.5q0 53 -1 108.5t-3 112.5q0 4 -1 10.5t-1 14.5q0 23 2 52.5t6 70.5q0 12 1 30.5t1 41.5t-1 51t-1 63q-2 27 -2 50.5v45.5v42.5t2 37.5l8 172q0 14 -2 34t-6 44q0 16 1 44t3 56.5t3 56.5t1 44q-4 8 -4 27v16t4 18q0 18 10 19h4 q23 0 36 -2t24 -4l18 6q4 0 40 -2t108 -4q20 -2 39.5 -2h39.5h36t34 2h21q47 0 77 -13q25 -2 53.5 -15t63.5 -36q104 -70 135 -209q10 -57 10 -135v-41.5t-2 -44.5q-6 -18 -15 -46t-26 -69q-8 -18 -51 -65q-8 -8 -19 -17.5t-28 -21.5q2 -10 13.5 -19.5t23.5 -17.5t23.5 -15 t13.5 -14q66 -47 98 -172q4 -23 8 -48t4 -54v-14q0 -203 -92 -332q-82 -86 -145 -98q-25 -2 -61.5 -7.5t-86.5 -15.5q-29 2 -71.5 3t-102.5 1h-241q-8 8 -8 27zM336 426q6 -18 6 -45v-66q0 -16 4 -35.5t14 -41.5q25 0 41.5 1t26.5 3q18 6 34.5 23.5t29 41t19.5 50t7 49.5 q0 18 2 20q0 25 -4 60.5t-14 82.5q-53 98 -129 99h-13q-20 -6 -20 -33q0 -33 2 -43zM342 948q2 -16 4 -34.5t19 -26.5q31 0 69 16l35 41q0 25 10 35q2 23 5.5 51.5t7.5 69.5q-2 10 -5 26q-2 14 -5 34t-7 48q-8 47 -82 88q-12 6 -18 7q-14 0 -21 -13q-6 -16 -8 -40.5 t-2 -53.5v-64.5t-2 -31.5v-152z" />
<glyph unicode="C" horiz-adv-x="872" d="M-2 782v21q0 39 5 104.5t17 159.5q2 10 8.5 41t20.5 84q8 2 9 19.5t1 19.5q10 27 13.5 41t3.5 18q18 37 40.5 64.5t47.5 50.5q0 8 9 18.5t19.5 19.5t20.5 16t14 9q57 37 92 39q2 0 8.5 6.5t14.5 6.5q25 0 35 6h98l41 -6q49 -12 100 -45q74 -43 93 -93q6 -4 19 -19t34 -44 q8 -23 21.5 -58.5t29.5 -86.5q4 -12 9 -48t14 -96q6 -37 6 -108q0 -39 -11 -41q-16 -2 -31.5 -2h-33.5q-47 0 -105.5 2t-130.5 6q-6 6 -6 18q0 6 2 10q0 6 1 11.5t1 9.5t-1 7t-1 5q0 16 1 32.5t1 33.5q0 78 -12 168q-25 63 -78 63l-51 -8q-33 -18 -57 -102q0 -4 1 -6.5 t1 -6.5q0 -2 -1 -4t-1 -6q-6 -18 -6 -22v-578q0 -39 18 -156v-16q33 -70 92 -80q8 0 22.5 5t22.5 5q41 33 60 146q-2 12 -2 28.5v38.5v46.5t2 52.5q-2 2 -2 4q0 6 18 6q6 -2 31 -2h24.5t30.5 2q20 0 98 -6q18 6 31 6q14 0 33 -6q12 6 22 6q12 0 25 -6v-19q0 -76 -19 -205 l-18 -47q-12 -35 -26.5 -71.5t-28.5 -77.5q-10 -23 -37 -51q-29 -37 -56.5 -59.5t-52.5 -32.5q-4 -8 -15 -13.5t-23.5 -9.5t-22.5 -7t-12 -5q-10 -2 -23.5 -4t-30.5 -7l-39 -6q-113 0 -174 29q-10 2 -24.5 8t-32.5 21q-55 49 -59 53q-31 33 -43 68q-68 109 -101 305z" />
<glyph unicode="D" horiz-adv-x="821" d="M-6 1491q0 10 3 17.5t7 11.5h203h47t68 -2q41 -2 69.5 -2h46.5q170 -23 252 -175q23 -41 39 -87t27 -97q0 -23 6 -86q2 -20 3 -35.5t1 -31.5v-19q-4 -8 -4 -14q0 -4 4 -13q2 -10 3 -16t1 -8l8 -12v-181v-26q0 -78 -12 -299q-4 -16 -9 -41t-16 -60q0 -25 -16 -63 q-12 -68 -92 -160q-14 -10 -32.5 -24.5t-47.5 -32.5h-4q-10 0 -24.5 -8.5t-16.5 -8.5q-18 -6 -49 -10t-64 -6t-65.5 -3t-55.5 -3h-229q-16 0 -27.5 1t-21.5 3v137q0 45 1 123t3 191q0 45 1 84.5t1 74.5t-1 66t-1 55v32.5t-2 57.5q-2 37 -2 68v55q0 20 1 75.5t3 143.5v70 q0 53 -1 113.5t-3 132.5q-2 4 -2 12zM301 406q0 -10 1 -19.5t3 -19.5q-2 -6 -2 -31q0 -12 2 -29.5t6 -36.5q0 -2 2 -2q8 -8 17 -8q4 0 6 1t6 1q20 4 25 4h8q31 2 74 90q2 29 4 75t2 106v182q0 90 6 137v152q-8 12 -8 22q0 6 2 10q0 6 1 11.5t1 9.5t-1 6t-1 4q0 74 -25 121 l-33 45q-35 18 -61 18q-4 0 -9 -2t-12 -4q-10 -25 -10 -63v-664q2 -8 2 -26v-14.5t-2 -16.5q-2 -27 -3 -40t-1 -19z" />
<glyph unicode="E" horiz-adv-x="778" d="M2 852q0 27 1 49.5t1 42.5q-2 2 -2 14q0 10 2 17q2 6 2 18q0 10 -2 15q2 18 2 38.5v45.5v49t-2 55q-2 16 -2 36.5v45.5v54.5t2 64.5v78q2 0 2 6q0 8 -2 14v2q0 10 14 10v-6q2 0 4.5 7.5t6.5 7.5l41 -9h407q10 2 17.5 3t15.5 1q6 0 13 -1t18 -3h41q18 2 39.5 3t46.5 1 q23 0 44 -1t44 -3q0 -14 1 -34.5t3 -55.5q0 -16 1 -29.5t1 -23.5t-1 -19.5t-1 -15.5q0 -72 -12 -80q-68 2 -170.5 4t-237.5 7q-31 -16 -31 -52q0 -84 2 -84v2v-73q-2 -4 -2 -13q0 -12 3 -27.5t3 -23.5v-15t-2 -30q0 -25 21 -41h317q16 0 17 -33q-4 -16 -4 -20q0 -12 4 -21 q-2 -14 -2 -36.5v-53.5l2 -34q0 -14 -6 -60q-4 0 -6.5 1t-6.5 1t-8 -1t-8 -1q-12 -4 -21 -4q-12 0 -29.5 2t-27.5 2h-8q-10 -2 -31 -2q-33 0 -63.5 4t-44.5 4q-29 0 -49.5 -2t-36.5 -4q-4 -31 -6 -54.5t-3 -39.5q0 -25 2 -33v-248q16 -18 45 -20q4 -2 19 -2h12t17 2 q14 2 25 2h22q14 2 32.5 2h42.5h54.5t66.5 -2q20 0 37 2t31 6h22q17 0 25 -18v-50t-4 -71q-2 -41 -2 -69.5v-51.5v-4h-51t-78 2t-81 2h-61h-196q-6 0 -12.5 1t-16.5 1q-8 0 -18 -1t-21 -1q-12 -2 -21 -2h-20q-20 0 -28 2q-25 -2 -60 -3t-78 -1l-14 4q4 53 4 120.5v147.5 t-1 163t-2 161t-2 145.5t-1 114.5z" />
<glyph unicode="F" horiz-adv-x="735" d="M12 403q2 47 4 121t2 172v86q-4 8 -4 19q0 6 4 22q2 16 3.5 26.5t1.5 12.5q0 12 -5 25v207q6 27 7 151q0 49 -7 148v6q0 6 -1 19.5t-3 35.5v8q0 33 17 45q4 -2 14 -2t14 2q10 -2 37 -2h24.5t29.5 2q8 4 16 4q2 0 8 -1t16 -3q6 -2 17 -2q6 0 8 2h115h24h82h25q8 -4 10 -4 q4 0 6 2q6 2 12 2h3h180q12 4 24 4q10 0 26 -2t34 -8q0 -39 -11 -49q4 -16 5 -31q0 -14 -2.5 -34.5t-2.5 -34.5q0 -10 1.5 -16.5t3.5 -12.5t2 -14q0 -12 -13 -19q-2 -2 -6 -2t-8 6t-8 6v-18l8 -2q4 -2 9 -5t14 -7q4 -4 4 -6q0 -4 -2 -7h-9q-12 0 -32 -6q-164 0 -234 6 q-23 -6 -123 -6q-6 -2 -16 -22l-6 -301q10 -23 22 -29h223q2 0 3.5 -1t5.5 -1q12 0 30 6h13q16 0 18 -8l8 4l4 -10q0 -98 2.5 -157.5t4.5 -78.5q-8 -12 -23 -12q-6 0 -10 2q-18 0 -29.5 1t-21.5 1h-12.5t-16.5 -2q-31 -6 -39 -6q-12 0 -20 6q-49 0 -87 -2t-63 -6l-12 -17 q0 -4 1 -25.5t3 -58.5q2 -25 3 -47t1 -43q0 -10 -1 -18t-1 -16l-6 -287v-121q0 -18 -6 -18l-68 6h-231l-7 12q0 37 7 115q-2 47 -4.5 118.5t-8.5 169.5z" />
<glyph unicode="G" horiz-adv-x="892" d="M29 610v127q0 18 1 46t1 57.5t1 57.5t1 46v51q0 31 6 67t16 79q4 10 8.5 22.5t10.5 28.5q0 -6 8 -6l4 2q14 6 14 8q-4 8 -14 13t-10 10l28 71q12 23 32 52.5t48 68.5l52 51q16 12 29.5 21.5t27.5 13.5h6q10 14 26.5 17.5t41.5 11.5q37 14 82 14q53 0 114 -24h23 q12 -8 20 -19l31 -22q51 -41 104 -105q4 -6 14.5 -24.5t10.5 -32.5q4 -10 10 -23.5t17 -29.5q6 -16 14 -45t22 -70v-15q0 -29 5.5 -69.5t5.5 -59.5q0 -53 -11 -67h-274q-2 0 -3 1t-3 1t-3 -1t-5 -1q0 8 -9.5 6t-9.5 4t4 16.5t4 20.5v4q2 14 2 26.5v24.5q0 49 -10 90 q0 90 -67 134q-53 0 -74 -37q-4 -10 -10 -26.5t-15 -39.5q-10 -29 -13 -78t-3 -118v-306q0 -14 2 -36.5t2 -32.5q-4 -8 -4 -15q0 -4 1 -5t1 -5q2 -6 2 -11v-9v-4v-181q4 -16 8 -30.5t10 -26.5q18 -51 74 -51q57 12 64 51q10 8 12 25.5t10 19.5v197q-4 4 -15 6t-23.5 3 t-22.5 2t-12 1v229q8 8 22 9h10q10 -2 19.5 -3.5t13.5 -1.5q2 0 4 2h328l6 -10q-2 -133 -4 -327.5t-2 -454.5q0 -12 -12 -25q-8 4 -23 4h-12t-17 -4q-8 0 -17 -1t-20 -1q-31 0 -70.5 2t-88.5 6q-4 8 -6 37t-17 37q-10 -10 -23.5 -21.5t-31.5 -25.5q-63 -27 -64 -27 q-16 -10 -41.5 -10t-35.5 -2q-94 0 -156 58q-14 8 -45 51q-137 158 -137 536z" />
<glyph unicode="H" horiz-adv-x="841" d="M-2 741.5v77.5q2 47 2 96.5t2 96.5q2 37 2 72.5v70.5t-1 68.5t-1 66.5l-4 133v13q0 31 12 65q33 0 84 4t117 11q14 -6 45 -7l23 -12q10 0 12 5t4 5l14 -10q2 -23 3 -44t1 -42q0 -23 -1 -41t-3 -41v-106l4 -9v-194q0 -78 13 -94q6 -2 14 -2q10 0 14 2q16 -2 29.5 -3 t24.5 -1q35 0 51 12q2 14 4 54t2 106v403l22 10q10 -2 24.5 -2h33.5q31 0 79 2t81 2q16 0 30.5 -1t26.5 -1q8 -2 14 -51q2 -23 2 -95.5t2 -197.5l6 -352v-147q0 -4 1 -5.5t1 -3.5q0 -4 -1 -5t-1 -5q-6 -12 -6 -18q2 -10 4 -19.5t2 -21.5q0 -10 -2 -19.5t-4 -19.5v-160v-174 t-4 -213q-16 -8 -26 -8q-8 0 -17.5 2t-21.5 6h-236q0 8 -2 16t-3 19.5t-1 27.5l-4 64v373q-2 2 -2 10t2 17.5t2 15.5q0 2 -1 3t-1 3q-4 4 -4 18q0 6 1 16.5t3 22.5q0 33 -25 45l-34 -6l-74 6q-10 -10 -15.5 -23.5t-5.5 -31.5v-33.5t2 -25.5q0 -6 -1 -51.5t-3 -131.5 q-2 -27 -3 -51t-1 -47t1 -43t3 -39l4 -129v-12q0 -27 -10 -33h-223q-53 0 -70 4q-8 33 -8 123q2 8 4 17.5t2 21.5q0 6 -4 35.5t-4 62.5q0 18 2 29v22v134t-2 161q-2 78 -2 131.5z" />
<glyph unicode="I" horiz-adv-x="430" d="M49 1507q4 8 64 19q10 -4 23.5 -4h33.5l27 -13q16 0 24 5.5t15 5.5q20 0 50.5 2t73.5 8q0 -18 1 -48t4 -71q-4 -8 -5 -16q0 -10 2 -15q2 -10 2.5 -16t0.5 -10v-6v-226q0 -16 1 -43.5t3 -56.5t3 -56.5t1 -43.5v-918q-4 -12 -19 -12h-4q-12 4 -19 4h-12q-16 -4 -43 -4 q-16 0 -36.5 1t-44.5 3q-39 0 -74 1t-66 3z" />
<glyph unicode="J" horiz-adv-x="808" d="M8 362v32t2 40v29v45q0 35 6.5 43t32.5 8h281v-293q2 -16 26 -41q12 -6 25 -6q6 0 13 1t13.5 9.5t11.5 25.5t9 50q0 168 6 363l4 196v258l-4 4q0 121 -2 208t-4 145q-2 4 -2 12q0 16 12 35q10 2 31 2q20 0 29 -2h106q4 -2 17 -2q12 0 26.5 2t24.5 2q4 0 6 -1t4 -1h16 q8 0 18.5 -1t20.5 -5q0 -16 2 -40t6 -53v-63q2 -55 3.5 -137t1.5 -197v-86v-29v-30.5t-5 -38.5v-524q0 -12 -4 -30t-8 -37t-9 -35.5t-5 -24.5q0 -16 -10 -35q-70 -133 -201 -178q-20 -6 -32.5 -8.5t-22.5 -2.5h-9q-10 -4 -22 -4h-29q-111 0 -190.5 37t-126.5 123 q-12 14 -41 92q-14 43 -20.5 71.5t-6.5 71.5z" />
<glyph unicode="K" horiz-adv-x="872" d="M20 1372v65.5t3 63.5q0 16 13 18.5t27 6.5h46q78 0 194 -6q2 6 10 6h6l21 -6q2 -6 3 -11.5t1 -11.5q0 -8 -4 -29q-4 -14 -6 -24t-2 -21q0 -2 1 -4t1 -4v-299l10 -10l2 -2q8 0 10 8q10 16 20.5 46t20.5 71q14 43 25.5 73.5t26.5 49.5q6 27 14 64.5t18 90.5q20 18 66 19 q10 -4 22.5 -4h30.5q31 0 72 2t94 6h2q2 0 2 1t2 1q4 0 5 -1t5 -1q16 -4 17 -4h8v-6q0 -23 -21 -64q-16 -29 -23 -44t-11 -19q-12 -39 -47 -117t-91 -199q-6 -4 -7 -21.5t-15 -19.5q-10 -27 -15.5 -42t-5.5 -25q0 -23 15 -35l24 -70q0 -10 2 -23.5t9 -29.5l12 -29 q16 -57 29 -104q2 -4 5 -14.5t7 -22.5q6 -23 17 -60.5t28 -91.5q6 -31 19.5 -73.5t31.5 -100.5q0 -6 12 -22q0 -14 8.5 -39t8.5 -35q23 -63 38 -110.5t25 -79.5q8 -8 8 -19v-6l-14 -4q-104 0 -309 12q-14 45 -36 123t-52 195q-6 29 -18.5 80t-32.5 127q-10 10 -19 10h-4 q-6 -14 -16.5 -36t-24.5 -50q-2 -39 -3 -94.5t-1 -128.5v-2q0 -76 -2 -131.5t-4 -92.5l-8 -8h-293l-4 19v743q-4 12 -4 25q0 10 1 19t3 19q-6 33 -6 68t6 70q0 14 -2 80.5t-4 191.5q-2 35 -2.5 67.5t-0.5 65.5z" />
<glyph unicode="L" horiz-adv-x="731" d="M8 18q2 78 3 197t1 281q0 8 -1 24.5t-1 35.5t-1 36.5t-1 30.5l4 170q0 25 1 61.5t1 83.5t-1 105.5t-1 130.5q0 66 -1 150.5t-3 191.5q2 2 7 4t10 6q117 0 187.5 1t92.5 3q18 0 19 -23q0 -68 -1 -136t-4 -140q0 -12 1.5 -31.5t1.5 -41t1 -40t1 -28.5q0 -285 6 -426 q-4 -59 -5 -144.5t-6 -197.5q-2 -6 -2 -15q0 -20 13 -37l16 -4h344q16 0 26.5 -2t14.5 -4q6 -8 6 -35v-26q-2 -10 -3 -19.5t-1 -15.5q0 -18 3 -29.5t3 -23.5q0 -13 -2 -21t-3 -14t-1 -13q0 -10 1 -17t1 -13q0 -16 -8 -33q-12 -2 -25.5 -3t-29.5 -1q-6 0 -12.5 1t-12.5 1 q-20 2 -35.5 2h-25.5h-15h-393q-27 0 -66.5 1t-93.5 3z" />
<glyph unicode="M" horiz-adv-x="1171" d="M8 23v40q0 168 12 474q-2 2 -2 8q0 8 2 14v150l5 321q-6 20 -7 37q0 4 1 7t1 7l5 86v359q12 8 20 8q4 0 5 -1t5 -1q12 -2 20.5 -2h14.5q72 0 124 -1t87 -3q6 -2 23 -2q29 0 71 6q31 0 39 -33q0 -72 6 -104q10 -39 29.5 -153t50.5 -306l8 -47q4 -12 9.5 -20.5t11.5 -14.5 q10 0 15 11t7 11q8 4 12.5 15.5t7.5 24t5 22.5t6 12q10 84 20.5 145.5t20.5 102.5q6 23 12.5 59.5t16.5 85.5q12 16 14 52q4 53 4 55q4 27 9.5 52.5t27.5 25.5q8 -2 35 -2t58.5 2t56.5 2q8 0 15 -1t13 -1h47q33 0 105 12q12 -2 45 -12q4 -12 4 -92v-127q0 -129 -1 -221.5 t-3 -151.5q2 -33 3 -52.5t1 -29.5l-4 -166q-2 -6 -2 -18q0 -14 3 -35t3 -29q0 -29 -1 -81t-3 -130q-2 -35 -2 -65.5v-57.5v-51t2 -41q-2 -25 -4 -65.5t-2 -100.5h-13h-252l-6 6v500q0 61 -1 110.5t-3 90.5q2 6 3 10t1 10q0 23 -16 39q-14 -8 -20.5 -12t-8.5 -6 q-6 -43 -30 -133q0 -53 -15 -90q-8 -35 -17 -83t-20 -114q-8 -23 -13 -67t-13 -66q-4 -37 -11.5 -83t-17.5 -101q-16 -18 -35 -19h-6l-110 8h-5q-10 0 -18 29q-2 41 -29 125q0 27 -12 76q-2 23 -7 55.5t-15 77.5q0 6 -6.5 41t-16.5 102l-47 264q-4 6 -12 6q-27 0 -27 -51 q0 -4 1 -10t1 -10v-44.5t-4 -27.5q0 -98 -6 -309q-6 -133 -6 -221q0 -27 1 -49.5t1 -42.5v-5q0 -8 -29 -14h-18q-37 0 -84 8q-4 0 -9.5 1t-13.5 1q-6 0 -13 -1t-18 -1q-4 0 -15 -1t-34 -3q-4 -2 -10 -2q-20 0 -33 17z" />
<glyph unicode="N" horiz-adv-x="839" d="M29 856v463v188l4 13h317q12 -16 21 -41l14 -45q10 -37 24.5 -88.5t30.5 -122.5q6 -8 9.5 -23.5t6.5 -33t7 -33t8 -21.5q6 -25 18.5 -61.5t28.5 -83.5h2q8 0 21 12l-9 70q-2 98 -5 209.5t-9 238.5q0 23 29 23q16 0 32.5 1t34.5 1q16 0 35 -1t39 -1q4 0 7 -1t7 -1 q20 0 46 8q23 -12 22 -19q0 -25 6 -266v-262q0 -45 1 -82t1 -70t-1 -57.5t-1 -44.5q2 -10 2 -22.5v-26.5v-32.5t-2 -39.5q4 -6 4 -20v-15q-6 -18 -6 -28q0 -4 2 -4q0 -109 6 -146q-6 -29 -6 -86q0 -211 6 -305l-12 -4h-178q-8 -4 -27 -4q-10 0 -24.5 2t-30.5 6 q-10 39 -24.5 95.5t-36.5 133.5q0 20 -76 267q-10 27 -25.5 74.5t-38.5 119.5q0 4 -4 6t-6 2q-4 0 -6 -2q0 -29 -8 -45q8 -8 8 -110v-537q-6 -6 -11.5 -10t-15.5 -4q-14 0 -26 6q-53 0 -90 -2t-66 -6q-20 0 -51 16l6 211q4 20 4 43q0 20 -3 47t-7 62q0 4 -1 6t-1 6 q0 10 2 25.5t6 33.5q-4 14 -4 32.5v47.5v2v49.5t-2 34.5z" />
<glyph unicode="O" horiz-adv-x="925" d="M16 823q0 2 1 3t1 3q6 27 10.5 52.5t4.5 48.5q0 8 -1 15t-1 16q2 6 2 25.5t2 49.5q0 49 18 68q16 141 97 266l36 53q39 39 75 62.5t73 34.5q12 0 22 6q27 4 51.5 8t47.5 4q55 0 104 -18h2q12 0 31.5 -11.5t30.5 -11.5q23 -16 38 -28.5t25 -20.5q37 -35 51 -62 q25 -20 76 -141q8 -12 39 -178q10 -25 14 -72q0 -29 2 -46t6 -27q0 -14 3 -37q2 -18 2 -45t4 -64q2 -25 2 -46v-40q0 -18 -1 -33.5t-1 -29.5l-9 -86q-12 -123 -45 -230l-28 -86q-12 -39 -70 -110q-63 -100 -188 -138l-31 -6h-104q-57 0 -113 31q-2 2 -26.5 17.5t-71.5 50.5 q-14 16 -25.5 33.5t-21.5 33.5q-16 29 -32 54.5t-32 50.5q-2 4 -13.5 58t-37.5 161v80l-4 41v32q0 31 -2 68t-6 84q2 2 2 14q0 4 -4.5 18.5t-4.5 24.5zM342 920.5q0 -46.5 4 -101.5q-2 -6 -2 -20v-13.5t2 -15.5v-248q4 -29 4 -55.5t2 -52.5q2 -66 23 -109q29 -53 92 -53 q31 0 59 59l10.5 42t12.5 63q2 84 3 178.5t1 198.5q6 25 6 67q0 23 -2 48.5t-4 58.5q-4 76 -11 131t-16 94q-16 25 -59 57q-8 2 -23 2q-35 0 -69 -28q-10 -29 -17.5 -55.5t-11.5 -55.5q-4 -16 -4 -44v-64v-83.5z" />
<glyph unicode="P" horiz-adv-x="817" d="M23 178q0 35 6 96q2 68 3 111t2 71.5t2 51t1 49.5q0 63 -4 109.5t-4 105.5q0 12 1 24.5t1 26.5q2 96 2 186.5v178.5v169t-2 163q10 16 35 16h8q33 -6 53 -6q4 -2 14 -2q14 0 23 2q14 0 35.5 -1t46 -1t47 -1t37.5 -1q2 0 4 1t6 1q10 0 22.5 -2t22.5 -2q8 0 12 2h15 q20 0 45 -6q55 -6 94 -15.5t61 -25.5q51 -31 93 -97q18 -12 36 -79q4 -10 8.5 -19.5t10.5 -23.5q31 -121 31 -222q0 -18 -1.5 -36.5t-3.5 -34.5q-4 -14 -9 -37t-17 -56q0 -23 -13.5 -50t-37.5 -68q-47 -98 -252 -140q-12 -4 -24.5 -4h-24.5h-26.5t-25.5 4q-12 -4 -22 -57 q8 -23 8 -139v-416q-8 -2 -31 -2q-20 0 -28 2h-51t-74 -2q-41 -2 -71 -2h-52l-4 12q0 8 -6 144q0 4 -1 9t-1 13zM328 903q0 -29 18 -39q8 -8 64 -8q39 12 57 55q0 10 9 38t9 48v4q2 16 2 34v36v37.5t-2 42.5q-4 31 -12 59.5t-22 57.5q-12 23 -30 32t-36 9q-10 0 -21.5 -4.5 t-21.5 -8.5q-14 -37 -14 -110v-24.5t2 -26.5q0 -33 1 -62t1 -57q0 -29 -1 -53.5t-1 -47.5q0 -4 -1 -6t-1 -6z" />
<glyph unicode="Q" horiz-adv-x="901" d="M10 834v110q2 27 7.5 65t15.5 85q27 178 125 317q2 4 16 12.5t14 22.5q72 78 185 96q6 0 29.5 4t54.5 4q6 0 12 -1t12 -1q86 -18 140 -51q14 -2 41 -22q16 -16 22 -24.5t10 -12.5q72 -72 123 -242l-4 -2q0 -2 4 -6q2 -16 6 -38t8.5 -42.5t8.5 -38.5t4 -27q0 -12 2 -49 t8 -100q0 -8 1 -21.5t1 -35.5q0 -23 -1 -51.5t-1 -65.5q0 -35 -2 -72t-8 -78v-10q0 -80 -45 -266q-66 -164 -156 -242l-7 -6t-15.5 -13t-14.5 -14.5t-6 -13.5q0 -2 2 -4q57 -74 174 -74q45 0 64 -8q4 -8 4 -20v-9q-14 -10 -33.5 -20t-48.5 -25q-57 -41 -99 -69.5t-71 -44.5 q-16 -4 -30.5 -6.5t-24.5 -2.5q-18 0 -27 5q-86 70 -150 223l-6 28q-23 10 -51.5 23.5t-62.5 34.5q-16 12 -39 31.5t-47 48.5q-143 162 -144 719zM332 449q2 -82 35 -150q14 -33 73 -33q45 0 52 33q27 25 30 84q4 31 6 53.5t4 34.5v473q0 229 -45 287q-10 23 -69 29 q-61 -18 -74 -93q-12 -86 -12 -114v-604z" />
<glyph unicode="R" horiz-adv-x="854" d="M31 1501q2 10 19.5 13.5t31.5 5.5q29 0 72 -1t102 -3q2 -2 10 -3q10 0 27 7q8 -2 17 -3t22 -1q16 0 31.5 1t31.5 1q23 0 31 -2q10 2 31 2q92 0 229 -72q125 -104 125 -350q0 -186 -61 -318l-41 -41q-18 -18 -45 -51q10 -41 25.5 -114.5t37.5 -180.5q8 -41 21.5 -99.5 t29.5 -135.5q4 -14 11.5 -40t17.5 -65q2 -4 3 -10t1 -16q0 -17 -4 -25q-68 6 -109 6h-25t-22 -2h-14q-27 0 -62 8h-67q-10 59 -21.5 144.5t-25.5 199.5q0 14 -4 40t-9.5 52.5t-9.5 51t-4 41.5q0 100 -59 100q-8 -8 -23 -37v-586q-4 -14 -28 -14h-9h-274q-2 6 -4 19.5 t-2 35.5q6 25 6 179l-6 1030q0 33 -1 91t-3 142zM346 1115q0 -28 4 -64q2 -37 2 -65v-48q0 -70 10 -82h95q20 6 51 59q2 25 3 67t1 99v64q0 16 -7 47t-20 76l-41 22q-12 2 -21 2h-20q-35 0 -47 -10q-2 -18 -4 -48t-6 -71v-48z" />
<glyph unicode="S" horiz-adv-x="860" d="M39 422q0 4 1 9t1 9q4 10 22 11h57t79 -2t78.5 -2.5t56.5 -0.5q12 0 12 -18q-10 -31 -10 -61q0 -18 3 -37t7 -41q0 -14 6 -21q18 -27 51 -32q4 -2 13 -3q18 0 45 17q20 47 20 106q0 113 -71 176q-12 14 -23 19q-25 29 -49.5 49.5t-48.5 36.5q-53 41 -90 83t-60 83 q-33 33 -39 59q-16 29 -18 45q-23 66 -23 99q-4 20 -6 36.5t-4 26.5q8 205 84 311q6 8 18.5 20.5t25.5 25t26.5 24.5t21.5 23q25 18 41 26q16 0 17 -4q0 23 28 23l76 18q29 -4 52.5 -6t39.5 -2q8 2 23 2q25 0 51 -8q37 -12 59.5 -23.5t32.5 -15.5q33 -20 59.5 -45t45.5 -58 q70 -152 69 -288v-74l-22 -8q-92 12 -267 12l-18 6q-2 2 -2 12t2 17v131q-27 68 -51 82q-10 2 -18.5 4t-16.5 2q-18 0 -29 -10q-43 -43 -43 -109q0 -12 2 -26.5t9 -28.5q0 -16 8 -48t8 -48q14 -20 16 -29q33 -41 61.5 -74t53.5 -53q45 -37 71.5 -61.5t39.5 -36.5 q92 -92 108 -131q51 -68 51 -123v-17q0 -12 4.5 -36.5t4.5 -38.5v-80q0 -16 -9.5 -44t-9.5 -42q-12 -4 -12 -41q-49 -111 -160 -185q-98 -39 -201 -39q-184 0 -276 142q-27 25 -41 78q-14 43 -23 86q0 2 -4 22.5t-10 56.5q-6 33 -6 62z" />
<glyph unicode="T" horiz-adv-x="864" d="M6 1503q0 14 12 39q8 4 21 4q10 0 20.5 -3t16.5 -3q2 0 3 1t3 1h438q16 0 32.5 -1t33.5 -1q47 0 92 2t90 6h14.5t26.5 2h4q18 0 18 -20q29 -16 29 -80v-12l-6 -109q-4 0 -6 1t-4 1q-4 0 -5 -1t-3 -1q-6 -4 -7 -8q0 -2 1 -4t1 -4v-6q0 -8 3 -17v-6q0 -10 -3 -16 q-12 -6 -40 -6h-41q-23 0 -29 -2q-8 4 -20.5 5t-28.5 1h-35q-55 -6 -55 -29q0 -8 2 -10v-53t2 -84q4 -59 4 -104.5v-82.5v-891q-4 -4 -8 -6t-11 -2q-10 0 -22 8q-88 0 -260 -12q-16 4 -17 41v184q0 16 -1 54t-3 98q-2 59 -2 112.5v96.5v243q4 4 4 13q-2 2 -2 6t-1 7t-1 7 q-4 8 -4 10q0 4 4 9q0 4 4 14t4 27l-12 20v31.5t-2 27.5q0 4 -1 8.5t-1 8.5q0 14 2 34.5t6 47.5v63q0 4 1 8.5t1 8.5q0 31 -18 80l-133 8h-99l-6 4q0 72 -1 127t-3 94q-2 2 -2 10z" />
<glyph unicode="U" horiz-adv-x="821" d="M8 498v311q6 334 6 328v399q10 10 58 10h241l6 -10q-4 -33 -4 -65.5v-63.5v-75t4 -52v-16q0 -27 -3 -56.5t-7 -64.5q0 -6 1 -24.5t1 -42t1 -49.5t1 -46v-608q0 -70 47 -92q14 -8 35 -9q41 14 54 74q2 8 2 34v66q-2 20 -2 43q-2 20 -2.5 45t-0.5 50q0 37 1.5 81t1.5 93 t-1.5 105.5t-1.5 117.5v98q0 4 -1 6t-1 7q0 20 7 51q-4 20 -5 98q0 41 1.5 69.5t3.5 47.5q-2 12 -2 29.5v44.5q-2 25 -2.5 43t-0.5 30q0 15 -2 25q4 10 15 10h6h78q10 0 18 -1t19 -1q29 0 55.5 2t52.5 6h10q16 0 41 -6h19q4 -16 4 -92v-56t-2 -106t-2 -123v-106v-576 q0 -193 -19 -260q-14 -29 -39 -61q-25 -29 -37 -45.5t-16 -20.5q-61 -49 -104 -61q-6 -8 -33 -13q-57 -20 -133 -20t-137 25q-139 61 -191 174q-14 8 -17 28.5t-7 22.5q-4 23 -7.5 55.5t-3.5 77.5q0 20 -3 56t-3 59z" />
<glyph unicode="V" horiz-adv-x="849" d="M0 1505q0 29 14 35q8 -2 35 -2l12 -8h25v2h70q10 2 22 2h29q43 0 104 -6q2 -8 3 -24.5l2 -33t1 -33t5 -24.5q2 -86 10 -183t24 -208l52 -387q10 -10 18 -10l10 10q0 53 31 352q4 41 9 84t13 90q0 4 2.5 28.5t8.5 72.5q2 35 9 98t19 158q0 16 23 22q2 0 6 -5t8 -5l6 8 q10 0 15 -6q2 2 12 2t16 -2q16 -2 37 -2h47h54.5t64.5 2q12 -4 12 -14q0 -4 -2 -9.5t-6 -13.5q0 -20 -4 -37v-22l-16 -133q-12 -104 -31 -207q-2 -12 -3 -28.5t-1 -39.5q-14 -78 -20.5 -136t-8.5 -93q-2 -8 -4 -22.5t-4 -37.5l-33 -282v-11q0 -25 -5 -56.5t-13 -70.5v-51 q-4 -23 -7 -38t-3 -25v-51q-4 -25 -8.5 -60t-8.5 -80h-162q-10 2 -34 2h-28.5t-33.5 -4q-14 -2 -26.5 -3t-22.5 -1q-27 0 -45 6q-29 -6 -88 -6q-10 4 -23 58q-2 27 -7 61.5t-15 81.5v6q0 16 -3 42t-3 44v8q-4 29 -10.5 71t-15.5 104.5t-21.5 148.5t-26.5 203q-6 72 -16 110 q0 10 -10.5 89t-26.5 222q-6 53 -14.5 115t-18.5 133z" />
<glyph unicode="W" horiz-adv-x="1175" d="M-4 1518q2 6 10 6t14 -2t17 -2q8 0 12 2l148 6h16q10 0 20.5 -1t22.5 -5h10q4 -29 7 -72t10 -100q16 -45 22 -148l6 -72q6 -29 13.5 -70.5t17.5 -101.5l4 -63q-2 -4 -2 -10q0 -18 21 -25q20 0 28 17q4 53 13.5 126.5t27.5 172.5q0 20 2 49.5t8 72.5l13 117q2 14 3 34.5 t1 49.5q10 29 41 29h133q4 0 10 1t17 1q8 0 17 -1t19 -1q-2 -2 -2 -4t2 -2q0 2 7 2q6 0 10 -2v6q10 -55 23.5 -139t29.5 -195v-8q0 -16 5 -50t15 -89q0 -49 13 -129q0 -23 22 -58q31 4 35 36t6 60q2 31 19 136v8q0 41 18 186q0 16 2 34.5t8 41.5q2 10 3 28.5t1 41.5l9 51 l-2 2q-2 0 -2 2q0 4 4 8v14q2 16 41 21q47 0 51 2q23 0 65.5 -2t65.5 -2l6 -19q-16 -143 -29.5 -257.5t-21.5 -200.5v2q-2 0 -7 -44t-12 -114q-2 -25 -7 -67t-9 -101l-6 -70v-12q0 -10 -1 -25.5t-3 -35.5q-4 -16 -7 -43t-8 -62q-2 -25 -5 -69.5t-11 -108.5v8q-4 0 -10 -141 l-15 -154q-8 -8 -20 -8q-8 0 -12 2q-8 0 -14.5 1t-10.5 1q-6 0 -9 -1t-7 -1t-30 -4t-54 -4l-31 4h-66.5t-48.5 -2q-2 10 -4 21.5t-8 25.5l-51 402q-6 57 -19 114q0 2 1 4t1 4q0 10 -4 27.5t-8 42.5q-2 2 -10 2q-4 0 -16.5 -12t-20.5 -12q-6 -98 -39 -275q-2 -16 -4 -45 t-8 -70q-2 -2 -2 -16v-14q0 -20 -4 -25q-2 -10 -7.5 -52t-15.5 -116q-2 -4 -12 -4t-16 4h-105q-10 -4 -27.5 -4h-39.5l-23 4q-4 0 -10 -2q-12 -4 -31 -4h-25q0 6 -8 13.5t-8 15.5q-10 72 -25.5 200.5t-37.5 317.5q-4 8 -11.5 79.5t-23.5 207.5l-17 155l-18 142v-3 q-6 66 -17.5 162.5t-27.5 225.5z" />
<glyph unicode="X" horiz-adv-x="995" d="M35 4v16q14 37 53 133.5t102 252.5q27 68 64 168t90 235q2 6 4 11t2 11q0 14 -10 38t-10 32q-12 31 -33 86t-49 133q-10 25 -27.5 69t-42.5 109q-14 25 -25.5 51.5t-21.5 57.5q-14 37 -23.5 65.5t-15.5 49.5h156q41 0 79 -1t70 -3l6 -13q12 -37 36 -99.5t61 -154.5 q14 -10 18 -10q8 0 13.5 9.5t15.5 35.5q23 35 22 64h6q6 29 20.5 68.5t37.5 90.5q6 6 15 7.5t20 1.5h28q14 0 19 4q10 -2 23.5 -2h29.5l23 -15q16 0 22 6.5t10 6.5q16 2 42 3t61 1l12 -4q-16 -37 -42 -100.5t-62 -155.5q-12 -33 -36 -93.5t-61 -146.5v-2q0 -8 -12 -21 q-12 -25 -25.5 -61.5t-25.5 -87.5q-8 -16 -8 -33q0 -10 2 -14q10 -23 31.5 -78t56.5 -141q18 -47 37.5 -96.5t35.5 -100.5q6 -27 86 -207q4 -10 14.5 -39.5t26.5 -79.5q25 -29 25 -51q0 -8 -2 -12h-168q-23 0 -56.5 1t-80.5 3l-47 131q-10 25 -20.5 56.5t-24.5 72.5 q-6 16 -14.5 35.5t-20.5 44.5q-4 16 -15.5 38.5t-31.5 47.5q-29 -29 -29 -63q-20 -47 -41.5 -106.5t-44.5 -127.5q-2 -14 -29 -59v-6q0 -16 -8 -33t-8 -25q-12 -10 -47 -10h-248q-10 0 -10 6z" />
<glyph unicode="Y" horiz-adv-x="770" d="M20 1505q0 16 15 17q41 0 101.5 -1t142.5 -3q2 0 11 2t11 2v-13l4 9q6 -23 17.5 -54.5t23.5 -72.5q0 -16 10 -54q6 -23 8.5 -37t6.5 -20q4 -31 17 -74t36 -100q2 -2 6 -2q6 0 8 2q12 29 31 100q8 29 15.5 63t13.5 74q2 6 6 21.5t8 40.5q6 18 9 32.5t5 27t6.5 24.5 t16.5 29h31q41 0 96 3t127 7q12 0 22 -10l-11 -33t-17 -49q-14 -41 -45 -154t-80 -301q-10 -33 -23.5 -78t-36.5 -104q-23 -66 -35 -117t-12 -92v-385q2 -14 2 -26.5v-24.5v-24.5t-2 -23.5q6 -25 6 -55q0 -29 -6 -53h-104q-100 0 -156 -6q-45 0 -45 22q0 90 8 121 q-8 39 -8 123l-4 41v336q-10 23 -20.5 56.5t-20.5 80.5q-4 10 -10 29.5t-15 52.5q-12 55 -19 89t-7 44q-14 31 -27.5 75t-23.5 103q-16 66 -27.5 110t-19.5 68q-12 41 -23.5 81t-22.5 81z" />
<glyph unicode="Z" horiz-adv-x="796" d="M-8 1274v6l3 15t1 10v4q2 10 3 21t1 28q0 29 -3 64.5t-3 56.5q0 14 2 20q2 0 3 9.5t7 9.5h2q12 4 33.5 5t45.5 1h44.5t32.5 4h155q172 0 177 -2q0 -2 4 -2q2 0 22 4h15q14 0 16 -6q14 4 37.5 4h49.5t49.5 1t37.5 5q20 0 29 -4v-293q-10 -16 -42 -85t-83 -192 q-4 -4 -15.5 -29.5t-31.5 -68.5q-10 -27 -32 -74t-50 -114q-8 -10 -14.5 -27.5t-12.5 -37t-11 -37t-9 -23.5q-6 -16 -22.5 -39t-16.5 -39q-6 -16 -23.5 -61.5t-46.5 -116.5q8 -10 98 -19q16 -2 39 -2h52h62.5t74.5 2q4 -2 15 -2h28h2q35 0 45 -2l6 -22q-4 -41 -6 -76t-2 -64 q0 -59 8 -92q-10 -16 -27 -16h-6q-10 0 -17 1t-11 1t-6.5 -1t-4.5 -1h-2q-53 0 -92 1t-63 3h-9h-522v92v207l51 123q18 45 68 166q6 12 13 29.5t18 37.5q2 6 4 15.5t6 21.5q12 18 24.5 48t28.5 71q18 43 31.5 74t26.5 49q0 16 16 33q0 2 115 266q0 18 -13 22 q-10 0 -33.5 1.5t-58.5 3.5q-10 2 -45 2h-35.5t-44.5 -2h-31.5t-56.5 -2q-29 -2 -51.5 -2.5t-38.5 -0.5q-10 2 -10 17z" />
<glyph unicode="[" horiz-adv-x="491" d="M2 82v20l2 4v27q4 94 4 227.5v307.5v473v165.5t-4 104.5l-2 74l6 12q2 2 45 2h101q8 2 15 2t17 4q2 -4 2 -6l123 -2l19 2q20 0 62 3t65 3q25 -10 30 -18q-4 -25 -6 -46.5t-2 -37.5q0 -39 8 -62q-8 -20 -26 -20q-6 0 -10 2h-52t-77 4q-41 2 -74 2h-53v-401 q-4 -16 -4.5 -65.5t-0.5 -127.5v-622h121l19 2q20 0 62 3t65 3q6 -4 13 -7t17 -8q-8 -31 -8 -61q0 -27 8 -43q-8 -12 -26 -12h-10h-71t-106 2q-59 4 -103 4h-69q-8 -4 -30 -4q-14 0 -30.5 2t-33.5 6l-4 29q-2 4 -2 53z" />
<glyph unicode="\" horiz-adv-x="927" d="M14 1266q1 4 9 24q12 6 30.5 14.5t42.5 18.5q23 31 78 47q2 -4 15.5 -25.5t37.5 -62.5q35 -59 107 -175t176 -290l76 -127q18 -29 109 -172t259 -403q-4 -20 -47 -49q-4 -4 -10 -5.5t-16 -5.5q-12 -4 -29.5 -15t-40.5 -26q-4 -2 -8 -2t-10 6q-31 47 -83.5 132.5 t-127.5 209.5l-50 84q-8 16 -53 84l-368 598q-6 6 -39 56q-8 10 -21.5 31.5t-36.5 52.5z" />
<glyph unicode="]" horiz-adv-x="540" d="M-2 2q2 10 3 20.5t1 22.5q0 14 -1 29.5t-3 31.5q10 4 17.5 7.5t13.5 7.5q20 0 62 -3t65 -3l18 -2h119v622v127t-2 66v401h-54.5t-76.5 -2q-41 -4 -73 -4h-54q-4 -2 -10 -2q-18 0 -25 20q2 12 3 26.5t1 35.5q0 16 -1 37.5t-3 46.5q4 8 31 18q20 0 62 -3t65 -3l18 -2l121 2 q0 2 4 6q10 -4 17.5 -4t15.5 -2h98q41 0 47 -2l4 -12l-2 -74q-2 -37 -2 -104.5v-165.5v-473v-307.5t2 -227.5v-27l2 -4v-20q0 -49 -2 -53l-2 -29q-16 -4 -33.5 -6t-29.5 -2q-23 0 -31 4h-69t-105 -4q-61 -2 -104.5 -2h-71.5h-10q-20 0 -25 12z" />
<glyph unicode="^" horiz-adv-x="862" d="M39 1522q0 4 27 34l104 101l14 16q20 18 36 33.5t26 26.5l67 67q55 53 76 73t35 28q20 -10 33 -27q25 -25 44 -42t31 -32l70 -67q27 -27 40 -41.5t22 -18.5l12 -16l104 -101q29 -29 29 -34q-29 -23 -48.5 -40.5t-29.5 -29.5l-12 -10q-29 31 -50.5 52.5l-37.5 37.5 l-121 121q-41 41 -62.5 61.5t-23.5 22.5q-33 -31 -54.5 -52.5t-33.5 -31.5l-68 -70l-51 -51q-61 -59 -90 -90l-12 10q-18 27 -76 70z" />
<glyph unicode="_" horiz-adv-x="978" d="M-8 29q4 45 5 81.5t1 65.5v51l4 31h51.5t69.5 -2q41 -4 70.5 -4h52.5h325h77t89 4q41 2 65.5 2h37.5q2 0 3 -1t5 -1q6 0 15 1t20 3h12q16 0 23 -8q2 -37 2 -68.5v-58.5v-51.5t-2 -40.5q-20 -6 -37 -8t-29 -2h-12h-314q-57 0 -90 -1.5t-45 -3.5l-39 5l-276 -5 q-10 -4 -21.5 -4t-21.5 -2q-29 0 -41 17z" />
<glyph unicode="`" horiz-adv-x="694" d="M156 1870q0 24 2 28l243 127q4 2 11 3q6 0 8 -3q39 -78 66.5 -139t43.5 -104q29 -166 80 -205q12 -27 21.5 -45.5t11.5 -30.5v-4q0 -12 -27 -24q-68 -41 -84 -41q-39 29 -64.5 49t-41.5 30q-74 57 -145 134q-41 78 -72 133t-53 92z" />
<glyph unicode="a" horiz-adv-x="731" d="M55 299q0 227 160 297q88 53 172 59q16 14 16 50v14q-2 29 -4 45t-2 24q0 35 -3 54.5t-7 29t-11 11.5t-16 2q-10 0 -24 -7.5t-23 -37.5q-2 -31 -8 -33v-12.5t4 -22.5q0 -6 1 -11t1 -9t-1 -7.5t-1 -7.5q-6 -20 -20 -26q-10 2 -19.5 2h-21.5h-24.5t-28.5 -2 q-35 -2 -59.5 -3t-41.5 -1q-6 0 -31 12q0 16 4.5 36.5t8.5 43.5v2q0 16 11 43.5t30 68.5q55 106 139 146q12 6 44 11t83 11q8 0 14 1t15 1q76 0 163 -53q41 -35 62.5 -77t26.5 -91q-4 -111 -6.5 -200t-2.5 -156q0 -35 1 -63.5t1 -51.5q2 -10 2 -21.5v-25.5v-29.5t-2 -33.5 v-29q0 -129 25 -172q4 -10 10 -19q4 -8 8.5 -16t4.5 -14v-2q-4 -6 -6.5 -12.5t-8.5 -12.5q-10 2 -19 2h-22h-25.5t-29.5 -2q-4 4 -10 4h-4q-6 -6 -11 -6q-2 0 -4 2q-20 0 -52 2t-75 4q-6 2 -18 17.5t-19 15.5q-6 0 -14 -4q-63 -53 -145 -53q-14 0 -23 2q-16 4 -34.5 15 t-45.5 30q-25 18 -49 78q-27 53 -27 90q-4 27 -6 50t-2 48zM311 285q0 -35 25 -49q47 0 51 4q10 27 14.5 42t4.5 21v156q-6 41 -23 41q-10 -6 -21.5 -17.5t-25.5 -33.5q-2 -10 -8 -25.5t-17 -38.5v-100z" />
<glyph unicode="b" horiz-adv-x="675" d="M20 1493v8q0 27 15 35l18 4h137h89l4 -14q0 -53 -1 -116.5t-3 -137.5q-2 -43 -3.5 -81t-1.5 -69t1 -56.5t4 -43.5q8 -16 20 -16q4 0 6 2q51 61 125 61q23 0 45 -6q70 -25 100 -92q10 -8 19.5 -24.5t15.5 -34t11.5 -32t9.5 -18.5v-8q0 -16 5 -33.5t5 -27.5q2 -25 5 -58 t7 -78q2 -23 2 -42v-35v-34t-2 -28q2 -10 3 -24.5t1 -34.5v-19q0 -27 -6 -74t-16 -118q-10 -63 -31.5 -115.5t-54.5 -93.5q-63 -53 -115 -53q-12 0 -18 2q-35 6 -115 57h-4q-12 0 -15 -20.5t-10 -20.5h-229q-18 0 -18 19q0 61 2 97t4 46q-2 10 -4 19.5t-2 19.5t2 18t4 17v22 q0 33 -6 92q0 76 1 143.5t2 133t2 132t1 140.5v518l-6 17q-2 6 -2 14q0 6 -1.5 16.5t-1.5 24.5zM276 418q0 -53 7 -92q0 -35 18 -68q10 0 23 -10q4 -4 12 -4q6 0 10 4q35 0 47 33q6 39 8 90t2 114v136.5t3 66.5l-19 100q-39 35 -45 35q-8 0 -12 -2q-35 0 -47 -45 q0 -59 -1 -137t-3 -174q-2 -12 -2.5 -24.5t-0.5 -22.5z" />
<glyph unicode="c" horiz-adv-x="673" d="M12 610q4 74 13.5 133.5t25.5 102.5q23 59 55.5 108.5t79.5 85.5q41 16 76 24.5t64 8.5q94 0 172 -51q37 -31 59.5 -60.5t36.5 -64.5l6 -12q10 -16 19.5 -56.5t21.5 -103.5q0 -8 1 -18.5t1 -24.5t-1 -29.5t-1 -31.5q-10 -10 -29 -11q-8 0 -28 4q-8 0 -17.5 -1t-19.5 -1 q-29 0 -68 2t-86 7q-2 2 -2 12q0 14 2 24v13q0 14 -6 26v29q-2 39 -6 51q-8 27 -29 41h-33q-38 -38 -38 -78q0 -6 1 -8t1 -6q-6 -6 -7 -10q0 -2 3 -4q0 -4 1 -5t1 -4q0 -2 2 -2l-4 -45v-34q0 -23 -1.5 -47.5t-5.5 -55.5v-115q0 -31 7 -81q-4 -6 -5 -13q0 -8 8.5 -22.5 t8.5 -26.5v-2q14 -14 33 -22l4 -3q10 0 43 29q14 23 14 80v23q0 76 8 100l4 6q16 0 45 -1t66 -3q35 -2 63.5 -2h44.5q8 4 17 4q20 0 20 -35q0 -24 -8 -49q0 -4 1 -9t1 -9q0 -6 -1 -12.5t-1 -12.5q-2 -16 -3 -27.5t-1 -15.5q-8 -53 -25.5 -100t-42.5 -88q-63 -102 -153 -119 q-27 -4 -48.5 -6t-37.5 -2q-10 0 -17.5 1t-15.5 3q-4 0 -24.5 3t-57.5 13q-90 57 -115 102q-10 23 -41 64q-6 27 -14 62.5t-18 82.5l-13 125v25z" />
<glyph unicode="d" horiz-adv-x="708" d="M10 500q0 37 1 70.5t3 66.5q10 129 32 221t56 150q56 69 136 69h2q51 0 92 -30q10 -4 21.5 -19.5t19.5 -15.5q4 4 6 4t4 2q4 16 6 68.5t2 138.5v123q-6 2 -6 6q0 2 1 3t1 5q4 12 4 14v4q-4 10 -4 24.5v37.5l-2 20q0 27 -2 33q0 53 25 57q68 0 107.5 2t53.5 5l54 -7 q33 -4 32 -34q0 -6 1 -12.5t1 -12.5q0 -4 -1 -9t-1 -11q-2 -18 -3 -27.5t-1 -11.5q0 -14 4 -23v-88v-119.5t-2 -154.5q-2 -102 -4 -170t-2 -103q-2 -53 -2 -95v-71q0 -63 2 -69q0 -4 -4 -13.5t-8 -20.5t-7 -21.5t-3 -16.5v-2l18 -41l4 -178q0 -29 2 -79t6 -124l4.5 -9 t2.5 -11q0 -10 -15 -25q-18 0 -48 -2t-71 -6q-16 0 -49 4t-49 4h-9t-13 -2q-4 -2 -11 -2q-14 0 -20 14q0 29 -10 29q-10 -8 -24.5 -19.5t-33.5 -23.5q-20 -10 -67 -10h-23.5t-30.5 2q-125 35 -149 248q-4 8 -9 73.5t-20 190.5zM274 395q4 -2 5 -84q0 -51 43 -63q29 0 45 22 q24 49 24 216v14v92q0 166 -24 207q-16 8 -25.5 13t-13.5 5h-2q-25 -12 -52 -65v-357z" />
<glyph unicode="e" horiz-adv-x="663" d="M-4 496v26q0 360 143 486l58 39q46 34 114 34h4h27.5t28.5 -4q43 -8 118 -59q23 -14 37 -41q47 -55 97 -225l4 -78q4 -53 6 -91t2 -57v-16l-12 -10q-59 2 -148.5 4t-208.5 2q-16 -10 -16 -19q0 -8 6 -16l4 -12q-4 -16 -6 -39t-2 -47q0 -25 2 -53.5t6 -61.5q12 -29 45 -41 q74 0 78 88q2 35 2 54.5t2 25.5h125q23 2 51.5 4t63.5 2q4 -8 5 -16t1 -19v-20q-6 -27 -8 -40t-2 -15q-6 -37 -25.5 -87.5t-54.5 -113.5q-84 -92 -209 -92h-8q-31 0 -101 12q-86 29 -125 96q-12 20 -27.5 43t-31.5 49q-45 127 -45 308zM256 662l10 -11q43 0 69.5 2t35.5 9 v-7q2 10 2 23v25.5t2 37.5v11q0 114 -69 114h-1q-37 -18 -45 -49v-14q0 -10 -1 -24.5t-3 -30.5v-86z" />
<glyph unicode="f" horiz-adv-x="552" d="M29 897v156q8 8 26.5 9t26.5 7h51l4 23q-2 10 -2 24v37l2 25q0 -2 -1 6t-3 30l2 46l-2 88v14q0 84 33 133q27 51 127 64q4 0 11 -1.5t18 -1.5q47 0 145 7q4 0 9 1t9 1q10 0 16.5 -2t10.5 -4l18 -23l-8 -162q-16 -4 -37 -4q-14 0 -29.5 1t-29.5 1h-16.5t-12.5 -2l-6 -12 v-254q-4 -4 -4 -8t4 -9q4 -12 6 -12v2q12 -10 39 -10h13.5t17.5 2q47 0 55 -10q0 -12 1 -32.5t3 -42t3 -43t1 -34.5l-18 -16q-47 0 -75.5 -2t-39.5 -4l-6 -11v-346q4 -8 4 -14q0 -4 -1 -6t-1 -6q-8 -18 -8 -31q0 -4 -1 -7t-1 -7q0 -12 2 -28.5t6 -37.5v-368q-6 -10 -24 -11 q-25 0 -27 -2q-4 0 -14.5 1t-30.5 3q-8 2 -23 2q-14 0 -20 -2q-16 -2 -45 -3t-70 -1l-4 4q2 129 3 316.5t1 435.5v51q-2 10 -3 27.5t-1 40.5l-18 12q-10 -2 -21.5 -3t-21.5 -1t-21.5 1t-21.5 3z" />
<glyph unicode="g" horiz-adv-x="688" d="M-4 -90q0 49 16 72q10 35 74 114q0 23 -19.5 53.5t-25.5 45.5v53q4 25 13 49.5t22 46.5q8 0 16 9t16.5 20.5t13.5 20.5l5 9q0 16 -14 31q-12 10 -17.5 16.5t-9.5 8.5q-8 8 -16.5 23.5t-15.5 32.5t-14 32.5t-11 21.5q-6 23 -15.5 61t-9.5 85q0 31 4 64.5t10 72.5 q23 57 43.5 97t42.5 63q77 69 164 69h2q102 0 138 -41q12 0 12 -10q10 -4 21.5 -13t25.5 -22q6 -14 22 -24l41 41q61 51 103 69q18 -12 18 -43v-176q0 -33 -45 -55q-41 -23 -43 -37v-20q0 -29 -3 -64t-11 -82q0 -14 -7 -34.5t-15.5 -42t-15.5 -40t-9 -28.5q-47 -43 -88 -71 t-80 -38q-25 -6 -51.5 -14t-26.5 -33q4 -35 47 -57q4 -4 23.5 -12.5t54.5 -22.5q29 -8 60.5 -18.5t66.5 -26.5q29 -31 55 -35q16 -18 37 -47t45 -70q0 -4 2 -24.5t6 -55.5q0 -12 1 -21t1 -19q0 -24 -4 -44q-4 -8 -16 -29.5t-12 -35.5q-74 -102 -174 -141q-29 -6 -58 -8.5 t-57 -2.5q-100 0 -178 33q-137 57 -156 189q-2 16 -3 29.5t-1 25.5zM213 -90q0 -72 88 -125q20 -4 31 -4q27 0 43 10q39 7 51 70q0 4 1 8t1 8q0 45 -57 92q-33 18 -62.5 26.5t-54.5 8.5h-16q-18 -6 -19 -35q-2 -16 -2 -28.5t-2 -16.5q0 -4 -1 -7t-1 -7zM236 748 q0 -47 6 -103v-12q0 -92 47 -92q23 2 28 27.5t7 52.5q-4 33 -6.5 82t-2.5 118l-14 53h-2q-18 0 -57 -30q-6 -47 -6 -96z" />
<glyph unicode="h" horiz-adv-x="690" d="M14 764q0 61 1 119.5t3 113.5v90q-4 35 -4 66v53v346h86h185q6 -6 6 -53v-33q-2 -18 -4 -74.5t-4 -150.5v-57q0 -47 2 -88t6 -78q0 -8 10 -10q8 0 12 4q54 69 159 69h3q12 0 40 -9t69 -32q12 -10 41 -45q0 -27 10 -28l12 -70q-4 -8 -4 -27q0 -12 3 -30.5t3 -40.5 q0 -8 -1 -16.5t-1 -16.5q-2 -10 -3 -23.5t-1 -29.5v-21.5t2 -25.5v-39v-38.5t-2 -25.5v-64.5t2 -88.5q2 -49 2 -86v-62v-248q-12 -4 -82 -4h-178l-10 19q6 41 10 90t6 108v92.5t-2 116.5q-4 78 -4 129v72q-2 14 -2 36.5v51.5l-2 43v43q-12 33 -29 33q-63 0 -65 -68v-20.5 t-4 -48.5v-684q-10 -10 -27 -11h-27q-18 0 -22 -2h-178l-11 13v137v90t-2 260q-2 66 -3 129t-1 125z" />
<glyph unicode="i" horiz-adv-x="362" d="M39 1526q0 27 47 26h184l29 -2q16 0 16 -14l-4 -162v-12q0 -12 -2 -27.5t-10 -34.5h-51.5t-69.5 3q-41 4 -69.5 4h-49.5q-14 0 -14 22q2 12 2 24.5v24.5v22.5t-2 22.5q-2 45 -3 69t-1 26q-2 2 -2 8zM47 999q0 25 12 60q20 -2 45 -2h54h64.5t76.5 2q12 -12 12 -33v-8 q-2 -16 -2 -26.5v-12.5q2 -2 2 -209v-219q0 -55 1 -90t3 -47v-41v-281q4 -8 4 -19.5t3 -27.5v-10q0 -23 -17 -31q-49 4 -90 5t-74 1h-55l-35 4v52.5t2 70.5q2 43 4 74t2 51v334q0 66 -2 160t-6 221q-4 12 -4 22z" />
<glyph unicode="j" horiz-adv-x="454" d="M25 -174q0 35 18 35q86 0 104 6q10 10 11 47v49t-2 76q-2 41 -2 70.5v50.5v870q0 39 16 39h6q33 0 82 -6q6 0 14.5 -1t18.5 -1q18 0 41.5 2t50.5 6q2 0 3 1t5 1q2 0 4 -1t6 -1q8 -2 9 -16q-2 -25 -2 -47.5v-40.5v-19.5t2 -27.5v-44q-2 -260 -3 -422.5t-1 -234.5v-448v-5 q0 -31 -41 -83q-41 -33 -125 -33h-134q-66 0 -67 6q-4 10 -6 23.5t-2 33.5q0 14 1 29.5t1 28.5q0 43 -8 57zM147 1540q2 10 19.5 15.5t19.5 7.5q39 -2 93.5 -3t126.5 -1q10 -14 10 -62v-22.5t-2 -26.5q-4 -16 -4 -30.5v-26.5q0 -23 2 -36.5t6 -21.5q0 -33 -17 -33 q-16 2 -34.5 3.5t-42.5 1.5q-18 0 -42 -2.5t-44 -2.5q-49 0 -80 7l-4 4v61q0 35 -1 77t-6 91z" />
<glyph unicode="k" horiz-adv-x="735" d="M29 29q10 57 10 149q-2 16 -2 31.5v30.5q0 31 1 53t3 39q-4 111 -6 166t-2 53v346l8 39v549q-2 6 -4 11t-2 15t2 20.5t4 20.5q47 0 99.5 2t111.5 5h8q29 0 43 -19q0 -2 -1 -24.5l-3 -67.5l-18 -86v-315l8 -58v-76l-8 -28q0 -57 18 -74q10 4 45 74q10 23 28.5 64.5 t47.5 103.5q12 0 29.5 2t39.5 4q14 -6 41 -6q10 0 21.5 1t23.5 3q23 2 40.5 2h31.5h21q6 -4 6 -12v-7l-6 -18q-25 -35 -61 -93.5t-79 -135.5q-16 -18 -57 -97q10 -23 33.5 -83t58.5 -158q6 -10 14.5 -31t22.5 -51q8 -16 18.5 -43t26.5 -68l17 -45l45 -100q14 -33 22 -56.5 t8 -37.5q-10 -8 -37 -9h-14q-10 2 -18.5 2h-14.5q-16 0 -20 -2h-152q-16 41 -39.5 101.5t-56.5 142.5q-6 18 -15.5 47t-25.5 68q-8 8 -12 8h-6q-4 0 -7.5 -7t-15.5 -34q-18 -37 -18 -66q0 2 2 2t2 -65v-188q-16 -8 -49 -9h-19q-14 2 -24.5 2h-18.5q-18 0 -22 -2q-66 0 -82 9 q-43 0 -45 6z" />
<glyph unicode="l" horiz-adv-x="362" d="M39 29q4 115 7 290t3 410v152q0 174 -2 314t-4 249q-2 23 -2 41v33q0 27 2 30q23 2 40 3t34 1q16 0 29.5 -1t23.5 -3q20 0 49 2t66 9q-1 -5 28 -19q0 -35 -1 -59.5t-3 -42.5q0 -4 1 -8.5t1 -8.5t-1 -8t-1 -8q-6 -31 -6 -35v-727v-13.5t-2 -29.5l2 -59v-101v-411 q0 -14 -18 -15h-115q-4 0 -5 1t-5 1q-6 0 -12.5 -2t-16.5 -4q-76 0 -92 19z" />
<glyph unicode="m" horiz-adv-x="1060" d="M31 29q6 147 6 260t-6 192v572q29 0 71.5 2t102.5 4l74 -6q10 -6 10 -27l-4 -29q2 -8 18 -8h8q49 74 150 92q6 -2 18.5 -4t32.5 -6q31 -2 41 -24l18 -17q37 -14 45 -49q12 -8 17 -8q4 0 8 4l49 59q84 45 133 45q41 0 92 -28q12 -4 60 -54q4 -6 9 -19t13 -36q8 -6 9 -18 v-8q-4 -10 -4.5 -16.5t-0.5 -10.5q6 -10 7 -21v-6q-2 -14 -4.5 -21t-2.5 -9l9 -86v2q2 0 2 -50l-6 -32v-47.5t-5 -34.5l9 -45q-2 -35 -2 -76v-88v-98.5t2 -108.5v-96v-13q0 -23 -9 -47q-82 0 -144 2t-107 7v765l-11 33q-6 6 -15 11.5t-19 11.5q-4 0 -5.5 1t-5.5 1 q-23 0 -41 -35l-12 -23q2 -47 3 -113.5t1 -152.5v-131l8 -260q0 -23 1 -41t1 -33q0 -16 -1 -26.5t-1 -16.5q-12 -2 -28.5 -2h-34.5h-41t-47 2q-8 -2 -29 -2h-18.5t-20.5 2h-8q-16 0 -33 9q0 23 1 53t1 67t-1 80t-1 92q0 4 1 15.5t1 29.5q0 20 -1 48t-1 63q0 47 -2 130 t-8 206q0 10 -23 22h-6q-20 0 -59 -22q0 -6 -12 -31q-2 -10 -2 -21.5v-25.5v-22.5t2 -22.5q-2 -14 -2 -32.5v-45.5v-2v-43t-2 -33l4 -10q0 -106 6 -311q4 -16 4 -27q0 -10 -1 -18t-3 -19v-120q-8 -8 -27 -9h-10q-10 2 -27 2q-12 0 -16 -2h-168z" />
<glyph unicode="n" horiz-adv-x="694" d="M39 207v852q8 0 26.5 1t42 1t48 1t43.5 1h82h2q12 0 14 -15.5t2 -25.5q0 -23 4 -23q12 10 29.5 23.5t40.5 30.5q51 26 108 26h4q53 0 88 -26l48 -45q4 -14 12 -32t18 -40v-574q0 -117 1 -204t3 -144q-8 -10 -31.5 -11t-31.5 -3q-16 4 -40 6t-52 2h-64.5t-34.5 2 q-8 12 -8 23q0 2 1 4t1 6q0 6 1 12t1 11q0 4 -1 7t-1 7v690q0 47 -9 69.5t-54 22.5q-37 -12 -39 -104v-713l-8 -35q-41 0 -99.5 1t-140.5 3q0 8 -1 30t-2 50.5t-2 58t-1 54.5z" />
<glyph unicode="o" horiz-adv-x="696" d="M33 561q0 57 6 101q35 289 149 368q18 18 54 29l67 18q16 2 28.5 2h27.5q57 0 94 -20q109 -49 143 -156q35 -57 60 -174q0 -2 1 -25.5t3 -68.5q0 -12 1 -24.5t1 -24.5t-1 -23.5t-1 -21.5q2 -20 3 -40t1 -42q0 -23 -1 -46t-3 -46q-2 -41 -5.5 -67t-7.5 -42 q-6 -31 -15 -57.5t-24 -46.5q-8 -10 -20 -26.5t-21 -31.5q-65 -108 -212 -108h-3h-8q-166 2 -237 143q-57 98 -70 242q-4 53 -7 100t-3 88zM293 563q0 -70 2 -132t8 -122l10 -39q2 -10 60 -22q16 2 23 18.5t12 32.5l6 51q0 31 1 67t1 77t-1 87t-1 97q0 31 -19 110l-22 33 q-6 2 -19 2q-16 0 -41 -12q-16 -27 -16 -45q0 -10 2 -14q-6 -98 -6 -189z" />
<glyph unicode="p" horiz-adv-x="700" d="M20 1036q4 8 19 23h235q4 0 7.5 -8.5t5.5 -17.5t5 -16t7 -7t14 8q31 41 111 63q20 0 41.5 -4t44.5 -14q88 -55 123 -246l14 -82l8 -47q0 -41 7 -145q2 -23 2 -44.5v-37.5q0 -18 -1 -34.5t-1 -31.5v-10q0 -16 -7.5 -36.5t-7.5 -26.5q0 -109 -63 -242q-47 -84 -144 -84 q-68 0 -127 59h-6q-12 0 -22 -16q4 -4 4 -14t-3 -17.5t-3 -11.5l2 -4q0 -55 2 -113.5t4 -120.5v-41q0 -55 -6 -73q-2 -8 -49 -9h-185l-18 19q-2 33 -2 74v88v107.5t2 119.5v383q0 317 -13 610zM285 457q0 -68 18 -187q16 -23 47 -22q43 16 51 61q-2 29 -3 55.5t-1 55.5 t1 55.5t3 52.5q0 14 1 24.5t1 20.5q0 8 -1 12.5t-1 6.5q0 135 -18 201q-18 29 -47 28q-33 -6 -45 -45q-2 -49 -4 -118.5t-2 -161.5q2 -4 2 -13q0 -8 -2 -12v-14z" />
<glyph unicode="q" horiz-adv-x="708" d="M18 547q0 229 45 366q2 25 48 99q65 75 139 75h2q90 -23 123 -69q18 6 18 18q0 27 10 27h224q0 -2 24 -2q0 -16 1 -27.5t1 -21.5q0 -8 -1 -13.5t-1 -9.5q0 -41 1 -96t3 -127q-4 -12 -4 -18q0 -8 2 -17.5t2 -13.5v-6v-308q10 -47 11 -135q0 -29 -1 -62.5t-2 -67.5 t-2.5 -64.5t-1.5 -50.5v-52.5t5 -36.5v-258q0 -37 -7 -79q-6 -10 -34 -11h-207l-8 13l-5 352q0 51 -18 100q-74 -61 -135 -61q-123 0 -166 127q-6 23 -15.5 52.5t-23.5 70.5q-12 72 -19.5 147.5t-7.5 159.5zM281 362q0 -10 7 -35.5t7 -37.5q0 -8 39 -37q35 0 51 22 q4 25 12 66v303q0 41 -3 78t-13 72q-12 27 -43 26q-23 0 -36 -13t-13 -36q-4 -96 -6 -171t-2 -130q0 -29 1 -51.5t1 -40.5q-2 -4 -2 -15z" />
<glyph unicode="r" horiz-adv-x="612" d="M61 39v10q2 23 3.5 34t1.5 13v295l6 17q0 90 -6 192q-2 10 -2.5 17.5t-0.5 15.5q0 18 3 24q6 55 6 62v151q-2 4 -4 9.5t-2 11.5q0 4 2 9t4 11q-6 29 -8.5 52.5t-2.5 42.5q0 25 5 36h213q41 0 40 -16q0 -74 17 -74q14 0 29.5 21.5t17.5 21.5q14 12 35.5 30.5t56.5 41.5 l9 3q8 3 19 8t23.5 8.5t20.5 3.5h2q8 6 16 6q6 0 19 -47q0 -4 -1 -21.5t-3 -46.5q-4 -16 -5 -29q0 -10 1.5 -18t3.5 -19l4 -86l-13 -10l-73 4q-100 -25 -144 -114q-39 -59 -39 -238v-15.5t-2 -39.5q-2 -10 -2 -20.5v-20.5v-18.5t2 -16.5l6 -133q0 -27 1.5 -52.5t1.5 -50.5 q0 -27 -1.5 -51t-1.5 -49q-16 -6 -38 -6q-6 0 -13.5 1t-17.5 1l-60 4q-16 -2 -44.5 -3t-73.5 -1q-10 16 -11 39z" />
<glyph unicode="s" horiz-adv-x="552" d="M20 270q0 2 1.5 5.5t1.5 7.5t-1.5 10t-1.5 12v10q0 16 11 19h186q10 -14 10 -37v-12q-2 -10 -2 -17.5v-13.5q0 -12 2 -16q0 -16 4.5 -36t14.5 -42q2 -2 4 -2q10 0 31 20q2 16 3 33.5t1 30.5q0 86 -43 135q-29 33 -70 79t-92 107q-6 8 -12.5 19.5t-14.5 27.5l-28 125 q0 10 2 17.5t4 17.5v64l41 114q10 29 29.5 48.5t45.5 33.5l52 23q16 4 31.5 4h29.5q53 0 92 -10.5t66 -26.5q43 -47 63.5 -88t24.5 -76q0 -10 2 -46t8 -95q-6 -25 -39 -25q-16 2 -26.5 2h-16.5q-16 0 -16 -2q-16 0 -52 3t-53 3v15q0 10 -1 24.5t-3 30.5v6q0 10 -4 34.5 t-10 63.5q-6 14 -14 15q-8 0 -19.5 -10.5t-11.5 -34.5v-4q0 -10 1 -16.5t1 -12.5q0 -4 -1 -8t-1 -6q0 -106 41 -148q2 -2 28.5 -26.5t75.5 -71.5q111 -104 115 -242v-20q0 -152 -45 -222q-68 -80 -129 -98q-35 -6 -66 -6q-231 0 -250 311z" />
<glyph unicode="t" horiz-adv-x="528" d="M33 911q0 45 6 56v11t-4 19q-2 6 -2 17q0 10 2 14q6 23 53 23h14q29 0 41 16v338q0 14 21.5 17t23.5 5q35 -2 85.5 -3t117.5 -1q12 -12 12 -37q0 -4 -1 -10t-1 -12q-6 -53 -6 -64v-241q8 -10 51 -10t50 -29v-133q-6 -4 -27 -4q-10 0 -21.5 1t-21.5 1q-12 0 -25 -4l-6 -11 l-4 -196q0 -14 1 -33.5t1 -42.5t-1 -51.5t-1 -61.5l-6 -123v-30q0 -35 3 -71t7 -73q14 -8 46 -8t40 -2q6 -6 7 -19.5t1 -26.5t1.5 -24.5t5.5 -15.5q-4 -14 -7.5 -36.5t-7.5 -51.5q-10 0 -20 -1t-25 -3h-56.5t-80.5 2q-84 4 -129 43q-6 6 -10 18.5t-8.5 26.5t-7.5 26.5 t-7 16.5l-6 92q6 25 6 97v127q0 8 1 23t1 31.5t1 32t3 23.5v27l-6 295q-8 8 -26 8q-4 0 -8.5 -1t-8.5 -1q-10 -2 -17 -2h-14q-14 0 -18 2q-12 0 -12 24z" />
<glyph unicode="u" horiz-adv-x="704" d="M20 1012q0 10 9 24q8 6 41 6q135 0 213 -6q0 -10 1 -30.5t2 -46t2 -53t1 -50.5v-608q-2 -4 -2 -10q0 -18 18 -37q20 -6 37 -6q10 0 14 2q10 6 16.5 17t12.5 28q6 190 6 331t-6 234v223l12 6q10 0 36 1t67 3h26q47 0 84 -4t41 -14q4 -8 4 -21q0 -6 -4 -22q-2 -6 -2 -21 q0 -18 6 -43q-4 -8 -5 -21t-1 -27.5t-1 -28t-3 -19.5v-801q0 -31 -18 -30q-82 0 -115 8q-8 -4 -16.5 -4h-18.5q-16 0 -37.5 2t-46.5 6q0 16 -18 41q-78 -63 -166 -64q-119 0 -174 138q-2 18 -3 37.5t-1 42.5q0 18 1 37.5t3 37.5l-6 168q0 78 -2 221.5t-4 348.5z" />
<glyph unicode="v" horiz-adv-x="708" d="M23 1001q0 41 18 41h4q10 0 23.5 1t27.5 1q39 0 86 -2t107 -6q14 -20 14 -57q0 -49 8 -57q6 -53 17.5 -128t33.5 -178v-4q0 -16 6.5 -36.5t6.5 -28.5l10 -10l6 10q4 35 11.5 100.5t17.5 159.5q4 10 5 30.5t5 49.5q6 8 7 23.5t2 31.5t1 30.5t4 22.5q0 47 23 47h207 q6 -12 6 -28q0 -8 -1 -14.5t-3 -14.5q-2 -6 -4 -14q-2 -6 -4 -15.5t-6 -21.5q0 -59 -19 -164q-10 -55 -14 -95t-6 -65q-6 -37 -13.5 -89t-17.5 -118q-2 -16 -6 -42.5t-11 -67.5q-2 -18 -7 -53t-9 -84q-4 -23 -8 -62t-14 -94q-16 -8 -45 -8h-17q-23 4 -36 4h-19 q-86 0 -138.5 1t-70.5 3l-10 12q-16 111 -30.5 196t-25.5 146q-10 63 -25.5 155.5t-37.5 215.5q-16 63 -37 197q-10 23 -22 79z" />
<glyph unicode="w" horiz-adv-x="1019" d="M8 1028q0 12 2 14q14 6 43 7h21q12 -2 22 -2h19q18 0 22 2q8 -6 25 -7q8 0 28 5q16 2 26.5 2h19.5h12l18 -19q-2 -12 -3 -23.5t-1 -23.5q0 -45 12 -90q0 -10 7.5 -29.5t7.5 -29.5l4 -56q-2 -4 -2 -12q0 -10 2 -14q2 -10 4 -13.5t2 -7.5q0 -16 6 -49t6 -49l2 -8q4 -8 9 -9 q12 12 12 52q29 80 28 143q23 84 32 133t12 66q2 39 20 39h201q29 -6 32 -36t3 -52q2 -20 7 -59.5t15 -94.5q2 -18 12.5 -55t28.5 -97q8 -4 10 -4q12 0 13 27v-1q1 0 24 179q4 39 8 74t4 69q0 10 -1 18.5t-1 18.5q10 8 27.5 11.5t36.5 3.5h16q10 0 17.5 -1t15.5 -1 q33 0 49 4q16 -2 31.5 -4.5t19.5 -18.5q0 -12 -5 -39.5t-5 -46.5v-10q-4 -23 -9 -51.5t-15 -63.5v-31q-4 -31 -16.5 -99t-29.5 -177q0 -6 -7 -50t-14 -96.5t-14.5 -101.5t-9.5 -67q-12 -76 -18 -152q0 -10 -4 -20.5t-8 -24.5l-11 -4q-39 2 -94 3t-131 5q-8 10 -12 29.5 l-8 39t-7.5 38t-7.5 26.5v15q0 8 -1 16t-5 18l-12 43q-2 23 -7 50.5t-16 64.5q0 29 -6 50.5t-16 43.5q-10 0 -10 -12q-4 -16 -7.5 -40t-11.5 -56q0 -8 -2 -21q-2 -10 -3 -25.5t-5 -35.5l-8 -70q-4 -41 -11.5 -83t-17.5 -91h-252q-2 18 -7 56t-15 96q-10 53 -25.5 146 t-38.5 228q-10 63 -28.5 176t-45.5 279q-6 12 -8 23.5t-2 19.5z" />
<glyph unicode="x" horiz-adv-x="677" d="M14 1018q0 14 11 35h184q47 0 64.5 -7.5t19.5 -48.5q2 -29 12 -41q4 -16 6 -25t4 -13q12 -23 27 -25q10 2 11 18.5t7 22.5q4 16 12.5 45t20.5 63l17 11l202 -4q4 -4 4 -37q-12 -41 -37.5 -108.5t-62.5 -166.5q-10 -25 -25.5 -70.5t-33.5 -113.5q27 -72 59.5 -161 t73.5 -204q10 -33 25.5 -69.5t31.5 -77.5q4 -12 4 -14q0 -14 -12 -15h-4q-33 -4 -79 -6t-105 -2q-8 8 -29 4t-35 10q-4 16 -14.5 50t-26.5 82q-6 25 -22 51h-2q-8 0 -14.5 -8.5t-12.5 -8.5q-4 -23 -14.5 -53.5t-20.5 -71.5q-29 -55 -45 -55h-190q-4 16 -5 29q4 8 9 20 q4 10 8 27.5t12 40.5q2 10 7 22.5t16 30.5q10 25 21 63.5t24 92.5q16 41 35.5 94t37.5 117q-2 39 -30 104q-33 80 -37 103q-10 27 -26.5 64.5t-37.5 90.5q-6 16 -15 41t-26 57q-4 8 -4 17z" />
<glyph unicode="y" horiz-adv-x="741" d="M10 1030q0 23 10 23q20 4 43 4q12 0 25.5 -1t26.5 -1q23 0 43 4h100q12 -10 16 -74q12 -29 25 -90q8 -59 27 -88q0 -6 8 -50t26 -130q14 -6 23 -6q4 0 8 2q16 70 35.5 174t42.5 245q12 16 63 25q12 -6 19 -6q6 0 18 6l97 -8h34q12 -10 13 -31q0 -4 -1 -8t-1 -8v-6 q0 -10 -5.5 -21.5t-5.5 -17.5q-4 -25 -13 -61t-21 -83q0 -20 -33 -159q-6 -25 -16.5 -70t-24.5 -109q0 -10 -6 -30.5t-6 -28.5q-14 -55 -37 -154.5t-56 -242.5q-10 -45 -20 -83t-21 -73q-8 -104 -69 -188q-51 -41 -86 -41h-10q-6 0 -49.5 -3t-125.5 -8q-16 0 -30.5 3.5 t-14.5 19.5q0 31 1 77t4 107q12 8 24 8q4 0 7 -1t7 -1q12 -2 21.5 -3t15.5 -1q2 0 3 1t3 1h7q23 0 63 19q6 10 11 26.5t9.5 35t7.5 33.5t7 24q0 2 1 3t1 3q0 8 -8 24q0 8 -4 22.5t-8.5 30t-9.5 30t-5 22.5t-2 21.5t-8 31.5q-6 14 -8 26.5t-2 22.5q-10 35 -20.5 82t-20.5 107 q-2 4 -6.5 17t-8.5 36q-4 4 -11 46t-26 126q-4 29 -29.5 127t-66.5 270z" />
<glyph unicode="z" horiz-adv-x="643" d="M10 41q0 39 1 97.5t3 135.5q20 35 53 96.5t80 147.5l134 242q10 23 20 41t21 41h-138q-47 0 -81.5 -2t-59.5 -6q-29 0 -29 18q0 8 -1 18.5t-1 20.5q0 33 2 74t6 94h254h43q59 0 113 -6q27 0 61.5 2t81.5 4q2 2 11 2q14 0 26 -35l-8 -37q0 -4 1 -10t1 -12q0 -8 -1 -15.5 t-1 -15.5q-2 -18 -4 -31.5t-2 -23.5q6 -25 6 -62q-20 -31 -40.5 -69.5t-43.5 -85.5q-10 -20 -23.5 -41t-29.5 -48q-6 -16 -19.5 -38.5t-31.5 -51.5q-12 -18 -27.5 -44.5t-36.5 -65.5q-4 -10 -14 -28.5t-27 -41.5v-2q0 -10 -5 -21.5t-5 -15.5q0 -8 16 -14q23 2 51.5 2h63.5 h75t87 -2l10 -23l-6 -155q0 -10 -2 -30.5t-2 -31.5q-8 -8 -27 -8h-12q-31 8 -43 8h-143q-123 0 -353 6z" />
<glyph unicode="{" horiz-adv-x="630" d="M0 825l4 6q10 0 32.5 4.5t33.5 4.5q100 0 100 297q0 25 2 69.5t5 88.5t5 77t4 33t2 -21q0 2 2 7l9 16q45 100 174 113l12 4q2 0 3 -1t3 -1h78l29 -17q2 0 6 12.5t6 12.5v-2q0 -8 27 -8h34q10 2 24.5 2h37.5l2 -15q-2 -10 -2 -20v-25v-27.5t2 -31.5q-4 -8 -12 -8 q-2 0 -4.5 1t-4.5 1l-71 4l-11 -4q-4 4 -34 4l-4 -4q-4 0 -5 4h-45q-45 0 -72.5 -8.5t-42 -26.5t-19.5 -50t-5 -79v-115q0 -84 -4 -96q-4 -6 -7 -23.5t-6 -40t-7.5 -44t-8.5 -33.5q-39 -94 -88 -117q33 -12 54 -49l32 -66q35 -115 35 -237v-117q0 -115 25 -129 q45 -33 137 -33h2h7t11 -2h84q10 2 24.5 2h37.5l2 -14q-2 -10 -2 -20.5v-22.5v-29.5t2 -32.5q-4 -6 -21 -6l-71 2h-158h-10q-131 12 -174 119q-31 68 -31 223v105q0 6 1 12t1 14q0 23 -4 47.5t-10 51.5q-10 47 -35 68.5t-49 43.5q-16 2 -33.5 4.5t-36.5 2.5z" />
<glyph unicode="|" horiz-adv-x="288" d="M39 29q4 115 7 290t3 410v152q0 174 -2 314t-4 249q-2 23 -2 41v33q0 27 2 30q16 2 29.5 2h23.5q29 0 39 -2q10 0 28.5 2t41.5 9h-2q-1 -3 28 -19q0 -35 -1 -59.5t-3 -42.5q0 -4 1 -8.5t1 -8.5t-1 -8t-1 -8q-2 -16 -4 -24.5t-2 -10.5v-727v-13.5t-2 -29.5l2 -59v-101 v-411q0 -14 -16 -15h-70q-4 0 -5 1t-5 1q-6 0 -13.5 -2t-17.5 -4q-39 0 -55 19z" />
<glyph unicode="}" horiz-adv-x="690" d="M29 18q0 16 1 32t1 30q0 12 -1 22.5t-1 20.5l2 14h37t24 -2h84q8 2 19 2h2q92 0 137 33q23 14 22 129v117q0 63 10.5 122.5t26.5 114.5q12 29 21.5 45.5t11.5 20.5q20 37 53 49q-49 23 -88 117q-6 12 -10 33.5t-7 44t-6 40t-6 23.5q-2 4 -4 27.5t-2 68.5v115 q0 96 -20 125q-27 39 -117 39h-45q-4 -4 -6 -4l-2 4q-31 0 -35 -4l-10 4l-72 -4q-4 0 -5 -1t-5 -1q-6 0 -10 8q0 16 1 31.5t1 27.5q0 14 -1 24.5t-1 20.5l2 15h37t24 -2l35 2h145q2 0 4 2q2 0 15 -4q129 -12 174 -113q2 -6 4 -9t4 -7t2 -7v21q2 0 4 -33t5 -77t5.5 -89 t2.5 -69q0 -297 102 -297q10 0 31.5 -4.5t31.5 -4.5l7 -6l-7 -120q-16 0 -33.5 -2.5t-33.5 -4.5q-27 -23 -50.5 -44t-33.5 -68q-6 -29 -10 -55.5t-4 -53.5v-16v-105q0 -156 -31 -223q-39 -106 -172 -119h-168l-72 -2q-18 0 -20 6z" />
<glyph unicode="~" horiz-adv-x="1361" d="M8 838.5v62.5v60.5t2 58.5q0 20 25 49q180 217 346 217q10 0 25.5 -4t37.5 -10q29 -4 44.5 -8t21.5 -7q29 -2 90 -51q29 -27 94 -76l84 -61q137 -100 189 -100q49 0 135 71q31 25 61.5 51.5t61.5 53.5q10 10 31.5 36.5t54.5 69.5l18 4v-311l-18 -29q-23 -35 -61 -68.5 t-93 -66.5q-133 -80 -196 -80q-68 0 -142 39q-23 16 -59.5 39t-85.5 56q-2 2 -20.5 14t-53.5 37q-10 4 -59 61q-29 33 -60 39q-39 4 -66.5 8t-49.5 4q-131 0 -250 -131q-86 -94 -105 -94q-2 35 -2 66.5z" />
<glyph unicode="&#xa0;" />
<glyph unicode="&#xa1;" horiz-adv-x="401" d="M53 -31q6 57 6 113v33q-2 16 -3 31.5t-1 31.5t1 31.5t3 32.5l4 123q0 14 2.5 33.5t8.5 47.5q6 14 9 38t4 47.5t1 45t4 33.5q14 78 24.5 171t20.5 200q2 6 15 6h8q6 -2 18 -2q8 0 10 2h50q33 0 45 -18q8 -70 15 -134.5t13 -127.5l11 -113q0 -12 3 -33.5t6 -46.5t6 -48.5 t3 -41.5v-6l16 -99q2 -31 2 -67.5v-81.5v-95t-2 -110q-4 -12 -26 -18q-164 0 -197 -6h-51q-29 -1 -29 28zM55 1161v10q2 10 3 14.5t1 8.5v4v244l11 4h219h15t28 2h8q18 0 22 -16q-4 -43 -6 -79t-2 -71q0 -66 8 -104l-6 -27q-16 -8 -51 -8t-74 8h-4h-73h-17q-35 0 -74 -8 q-8 2 -8 18z" />
<glyph unicode="&#xa2;" horiz-adv-x="694" d="M14 778q6 74 15.5 132.5t25.5 99.5q43 121 135 188q35 12 59.5 19.5t43.5 9.5v4q-2 51 -2 88v61q2 10 2 17.5v13.5h74q6 -23 6 -31v-153q72 -6 133 -45q80 -68 98 -123l8 -10q16 -53 26.5 -92t14.5 -66v-6q0 -12 1 -30.5t1 -37.5q0 -20 -2 -26q-10 -10 -30 -11 q-14 0 -29 6q-63 2 -110.5 3.5t-82.5 1.5q-4 2 -4 12q0 16 4 22v17q0 14 -6 20v29q-6 74 -35 88h-34q-37 -37 -37 -74q0 -10 2 -14q-8 -6 -8 -10v-4l8 -11l-6 -43q-2 -6 -2 -26v-18.5t2 -20.5q0 -6 1 -12.5t1 -10.5q0 -14 -2 -25.5t-6 -21.5q2 -8 3 -17t1 -22v-16 q-2 -25 -3 -39t-1 -19l-3 3q-2 0 -2 -25l7 -14q0 -23 4 -39q-4 -8 -4 -13q0 -8 7 -19t7 -24v-6q8 -8 37 -22h2q10 0 43 28q20 27 20 76v21q0 10 -1 19t-1 20q0 45 6 61l7 4h44.5t65.5 -2q35 -2 63.5 -2h45.5q4 2 16 2t14 -2q8 -10 9 -31q0 -25 -9 -49q2 -6 2 -20t-2 -23 q-2 -20 -3 -29.5t-1 -11.5q-18 -100 -69 -184q-66 -100 -154 -113q-16 -2 -29.5 -4t-27.5 -6v-131q0 -35 -2 -35q-16 2 -30.5 3t-25.5 1h-12l-12 2v-4v12v15.5t2 21.5v121q-23 6 -39 9t-27 5q-96 59 -116 103q-39 45 -41 61q-14 53 -23.5 88t-13.5 54l-4 47z" />
<glyph unicode="&#xa3;" horiz-adv-x="933" d="M23 225q0 41 18 107q25 53 49.5 82.5t46.5 42.5q98 35 168 35q10 0 17.5 -1.5t17.5 -1.5q2 25 2 88.5v170.5l-127 -3q-23 0 -36 1.5t-23 3.5l-9 18l9 184q14 14 43 15h12q23 -2 38 -4t23 -2h74q4 61 10 109t11 83h6q0 39 12 51q16 119 70 182v-2q4 0 12 27q45 76 176 131 l82 19q35 -4 60.5 -6.5t39.5 -4.5q39 -12 62 -18q6 -47 5 -76t1 -74q2 -29 2 -49v-30q4 -10 5 -20.5t1 -20.5v-15h-6v-6q-4 0 -59 39q-104 0 -119 -10q-47 -12 -74 -47q-8 -10 -17.5 -31t-23.5 -49q-6 -41 -9 -85t-7 -91q39 2 69.5 2h55.5q4 2 14 2q20 0 31 -25 q-8 -27 -8 -76q0 -27 2 -53t6 -57q-25 -18 -37 -21h-68q-47 0 -71 6q-2 -82 -3.5 -146t-1.5 -114q0 -47 1.5 -79.5t3.5 -49.5q2 -31 22 -30q6 0 19 4q23 8 43 8q25 0 41 -14q68 -43 81 -43q25 0 64 22q47 12 47 16h-2q0 -4 -2 -31.5t-6 -86.5q-2 -39 -3 -77t-1 -79 q-16 -16 -33 -16l-64 -11q-8 0 -20 -3t-21 -3h-4q-23 0 -53 31q-78 72 -119 72q-31 0 -59 -29q-63 -68 -195 -68h-20q-178 4 -229 97q-20 41 -31.5 67.5t-11.5 42.5zM238 238q0 -8 4 -17l20 -14q16 -6 29.5 -9t27.5 -8q29 21 33 37l4 33v31q-10 10 -12 18l-29 6q-12 4 -20 4 q-14 0 -35 -10q-16 -20 -16 -30q0 -6 2 -9q-8 -16 -8 -32z" />
<glyph unicode="&#xa4;" horiz-adv-x="1126" d="M33 958q25 23 44 34.5t36 17.5q8 6 20 14t31 25q12 8 20 8l17 -4q18 -16 35.5 -32.5t31.5 -39.5q4 -4 12.5 -14.5t18.5 -24.5l55 -70q16 14 31 21q12 8 25.5 13t33.5 9l64 13q14 4 28.5 4h26.5q31 0 54.5 -4t44.5 -13q16 -6 28 -12t27 -16q14 23 26.5 42t28.5 36 q14 27 64 71q35 -10 55 -19t35 -20q12 -8 61 -20q18 -12 21 -23l2 -6q-10 -18 -23.5 -38.5t-32.5 -37.5q-4 -8 -13 -17t-19 -24l-86 -102q12 -29 20 -61q0 -10 2 -26.5t4 -45.5q2 -10 2 -18.5v-16.5q0 -20 -2 -31l2 -65q0 -29 -2 -52.5t-6 -41.5q-4 -23 -9 -42.5t-11 -35.5 q23 -31 51 -63.5t61 -71.5q6 -6 6 -13q0 -2 -1 -4t-1 -6t-11 -11t-28 -20q-14 -10 -22 -16t-25 -12l-4 -2q-31 -20 -37 -21h-2q-8 -2 -13 -3t-11 -1q-4 0 -9.5 1t-11.5 1q-16 23 -36.5 46.5t-43.5 49.5q-29 -10 -62.5 -17t-74.5 -7q-106 0 -170 41q-23 -29 -48.5 -58.5 t-51.5 -64.5q-10 -12 -25 -12q-14 0 -51 14q-16 8 -27.5 12t-21.5 15h-8q-35 16 -37 20q-10 4 -13.5 14.5t-5.5 20.5l9 8q29 35 67.5 83t87.5 108q-14 39 -20 90q-4 33 -6 62.5t-2 55.5q0 78 12 150q0 6 2 12q-47 55 -87 102.5t-73 86.5q-25 18 -59 75zM438 510 q0 -82 32 -139.5t73 -57.5q45 0 76.5 57.5t31.5 139.5q0 80 -31.5 138.5t-76.5 58.5q-41 0 -73 -58.5t-32 -138.5z" />
<glyph unicode="&#xa5;" horiz-adv-x="1069" d="M12 262q4 49 5 89t1 71v55l5 33h51t69 -2t71 -2h52h96v69h-266l-45 -10q-27 0 -39 17q4 51 5 91t1 70v54l5 32h51t69 -4q41 -2 71 -2h52h37q-31 150 -31 144q-35 125 -58.5 212t-35.5 138q-16 51 -26.5 90t-18.5 68q0 14 10 14h7q80 -2 137 -3t98 -1q2 0 11.5 2t11.5 2 v-10l6 6q12 -41 23.5 -71t17.5 -52q0 -23 10 -56.5t10 -50.5q16 -74 28.5 -115.5t22.5 -52.5q2 -6 11 -6q2 0 6 6q10 25 16 48.5t12 46.5q14 59 19.5 94t9.5 41q2 8 5 22.5t9 34.5q12 33 13 60q6 6 8 24.5t16 26.5q18 2 49 3t76 1q10 0 18.5 -1t18.5 -1q27 0 47.5 2t36.5 6 q8 -6 25 -10q-25 -59 -29 -80q-53 -190 -84 -300t-41 -144q-20 -59 -29.5 -93t-11.5 -39h234q4 2 10 2h12t18 3h9q20 0 30 -11q0 -41 1 -74.5t1 -62.5t-1 -53.5t-1 -42.5q-20 -10 -36.5 -12.5t-30.5 -2.5h-12q-4 0 -9.5 -1t-9.5 -1q-20 0 -56 3.5t-69 3.5h-32.5t-24.5 -5 h-94q2 -12 2 -28.5v-38.5q98 2 171.5 2h121.5q2 0 3 -1t3 -1q6 0 14 1t20 3q4 0 7.5 1t7.5 1q12 0 24 -8q0 -41 1 -75t1 -64q0 -29 -1 -53.5t-1 -45.5q-20 -6 -36.5 -8t-28.5 -2h-14q-4 0 -8.5 -1t-8.5 -1q-14 0 -34.5 1t-49.5 3h-33h-34.5t-32.5 -2h-94q-2 -10 -2 -17.5 v-13.5q0 -16 2 -22q-2 -16 -2 -31.5v-28.5q0 -29 2 -39q2 -12 4 -25t2 -28q0 -14 -2 -26.5t-4 -26.5h-101q-51 0 -89 -1t-62 -3q-43 0 -43 22q0 41 1 71t3 46q-2 23 -3 52.5t-1 70.5l-275 -6q-12 -2 -20 -2h-15q-8 0 -10 -2h-8q-23 0 -31 14z" />
<glyph unicode="&#xa6;" horiz-adv-x="370" d="M51 756v10q0 14 8 22q35 0 67 1.5t60 1.5q29 0 51.5 -1.5t41.5 -1.5q6 -20 8 -36.5t2 -28.5v-14q0 -35 1 -64t1 -53q0 -27 -1 -47.5t-1 -36.5l20 -111v-26q0 -39 6 -72l-4 -41l-2 -174q0 -10 2 -30.5t2 -30.5q-2 -14 -14 -23q-80 6 -133 6h-35.5t-30.5 -2l-30 6 q0 109 1 169.5t3 72.5l8 41q0 18 1 34.5t1 30.5q0 20 -1 34t-3 24q-10 104 -16.5 178t-10.5 115v8v15t-2 24zM51 1608v10q0 16 8 24q35 0 67 1.5t60 1.5q29 0 51.5 -1.5t41.5 -1.5q6 -20 8 -36.5t2 -28.5v-14q0 -35 1 -64t1 -53q0 -27 -1 -47.5t-1 -36.5l20 -111v-26 q0 -41 6 -74l-4 -39l-2 -174q0 -10 2 -30.5t2 -30.5q-2 -10 -14 -23q-45 4 -82 5t-65 1h-52l-30 4q0 111 1 170.5t3 71.5l8 39q0 18 1 34.5t1 30.5q0 20 -1 35t-3 25q-10 106 -16.5 179t-10.5 114v8v14t-2 23z" />
<glyph unicode="&#xa7;" horiz-adv-x="569" d="M0 446v7q0 16 12 22h187q6 -27 8 -47t2 -37v-16q2 -4 3 -13.5t2 -21.5t4 -23.5t9 -15.5q2 -2 6 -2q12 0 27 20q8 35 8 74q0 80 -41 127q-59 68 -101 114t-67 71q-12 29 -24 45q-12 63 -19.5 93.5t-7.5 28.5q0 10 1 19.5t3 19.5v64q10 25 17.5 50.5t15.5 51.5q29 57 66 80 q-10 12 -17.5 19.5t-9.5 11.5l-23 47q-12 55 -19 86t-9 39q0 16 6 35v63q10 29 17 55.5t18 55.5q27 63 80 86l51 22q16 4 30.5 4h30.5q98 0 158 -39q80 -92 86 -159q4 -53 7 -88t5 -56q-2 -23 -41 -22q-14 0 -23 1t-18 1q-4 0 -7 -1t-5 -1h-4q-16 0 -51 2t-51 2q-8 31 -9 53 v23q0 14 -3 38.5t-7 59.5q-6 14 -18 14q-8 0 -17 -10q-14 -39 -14 -61q0 -8 4 -21q0 -106 41 -147q94 -94 102 -99q109 -113 115 -243v-19q0 -149 -47 -221q-14 -16 -25.5 -28.5t-23.5 -22.5q70 -94 72 -193v-32q0 -133 -46 -211q-68 -76 -127 -97q-18 -2 -34.5 -3t-32.5 -1 q-137 0 -193 90q-27 37 -40 92.5t-17 127.5v6v12t-2 18zM231 911q6 -86 39 -125q6 4 9.5 9.5t5.5 7.5q4 20 5 36.5t1 32.5v31v4q-8 51 -31 88l-18 17q-6 -20 -8.5 -35.5t-2.5 -28.5v-12q2 -4 2 -12t-2 -13z" />
<glyph unicode="&#xa8;" horiz-adv-x="747" d="M100 1604v276l6 10q23 0 53.5 1t67.5 1t79 -1t91 -1l6 -10q0 -33 1.5 -74t3.5 -90v-26q0 -18 -1 -41t-4 -50q-8 -8 -20 -8h-6q-20 4 -25 4q-2 0 -3 -1t-3 -1q-20 -2 -46 -2h-54h-66t-74 2zM498 1612v20q0 29 3 67t7 87q-6 12 -8 36.5t-2 57.5l4 10h291l8 -235v-19 q0 -29 -8 -37h-291z" />
<glyph unicode="&#xa9;" horiz-adv-x="1202" d="M25 915q0 233 165 404q171 166 404 166t403 -166q166 -170 166 -404q0 -236 -166 -405q-84 -82 -182 -124t-221 -42q-233 0 -404 166q-166 172 -165 405zM106 915q0 -205 142 -346q141 -141 346 -141q203 0 344 141q143 143 143 346q0 199 -143 342t-344 144 q-205 0 -346 -141t-142 -345zM336 936q6 55 8 98t6 72q2 14 7 33.5t10 44.5q8 14 8 24q6 16 8 24.5t2 12.5q20 43 51 68q0 14 17.5 25.5t21.5 13.5q35 23 55.5 23.5t34.5 10.5h62l24 -4q53 -14 64 -28q43 -27 55 -54q27 -31 29 -40q10 -29 18 -49.5t14 -36.5q18 -80 19 -154 q0 -18 -6 -25q-61 2 -107.5 2h-74.5q-6 18 -7 29q0 4 1 6t1 6q0 10 1 18.5t1 18.5q0 23 -2 48.5t-6 52.5q-12 41 -47 41l-31 -5q-33 -41 -34 -61l-2 2v-31v-352l10 -94v-10q20 -43 55 -50q6 0 14.5 4.5t14.5 4.5q18 16 24 41q2 6 5.5 17t5.5 28q0 16 1 31.5t1 27.5 q0 14 -1 23.5t-1 19.5l-2 2q0 4 12 4q8 0 15 1t16 1q6 0 11 -1t9 -1q16 -2 26.5 -3t20.5 -1t14 2q8 2 19 2q12 0 18 -2q6 2 15 2q10 0 14 -2v-18q0 -23 -3 -52.5t-7 -64.5l-13 -29q-10 -31 -18 -53t-14 -39q-18 -23 -21 -31q-41 -47 -69 -55q-39 -29 -76 -29l-23 -6 q-35 0 -69.5 10.5t-71.5 26.5q-51 45 -63 74q-23 37 -36.5 84t-23.5 102z" />
<glyph unicode="&#xaa;" />
<glyph unicode="&#xab;" horiz-adv-x="1447" d="M20 745l3 3q-1 2 -3 2q0 20 23 38l27 25l141 143l133 134q35 35 63.5 64.5t47.5 51.5l32 25l191 196q39 55 65 56h2q43 -53 76 -89t60 -57l16 -26q-25 -23 -67 -65t-105 -101l-100 -98q-25 -27 -56.5 -60t-72.5 -74q-29 -29 -69 -69.5t-93 -95.5q29 -29 68.5 -69 t93.5 -95q10 -10 41.5 -43t87.5 -90l100 -99q2 -2 44 -43t128 -123l-16 -28q-27 -18 -60 -54t-76 -90h-6q-16 0 -31.5 17.5t-29.5 34.5l-191 200l-32 25q-14 20 -93 96q-8 6 -18 21l-133 133q-20 18 -55 54t-86 89q-20 12 -50 61zM555 745q0 2 4 3q0 2 -4 2q0 20 25 38 l24 25l277 277q35 35 63.5 64.5t44.5 51.5l33 25l192 196q37 55 64 56h2q45 -53 78 -89t57 -57l19 -26q-25 -23 -68 -65t-106 -101l-99 -98q-18 -20 -52 -53t-81 -81q-23 -29 -61.5 -69.5t-96.5 -95.5q25 -25 65 -67t93 -97l232 -232q2 -2 45 -43l129 -123l-19 -28 q-25 -18 -57.5 -54t-77.5 -90h-6q-16 0 -30.5 17.5t-29.5 34.5l-192 200l-33 25q-6 10 -28.5 33.5t-63.5 62.5q-4 4 -8 7t-8 14l-133 133q-23 18 -57 54t-87 89q-23 14 -49 61z" />
<glyph unicode="&#xac;" />
<glyph unicode="&#xad;" horiz-adv-x="532" d="M10 563l4 187q12 25 125 30q111 18 156 31q82 16 149 53q8 4 11 4q12 1 22 -24q-2 -16 -4 -36t-2 -42q0 -23 2 -50.5t4 -58.5q-4 -10 -28 -22q-16 0 -64 -29q-43 -25 -61 -24l-15 4l-250 -45q-4 0 -8 -1t-8 -1q-14 0 -29 8z" />
<glyph unicode="&#xae;" horiz-adv-x="1173" d="M0 918q0 240 166 403q161 166 403 166q238 0 402 -166q166 -164 166 -403q0 -240 -166 -402q-164 -166 -402 -166q-244 0 -405 162q-164 164 -164 406zM82 918q0 -207 139 -347q141 -141 348 -141q201 0 342 141t142 347q0 205 -140 344q-139 141 -344 141 q-102 0 -189 -35t-159 -106q-139 -139 -139 -344zM354 1278v45q12 10 29 10q39 -2 61.5 -2h32.5q12 4 17 4q2 0 3 -1t3 -1q45 -2 78.5 -3t56.5 -1q29 -14 47 -22.5t33 -14.5q68 -55 67 -196v-27.5t-2 -30.5q-4 -51 -30 -112q-20 -14 -23 -21q-12 -10 -17 -18t-10 -13 q23 -96 32 -143t9 -49q14 -53 23.5 -91t15.5 -63q2 -6 2 -12q0 -10 -2 -16q-45 4 -76.5 6t-48.5 2h-39q-8 63 -13 109.5t-11 78.5q0 16 -8.5 51t-8.5 52q0 53 -32 53q-4 -6 -7.5 -11t-5.5 -10v-321q-4 -8 -18 -8h-152q-4 6 -4 28q4 10 4 35v66v428v53t-4 84q-2 49 -2 82z M528 1105q0 -11 2 -28v-61q0 -37 9 -45h51q20 18 26 30q4 14 4.5 37t0.5 56v36q-10 57 -17 66l-22 12q-10 2 -25 2q-14 0 -20 -6q-8 -39 -9 -67v4v-17v-19z" />
<glyph unicode="&#xaf;" horiz-adv-x="976" d="M-8 1343q4 45 5 82t1 66v51l4 31h51.5t69.5 -2t70.5 -2h52.5h325h77t89 2q41 2 65.5 2h37.5q2 0 3 -1t3 -1q14 0 37 6h12q16 0 23 -8q2 -37 2 -69v-60v-51.5t-2 -38.5q-20 -6 -37 -8.5t-29 -2.5h-12h-314q-111 0 -135 -6l-39 6l-276 -6q-10 -2 -21.5 -2t-21.5 -2 q-29 0 -41 14z" />
<glyph unicode="&#xb0;" horiz-adv-x="169" d="M20 1606q0 10 1.5 22t3.5 27q10 76 36 94q2 4 33 14h6q49 0 68 -47q6 -8 16 -43v-49q0 -4 1 -9t1 -11q0 -4 -1 -10.5t-1 -12.5q0 -14 -14 -53q-23 -43 -66 -43q-84 0 -84 121zM88 1638q0 -20 1 -37.5t3 -33.5l2 -11q2 -2 17 -6l6 13l4 14v84q0 4 -2 10t-4 17l-4 8 q-4 2 -11 2q-10 0 -10 -21q-2 -10 -2 -19v-20z" />
<glyph unicode="&#xb1;" horiz-adv-x="995" d="M-18 944q4 49 6 89t2 69v33l6 30q84 -2 142.5 -3t90.5 -5l70 -2h66l6 39v264q-4 10 -4 21.5t-2 21.5q0 27 16 39q53 -4 95 -7t73 -3h22l31 -4q-2 -23 -4 -57.5t-4 -77.5q-2 -35 -2 -59.5v-39.5v-137h179t130 -2q2 -2 4 -2q6 0 14.5 1t22.5 3h10q17 0 23 -8v-72 q0 -45 -1 -79.5t-3 -59.5q-20 -6 -35.5 -8t-28.5 -2h-12h-89t-106 2l-110 4q0 -53 1 -98.5t1 -83.5q0 -39 -1 -71t-1 -56q-2 -2 -2 -9q0 -6 1 -15t3 -19v-9q0 -18 -10 -24h-123t-86 2q-6 18 -8.5 33.5t-2.5 27.5v15v114.5t3 81.5l2 66v41l-37 6h-267q-10 -2 -21 -2t-22 -4 q-27 0 -38 16zM-8 258q4 45 5 82t1 66v51l4 30h51.5t69.5 -2q41 -4 70.5 -4h52.5h325h87.5t107.5 4q49 2 82 2h49q2 0 4 -1t4 -1q8 0 17.5 1t19.5 3h10q16 0 25 -8q0 -37 1 -68.5t1 -58.5q0 -29 -1 -51t-1 -41q-20 -6 -36.5 -8t-29.5 -2h-14h-371q-57 0 -90 -1t-45 -3l-39 4 l-276 -4q-10 -2 -21.5 -2t-21.5 -4q-29 0 -41 16z" />
<glyph unicode="&#xb2;" d="M18 1343q0 68 2 74v15q0 4 2.5 13t8.5 19q8 39 39.5 72t68.5 41q8 0 15.5 1t13.5 1q29 0 53 -12l6 -6q31 -12 56 -62q2 -8 5 -18.5t7 -26.5q0 -16 -2 -44t-8 -62q-4 -8 -8.5 -33t-14.5 -35l-12 -35q-2 -6 -5 -13t-7 -18v3q-2 0 -11 -21q-8 -10 -18 -26.5t-29 -55.5 q-4 -6 -7 -13t-7 -18v-4q0 -10 8 -12h41l23 2h53l8 -8l-4 -100q-4 -6 -12 -7q-12 2 -33 3t-49 1h-178v50q4 25 7 38t6 23t8 21.5t15 29.5q4 12 14.5 30.5t22.5 41.5q0 4 4 6l4 8q2 6 7.5 15.5t11.5 23.5l43 105q2 23 3 41t1 32q0 23 -4 39q-12 4 -16 4h-5q-23 -16 -22 -30 q0 -6 2 -9q-2 -18 -3 -31.5t-1 -23.5q0 -4 1 -7t1 -5l-6 -19h-88z" />
<glyph unicode="&#xb3;" horiz-adv-x="362" d="M10 1178l15 6h28h80l2 -6q-2 -12 -2 -24.5v-25.5v-24t2 -23q2 -12 15 -28q4 -2 8 -2q10 0 20 8l10 12q2 8 2 39v43v16.5t-2 24.5q-6 14 -12 22.5t-16 10.5h-45q-2 2 -2 35q-2 4 -2 8q0 6 2 8q-2 8 -2 22q0 12 2 21q2 0 2 2t2 6q8 -2 37 -2q16 6 26 55q2 10 2 19.5v19.5 q0 25 -6 41q-12 14 -18 15q-8 -2 -23 -41v-72l-2 -4q-10 -2 -22.5 -2h-28.5h-51q-12 6 -13 8l2 51q0 12 2.5 29.5t8.5 42.5q6 23 53 70q4 2 9 5t13 7q16 6 31 8t29 2q10 0 21.5 -1t21.5 -3l2 -4q8 -2 59 -37q2 -6 7.5 -15.5t11.5 -19.5q4 -14 10 -28.5t10 -45.5 q0 -72 -20 -106q-4 -4 -8.5 -11t-14.5 -18l-16 -16l2 -4q49 -31 61 -117v-2q0 -8 -2 -12v-29l-8 -45q-2 -6 -6 -15.5t-8 -21.5q-16 -47 -64 -65q-6 -4 -11 -6.5l-9 -4.5q-23 -10 -51 -10q-41 0 -78 31q-23 16 -38 47t-24 80l-2 4v44t-2 28z" />
<glyph unicode="&#xb4;" horiz-adv-x="655" d="M246 1681q51 20 63 33q8 10 17.5 20.5t19.5 18.5q8 4 26.5 21.5t47.5 48.5l92 69h18l166 -94l4 -10l-47 -51l-202 -92l-172 -35q-16 35 -24.5 54t-8.5 17z" />
<glyph unicode="&#xb5;" horiz-adv-x="704" d="M20 1012q0 10 9 24q8 6 41 6q135 0 213 -6q0 -10 1 -30.5t2 -46t2 -53t1 -50.5v-616q0 -20 16 -39q20 -6 37 -6q10 0 14 2q10 6 16.5 17t12.5 28q4 98 5 179t1 152q0 72 -1 129.5t-5 104.5v223l12 6q10 0 36 1t67 3h28q47 0 83 -5t40 -13t4 -21q0 -6 -4 -22q0 -4 -2 -8 t-2 -10q0 -10 2 -20.5t6 -25.5q-4 -8 -5 -21t-1 -27.5t-1 -28t-3 -19.5v-801q0 -31 -18 -30h-4q-78 0 -111 8q-8 -4 -16.5 -4h-18.5q-16 0 -37.5 2t-46.5 6q0 16 -18 41q-23 -16 -44.5 -29.5t-41.5 -21.5v-164q2 -6 2 -35v-6q0 -29 -29 -45q-41 2 -72.5 3t-58.5 1l-51 -2 l-47 10v111q2 33 4 57.5t2 40.5v145q-4 4 -4 9q-2 18 -3 37.5t-1 42.5v32.5t4 32.5l-6 178q0 78 -2 221.5t-4 348.5z" />
<glyph unicode="&#xb6;" />
<glyph unicode="&#xb7;" horiz-adv-x="987" d="M301 799q0 63 43 106t105 43q61 0 104 -43t43 -106q0 -61 -43 -104.5t-104 -43.5t-104.5 43t-43.5 105z" />
<glyph unicode="&#xb8;" horiz-adv-x="616" d="M260 -492l2 97v39q4 0 34 1t89 3q98 4 113 12q12 25 12 29q-2 18 -12 22q-23 10 -43.5 17.5t-40.5 7.5q-18 0 -37 -6q-10 -4 -18.5 -6.5t-16.5 -2.5q-33 0 -51 23q-8 0 -16.5 19.5t-8.5 29.5q-4 8 -4 10t4 11v48t2 32v30v53.5t-2 63.5v20q12 0 21.5 1t19.5 1t16.5 -1 t12.5 -1q23 2 39 2h26q6 -2 15 -2q0 -18 -2 -22h-2q-4 0 -4 -14v-140q10 2 23 4t30 2q6 0 12 -1t14 -1q86 -4 148 -79q6 -14 9 -25.5t7 -15.5q4 -14 7.5 -33t3.5 -47q-6 -45 -15 -64q-70 -135 -305 -135h-33.5t-36.5 2q-12 0 -12 16z" />
<glyph unicode="&#xb9;" horiz-adv-x="299" d="M37 1434q0 2 2 4v49q8 2 17.5 4t23.5 4q4 2 12 7t21 9l12 15q2 6 12 37q6 4 12.5 4t16.5 2h70q2 -6 2 -16.5t2 -24.5v-118.5t-2 -111.5v-94v2v-18v-23.5t2 -31.5v-70l-2 -25q2 -2 2 -39v-45l-4 -6h-103l-18 4q-2 4 -2 45v125q0 45 2 52q-2 2 -2 24l-2 188v35h-70 q-4 8 -4 13z" />
<glyph unicode="&#xba;" />
<glyph unicode="&#xbb;" horiz-adv-x="1415" d="M14 186q88 82 130 123t44 43l101 99q55 57 87 89.5t42 43.5q53 55 93 95l69 69q-53 55 -93.5 96t-68.5 69q-41 41 -73 74t-56 60l-101 98q-63 59 -105 101t-69 65l19 26q47 37 135 146h2q25 0 66 -56l190 -196l33 -25q35 -43 110 -116l131 -134l144 -143l28 -27 q19 -20 21 -36q-2 0 -2 -2l2 -3q-29 -49 -49 -61q-51 -53 -86 -89t-58 -54l-131 -133q-6 -10 -10 -13.5t-8 -7.5q-78 -76 -92 -96l-33 -25l-190 -200q-8 -10 -15.5 -17.5t-13.5 -17.5q-16 -16 -35 -17h-4q-43 53 -77 89t-58 55zM551 186q86 82 128 123t46 43l98 99 q55 57 88 89.5t43 43.5q51 55 91 95l69 69q-53 55 -93 96t-67 69q-41 41 -73.5 74t-57.5 60l-98 98q-63 59 -106.5 101t-67.5 65l18 26q25 20 57.5 56.5t78.5 89.5h2q23 0 63 -56l191 -196l34 -25q31 -37 53.5 -61.5t34.5 -38.5q10 -10 15 -12q4 -2 6 -4l276 -277l27 -27 q10 -10 14 -18t6 -18q-2 0 -2 -2l2 -3q-25 -45 -47 -61q-53 -53 -86.5 -89t-56.5 -54l-133 -133q-10 -16 -21 -21q-80 -80 -88 -96l-34 -25l-191 -200q-8 -10 -15 -17.5t-14 -17.5q-16 -16 -32 -17h-4q-45 53 -78 89t-58 55z" />
<glyph unicode="&#xbc;" horiz-adv-x="724" d="M0 0l539 1567h133l-535 -1567h-137zM16 1434q0 2 2 4v49q8 2 17.5 4t23.5 4q4 2 12.5 7t20.5 9l12 15q2 6 13 37q6 4 12 4t16 2h70q2 -6 2 -16.5t2 -24.5v-118.5t-2 -111.5v-94v2v-18v-23.5t2 -31.5v-70l-2 -25q2 -2 2 -39v-45l-4 -6h-102l-19 4q-2 4 -2 45v125 q0 45 2 52q-2 2 -2 24l-2 188v35h-70q-4 8 -4 13zM385 150v77v6q0 47 45 175l31 77q4 4 7 16.5t11 30.5l31 82q6 6 10 9q23 -2 53.5 -2t71.5 -5l6 -4q-4 -31 -4 -74.5v-103.5v-90v-43t4 -59q4 -2 14.5 -2t20.5 -2l4 -7l-2 -86q-4 -2 -14 -2t-21 -4q0 -8 -6 -33v-96 q-2 -8 -12 -8h-4q-6 0 -9.5 1t-7.5 1t-5 -1t-3 -1h-55q-16 0 -23 6v6v47.5t-2 32.5v2q0 2 1 2t1 2q0 4 -1 7.5t-1 7.5v6q0 12 -8 22h-39h2q0 2 -51 2q-33 0 -45 5zM469 242h49l8 24q0 2 1 5t1 8q0 4 -1 10t-1 12q-4 8 -4 14q0 4 4 21v39q-8 16 -8 14q0 2 2 2 q-10 -18 -14 -41q0 -2 -10 -16q-6 -23 -11.5 -37t-9.5 -25z" />
<glyph unicode="&#xbd;" horiz-adv-x="737" d="M0 0l539 1567h133l-535 -1567h-137zM16 1434q0 2 2 4v49q8 2 17.5 4t23.5 4q4 2 12.5 7t20.5 9l12 15q2 6 13 37q6 4 12 4t16 2h70q2 -6 2 -16.5t2 -24.5v-118.5t-2 -111.5v-94v2v-18v-23.5t2 -31.5v-70l-2 -25q2 -2 2 -39v-45l-4 -6h-102l-19 4q-2 4 -2 45v125 q0 45 2 52q-2 2 -2 24l-2 188v35h-70q-4 8 -4 13zM426 391q0 66 2 74v12q0 16 10 33q8 39 40 71.5t71 41.5q8 0 14 1t12 1q31 0 56 -13l4 -6q31 -8 55 -59q4 -8 7 -19.5t8 -27.5q0 -16 -3.5 -44t-7.5 -63q-6 -8 -9 -32.5t-13 -34.5l-15 -35q-4 -12 -12 -31v2q-2 0 -10 -20 q-8 -10 -18.5 -26.5t-26.5 -55.5q-4 -4 -8 -11.5t-9 -17.5v-6q0 -10 9 -12h41l22 2h53l9 -9l-2 -98q-6 -8 -15 -8q-12 2 -31.5 3t-48.5 1h-180v49q4 25 7 38t7.5 23.5t9.5 21.5t13 30q6 14 15.5 31.5t23.5 40.5q0 4 2 8l4 6q4 6 8 15t10 24l43 104q2 23 4.5 41.5t2.5 32.5 t-2.5 23.5t-4.5 15.5q-4 2 -7 4t-7 2q-2 0 -3 -1t-3 -1q-23 -16 -23 -31q0 -2 1 -3t1 -3q-2 -20 -3 -33.5t-1 -23.5q0 -4 1 -7t1 -5l-4 -19h-90z" />
<glyph unicode="&#xbe;" horiz-adv-x="729" d="M12 1178l17 6h106l2 -6q-2 -12 -2 -24.5v-25.5v-24t2 -23q2 -16 17 -28q2 -2 6 -2q12 0 20 8l10 12q4 8 5 39v43v16.5t-5 24.5q-10 31 -26 33h-47q-2 2 -2 35q-2 4 -2 8q0 6 2 8q-2 8 -2 22q0 12 2 21l2 2q0 -2 4 6q6 -2 35 -2q16 6 28 55v33q0 14 -1 25.5t-5 21.5 q-12 14 -18 15q-8 -2 -23 -41v-72l-2 -4q-10 -2 -22.5 -2h-28.5h-51q-12 6 -13 8l3 51q0 12 2 29.5t8 42.5q10 27 53 70l10 5t15 7q16 6 29.5 8t27.5 2q12 0 22.5 -1t20.5 -3l4 -4q8 -2 57 -37q2 -6 7.5 -15.5t11.5 -19.5q6 -14 12 -28.5t8 -45.5q0 -72 -20 -106 q-2 -6 -23 -29l-16 -16l4 -4q51 -31 59 -117l2 -4q0 -2 -4 -10v-29l-8 -45q-4 -16 -14 -37q-16 -47 -64 -65q-6 -4 -10 -6.5t-10 -4.5q-23 -10 -51 -10q-43 0 -76 31q-47 35 -62 127l-4 4v44t-2 28zM33 0l538 1567h134l-535 -1567h-137zM385 150v77v6q0 47 45 175l31 77 q4 4 7 16.5t11 30.5l31 82q6 6 10 9q23 -2 53.5 -2t71.5 -5l6 -4q-4 -31 -4 -74.5v-103.5v-90v-43t4 -59q4 -2 14.5 -2t20.5 -2l4 -7l-2 -86q-4 -2 -14 -2t-21 -4q0 -8 -6 -33v-96q-2 -8 -12 -8h-4q-6 0 -9.5 1t-7.5 1t-5 -1t-3 -1h-55q-16 0 -23 6v6v47.5t-2 32.5v2 q0 2 1 2t1 2q0 4 -1 7.5t-1 7.5v6q0 12 -8 22h-39h2q0 2 -51 2q-33 0 -45 5zM469 242h49l8 24q0 2 1 5t1 8q0 4 -1 10t-1 12q-4 8 -4 14q0 4 4 21v39q-8 16 -8 14q0 2 2 2q-10 -18 -14 -41q0 -2 -10 -16q-6 -23 -11.5 -37t-9.5 -25z" />
<glyph unicode="&#xbf;" horiz-adv-x="663" d="M2 262v33q0 72 10 102q4 29 64 168q10 6 15 23.5t13 23.5q47 61 91 201q10 70 16 104.5t6 30.5q-2 0 -2 53q0 39 25 41q39 -2 98 -3t137 -1q2 -4 3 -23.5t1 -56.5q-6 -33 -16 -80t-27 -110q-29 -53 -67.5 -131t-85.5 -188q-10 -29 -13.5 -54.5t-3.5 -50.5q0 -61 23 -98 q6 -14 35 -21q10 0 43 21q18 20 18 125v12q0 12 2 27.5t8 33.5h64l151 5q14 0 24.5 -2.5t10.5 -12.5q0 -4 -2 -8q-2 -16 -6 -49t-10 -82q-39 -215 -203 -297q-16 -6 -42 -10t-58 -11q-84 1 -125 15q-20 14 -66 28q-129 106 -131 242zM195 1483l10 16q20 -4 44.5 -6t53.5 -2 h22.5t24.5 2q49 2 85 2h57q8 -10 8 -18t-2 -11q0 -113 1 -178t3 -86q-10 -14 -33 -14h-19.5t-19.5 4h-39q-35 0 -79 -2t-101 -6l-12 22q4 16 4 33.5v38.5v33.5t-2 36.5q-6 117 -6 135z" />
<glyph unicode="&#xc0;" horiz-adv-x="917" d="M8 23q0 -12 6 -19l88 -4l4 4q33 -2 81.5 -3t111.5 -1l10 12q4 53 10.5 115.5t12.5 138.5q16 16 49 19h26.5t28.5 4h60q35 0 51 -23q23 -96 22 -110q4 -37 8.5 -63.5t8.5 -47.5h-6q0 -12 12 -45h104h178l11 -2q6 2 6 8v6l-51 363q-18 25 -19 45v6l-10 96q0 12 -6 41t-6 47 v6q-6 14 -8.5 25.5t-2.5 22.5q-25 172 -40 266t-19 117q-16 102 -24.5 166.5t-16.5 99.5q-10 63 -16 114.5t-10 88.5h-111q-43 -6 -76 -7q-33 0 -57 7h-56q-16 -6 -34 -7q-4 0 -7.5 1t-7.5 1q-12 2 -21 2t-16 3q-8 0 -10 2q-29 0 -49 -17l-10 -119l-19 -110q-10 -41 -15 -71 t-7 -50q-23 -133 -36 -231.5t-24 -163.5q-4 -20 -4 -31q-2 -18 -6 -47t-10 -74q-4 -39 -8 -68.5t-4 -50.5q-10 -84 -17.5 -145t-11.5 -102l-12 -72q-2 -6 -3 -16.5t-5 -26.5q0 -33 -6.5 -47.5t-8.5 -36.5q0 -4 -1 -8t-1 -8zM217 1788l4 10l166 94h19l92 -69q4 -4 18 -17.5 t39 -36.5q39 -35 55 -55q9 -13 64 -33q-2 2 -33 -71l-174 35l-201 92zM373 530v86q27 172 30 271q2 27 5.5 61.5t11.5 81.5q12 59 29 60q6 -53 12 -91t10 -61q0 -16 5 -48t5 -48v-6q0 -27 8.5 -71t8.5 -65q0 -18 -2 -26q14 -65 14 -137q-12 -20 -39 -21q-35 0 -43 2 q-2 2 -24.5 2t-30.5 10z" />
<glyph unicode="&#xc1;" horiz-adv-x="917" d="M8 23q0 4 1 8t1 8q2 23 8.5 37t6.5 47q4 16 5 26.5t3 16.5l12 72q4 41 11 102t18 145q0 20 4 50t8 69q6 45 10 74t6 47q0 10 4 31q10 66 23.5 164t36.5 231q2 20 7 50t15 71l19 110l10 119q20 16 49 17q2 -2 10 -2q6 -2 15.5 -2.5t21.5 -2.5q4 0 7.5 -1t7.5 -1q18 0 34 7 h56q25 -6 57 -7q33 0 76 7h111q4 -37 10 -88.5t16 -114.5q8 -35 16.5 -99.5t24.5 -166.5q4 -23 19.5 -117t39.5 -266q0 -10 2.5 -21.5t8.5 -26.5v-6q0 -18 6 -46.5t6 -41.5l10 -96v-6q0 -20 19 -45l51 -363v-6q0 -6 -6 -8l-11 2h-178h-104q-12 33 -12 45h6q-4 20 -8.5 47 t-8.5 64q0 14 -22 110q-16 23 -51 23h-60q-14 -4 -28.5 -4h-26.5q-33 -2 -49 -19q-6 -76 -12.5 -138t-10.5 -116l-10 -12q-63 0 -111.5 1t-81.5 3l-4 -4l-88 4q-6 6 -6 19zM246 1681q51 20 63 33q8 10 17.5 20.5t19.5 18.5q8 4 26.5 21.5t47.5 48.5l92 69h18l166 -94l4 -10 l-47 -51l-202 -92l-172 -35q-16 35 -24.5 54t-8.5 17zM373 530q8 -10 30.5 -10t24.5 -2q8 -2 43 -2q27 1 39 21q0 72 -14 137q2 8 2 26q0 20 -8.5 64.5t-8.5 71.5v6q0 16 -5 48t-5 48q-4 23 -10 60.5t-12 91.5q-16 0 -29 -60q-8 -47 -11 -82t-6 -61q-4 -98 -30 -271v-86z " />
<glyph unicode="&#xc2;" horiz-adv-x="913" d="M8 23q0 -12 6 -19l88 -4l4 4q33 -2 81.5 -3t111.5 -1l10 12q4 53 10.5 115.5t12.5 138.5q16 16 49 19h26.5t28.5 4h60q35 0 51 -23q23 -96 22 -110q4 -37 8.5 -63.5t8.5 -47.5h-6q0 -12 12 -45h104h178l11 -2q6 2 6 8v6l-51 363q-18 25 -19 45v6l-10 96q0 12 -6 41t-6 47 v6q-6 14 -8.5 25.5t-2.5 22.5q-25 172 -40 266t-19 117q-16 102 -24.5 166.5t-16.5 99.5q-10 63 -16 114.5t-10 88.5h-111q-43 -6 -76 -7q-33 0 -57 7h-56q-16 -6 -34 -7q-4 0 -7.5 1t-7.5 1q-12 2 -21 2t-16 3q-8 0 -10 2q-29 0 -49 -17l-10 -119l-19 -110q-10 -41 -15 -71 t-7 -50q-23 -133 -36 -231.5t-24 -163.5q-4 -20 -4 -31q-2 -18 -6 -47t-10 -74q-4 -39 -8 -68.5t-4 -50.5q-10 -84 -17.5 -145t-11.5 -102l-12 -72q-2 -6 -3 -16.5t-5 -26.5q0 -33 -6.5 -47.5t-8.5 -36.5q0 -4 -1 -8t-1 -8zM51 1647q0 8 29 36l104 99l13 18q18 16 30.5 27.5 t18.5 15.5l80 82q29 27 47 45.5t29.5 29.5t19.5 17.5t14 10.5v-3l2 3q12 -6 20.5 -13.5t12.5 -11.5l45.5 -45.5t30.5 -32.5l67 -67q10 -6 11 -11q23 -20 36 -31.5t17 -15.5l10 -18l105 -99q29 -25 28 -34v-2q-53 -43 -76 -70l-14 -10q-29 31 -50.5 53t-35.5 37l-53 55 l-70 68q-41 39 -62.5 59.5t-23.5 22.5q-29 -29 -51.5 -49.5t-34.5 -32.5q-45 -51 -69 -68l-52 -55q-49 -53 -90 -90l-12 10q-10 12 -28.5 29.5t-47.5 40.5zM373 530v86q27 172 30 271q2 27 5.5 61.5t11.5 81.5q12 59 29 60q6 -53 12 -91t10 -61q0 -16 5 -48t5 -48v-6 q0 -27 8.5 -71t8.5 -65q0 -18 -2 -26q14 -65 14 -137q-12 -20 -39 -21q-35 0 -43 2q-2 2 -24.5 2t-30.5 10z" />
<glyph unicode="&#xc3;" horiz-adv-x="917" d="M8 23q0 4 1 8t1 8q2 23 8.5 37t6.5 47q4 16 5 26.5t3 16.5l12 72q4 41 11 102t18 145q0 20 4 50t8 69q6 45 10 74t6 47q0 10 4 31q10 66 23.5 164t36.5 231q2 20 7 50t15 71l19 110l10 119q20 16 49 17q2 -2 10 -2q6 -2 15.5 -2.5t21.5 -2.5q4 0 7.5 -1t7.5 -1q18 0 34 7 h56q25 -6 57 -7q33 0 76 7h111q4 -37 10 -88.5t16 -114.5q8 -35 16.5 -99.5t24.5 -166.5q4 -23 19.5 -117t39.5 -266q0 -10 2.5 -21.5t8.5 -26.5v-6q0 -18 6 -46.5t6 -41.5l10 -96v-6q0 -20 19 -45l51 -363v-6q0 -6 -6 -8l-11 2h-178h-104q-12 33 -12 45h6q-4 20 -8.5 47 t-8.5 64q0 14 -22 110q-16 23 -51 23h-60q-14 -4 -28.5 -4h-26.5q-33 -2 -49 -19q-6 -76 -12.5 -138t-10.5 -116l-10 -12q-63 0 -111.5 1t-81.5 3l-4 -4l-88 4q-6 6 -6 19zM96 1743q0 16 1 31.5t3 31.5q0 12 13 25q94 115 182 115h-4q0 -4 74 -13q6 0 100 -69l43 -31 q80 -55 104 -55q66 0 185 149l6 4v-166l-10 -16q-23 -31 -86 -76q-57 -39 -101 -39q-35 0 -76 21q-10 10 -29.5 22.5t-45.5 28.5q-4 2 -14.5 8t-26.5 21q-10 10 -25.5 23.5t-38.5 27.5q-43 6 -61 6q-74 0 -135 -68q-47 -51 -54 -51q-2 18 -3 35.5t-1 34.5zM373 530 q8 -10 30.5 -10t24.5 -2q8 -2 43 -2q27 1 39 21q0 72 -14 137q2 8 2 26q0 20 -8.5 64.5t-8.5 71.5v6q0 16 -5 48t-5 48q-4 23 -10 60.5t-12 91.5q-16 0 -29 -60q-8 -47 -11 -82t-6 -61q-4 -98 -30 -271v-86z" />
<glyph unicode="&#xc4;" horiz-adv-x="917" d="M8 23q0 4 1 8t1 8q2 23 8.5 37t6.5 47q4 16 5 26.5t3 16.5l12 72q4 41 11 102t18 145q0 20 4 50t8 69q6 45 10 74t6 47q0 10 4 31q10 66 23.5 164t36.5 231q2 20 7 50t15 71l19 110l10 119q20 16 49 17q2 -2 10 -2q6 -2 15.5 -2.5t21.5 -2.5q4 0 7.5 -1t7.5 -1q18 0 34 7 h56q25 -6 57 -7q33 0 76 7h111q4 -37 10 -88.5t16 -114.5q8 -35 16.5 -99.5t24.5 -166.5q4 -23 19.5 -117t39.5 -266q0 -10 2.5 -21.5t8.5 -26.5v-6q0 -18 6 -46.5t6 -41.5l10 -96v-6q0 -20 19 -45l51 -363v-6q0 -6 -6 -8l-11 2h-178h-104q-12 33 -12 45h6q-4 20 -8.5 47 t-8.5 64q0 14 -22 110q-16 23 -51 23h-60q-14 -4 -28.5 -4h-26.5q-33 -2 -49 -19q-6 -76 -12.5 -138t-10.5 -116l-10 -12q-63 0 -111.5 1t-81.5 3l-4 -4l-88 4q-6 6 -6 19zM100 1604v276l6 10q23 0 53.5 1t67.5 1t79 -1t91 -1l6 -10q0 -33 1.5 -74t3.5 -90v-26q0 -18 -1 -41 t-4 -50q-8 -8 -20 -8h-6q-20 4 -25 4q-2 0 -3 -1t-3 -1q-20 -2 -46 -2h-54h-66t-74 2zM373 530q8 -10 30.5 -10t24.5 -2q8 -2 43 -2q27 1 39 21q0 72 -14 137q2 8 2 26q0 20 -8.5 64.5t-8.5 71.5v6q0 16 -5 48t-5 48q-4 23 -10 60.5t-12 91.5q-16 0 -29 -60q-8 -47 -11 -82 t-6 -61q-4 -98 -30 -271v-86zM498 1612v20q0 29 3 67t7 87q-6 12 -8 36.5t-2 57.5l4 10h291l8 -235v-19q0 -29 -8 -37h-291z" />
<glyph unicode="&#xc5;" horiz-adv-x="917" d="M8 23q0 4 1 8t1 8q2 23 8.5 37t6.5 47q4 16 5 26.5t3 16.5l12 72q4 41 11 102t18 145q0 20 4 50t8 69q6 45 10 74t6 47q0 10 4 31q10 66 23.5 164t36.5 231q2 20 7 50t15 71l19 110l10 119q20 16 49 17q2 -2 10 -2q6 -2 15.5 -2.5t21.5 -2.5q4 0 7.5 -1t7.5 -1q18 0 34 7 h56q25 -6 57 -7q33 0 76 7h111q4 -37 10 -88.5t16 -114.5q8 -35 16.5 -99.5t24.5 -166.5q4 -23 19.5 -117t39.5 -266q0 -10 2.5 -21.5t8.5 -26.5v-6q0 -18 6 -46.5t6 -41.5l10 -96v-6q0 -20 19 -45l51 -363v-6q0 -6 -6 -8l-11 2h-178h-104q-12 33 -12 45h6q-4 20 -8.5 47 t-8.5 64q0 14 -22 110q-16 23 -51 23h-60q-14 -4 -28.5 -4h-26.5q-33 -2 -49 -19q-6 -76 -12.5 -138t-10.5 -116l-10 -12q-63 0 -111.5 1t-81.5 3l-4 -4l-88 4q-6 6 -6 19zM266 1802q0 37 13.5 68t36 54.5t54 36.5t66.5 13t65.5 -13t54.5 -36.5t37 -54.5t13 -68 q0 -72 -49 -121t-121 -49t-121 49.5t-49 120.5zM315 1802q0 -47 37 -83t84 -36t83 36t36 83q0 49 -36 85t-83 36t-84 -36t-37 -85zM373 530q8 -10 30.5 -10t24.5 -2q8 -2 43 -2q27 1 39 21q0 72 -14 137q2 8 2 26q0 20 -8.5 64.5t-8.5 71.5v6q0 16 -5 48t-5 48 q-4 23 -10 60.5t-12 91.5q-16 0 -29 -60q-8 -47 -11 -82t-6 -61q-4 -98 -30 -271v-86z" />
<glyph unicode="&#xc6;" horiz-adv-x="1413" d="M8 23q0 4 1 8t1 8q2 23 8.5 37t6.5 47q4 16 5 26.5t3 16.5l12 72q4 41 11 102t18 145q0 20 4 50t8 69q6 45 10 74t6 47q0 10 4 31q10 66 23.5 164t36.5 231q2 20 7 50t15 71l19 110l10 119q20 16 49 17q2 -2 10 -2q6 -2 15.5 -2.5t21.5 -2.5q4 0 7.5 -1t7.5 -1q18 0 34 7 h56q25 -6 57 -7q33 0 76 7h111v-7q6 6 4 7l41 -9h407q10 2 17.5 3t15.5 1q6 0 13 -1t18 -3h41q20 2 40.5 3t47.5 1q23 0 43 -1t43 -3q0 -14 1 -34.5t3 -55.5q2 -16 2 -29.5v-23.5q0 -27 -2 -35q0 -72 -13 -80q-66 2 -169 4t-238 7q-31 -16 -31 -52q0 -84 2 -84v2v-73 q-2 -4 -2 -13q0 -12 4 -27.5t4 -23.5v-15t-2 -30q0 -27 19 -41h317q18 0 19 -33q-6 -12 -7 -20q0 -14 7 -21q-4 -14 -4 -36.5v-53.5v-43q0 -10 -1.5 -22t-3.5 -29q-4 0 -6 1t-6 1t-8 -1t-8 -1q-12 -4 -21 -4q-12 0 -28.5 2t-26.5 2h-10q-10 -2 -31 -2h-17.5t-19.5 2 q-25 2 -42 4t-27 2q-29 0 -50.5 -2t-38.5 -4q-6 -61 -6 -94q0 -25 2 -33v-248q23 -23 62 -22h13t18 2q12 2 23 2h22q14 2 33.5 2h43.5h53.5t65.5 -2q23 0 39 2t31 6h22q15 0 23 -18v-50t-2 -71q-4 -41 -4 -69.5v-51.5v-4h-50t-79 2q-45 2 -80 2h-62h-194q-8 2 -15.5 2h-13.5 q-8 0 -13 -2t-16 -4l-102 2q-20 -2 -49 -2h-68l-12 4h-51q-12 33 -12 45h6q-4 20 -8.5 47t-8.5 64q0 14 -22 110q-16 23 -51 23h-60q-14 -4 -28.5 -4h-26.5q-33 -2 -49 -19q-6 -76 -12.5 -138t-10.5 -116l-10 -12q-63 0 -111.5 1t-81.5 3l-4 -4l-88 4q-6 6 -6 19zM373 530 q8 -10 30.5 -10t24.5 -2q8 -2 43 -2q27 1 39 21q0 72 -14 137q2 8 2 26q0 20 -8.5 64.5t-8.5 71.5v6q0 16 -5 48t-5 48q-4 23 -10 60.5t-12 91.5q-16 0 -29 -60q-8 -47 -11 -82t-6 -61q-4 -98 -30 -271v-86z" />
<glyph unicode="&#xc7;" horiz-adv-x="759" d="M10 653q8 78 13.5 137.5t7.5 100.5l22 106q10 16 10 27v6q16 45 17 49q16 29 32.5 53.5t37.5 41.5q0 16 19 27t36 26q53 31 76 33q2 0 8 6q27 10 41 10h80l34 -6q72 -23 86 -39q59 -39 76 -76q18 -16 28.5 -29.5t16.5 -23.5q16 -41 26.5 -69.5t16.5 -51.5 q25 -133 25 -211q0 -31 -10 -33q-86 2 -147.5 2h-102.5q-6 18 -6 35q0 12 2 19q0 14 1 27.5t1 27.5q0 66 -13 139q-23 51 -57 51h-4l-43 -2q-23 -12 -35 -39l-14 -49q0 -4 1 -5t1 -5t-1 -5t-1 -5q-2 -4 -4 -9.5t-2 -7.5v-483l16 -129v-16q31 -63 76 -66q8 0 19.5 4t19.5 4 q35 31 49 121q0 23 1 44.5t1 37.5t-1 31.5t-1 25.5l-4 4q0 6 18 7q14 0 24.5 1t20.5 1t16.5 -1t10.5 -1q23 -4 40 -6.5t30 -2.5q12 0 21 4.5t15 4.5t13.5 -2t15.5 -5q6 2 10 4.5t9 2.5q4 0 9 -2.5t11 -4.5v-16q0 -31 -4 -73t-12 -97l-15 -37q-16 -45 -28.5 -76.5 t-18.5 -50.5q-10 -14 -18 -25.5t-13 -17.5q-47 -61 -90 -78q-43 -29 -106 -38l-19 -3v-110q23 8 56 8h18q74 -2 139 -80q6 -12 10.5 -22.5t8.5 -14.5q4 -14 6 -31.5t2 -41.5q-6 -49 -14 -62q-59 -133 -279 -133q-18 0 -36.5 1t-39.5 3q-12 8 -12 17l2 92v37q29 4 59.5 4 h59.5q92 4 104 12q4 10 8.5 17.5t4.5 11.5q-2 10 -13 20q-47 20 -77 21q-12 0 -35 -5.5t-37 -5.5q-29 0 -47 19q-25 6 -25 33q0 4 1 7t1 7q-4 8 -4 10t4 10v46.5t2 29.5v70q-2 10 -2 19v16v10v-2l-15 6t-9 4q-16 8 -26.5 13t-20.5 10q-76 68 -89 102q-29 53 -49 115.5 t-32 140.5q-4 119 -8.5 187.5t-6.5 84.5z" />
<glyph unicode="&#xc8;" horiz-adv-x="778" d="M2 852q0 -47 1 -114.5t2 -145.5t2 -161t1 -163v-147.5t-4 -120.5l14 -4q43 0 78 1t60 3q6 -2 24 -2q20 0 44 2t44 2q18 0 25 -2h196h61t81 -2t77.5 -2h51.5v4v51.5t2 69.5q4 41 4 71v50q-8 18 -25 18h-22q-14 -4 -30.5 -6t-37.5 -2q-37 2 -66.5 2h-54.5h-43t-32 -2h-21.5 t-25.5 -2q-10 -2 -16.5 -2h-12.5q-14 0 -19 2q-29 2 -45 20v248q-2 8 -2 33q0 16 2 39.5t7 54.5q16 2 36.5 4t49.5 2q14 0 44.5 -4t63.5 -4q20 0 31 2h8q10 0 27.5 -2t29.5 -2q8 0 21 4q4 0 8 1t8 1t6 -1t7 -1q4 31 7 48.5t3 23.5l-6 22v53.5t2 36.5q-4 8 -4 21q0 4 4 20 q0 33 -17 33h-317q-20 16 -21 41q2 18 2 29.5v15.5q0 8 -3 23.5t-3 27.5q0 8 2 13v73v-2q-2 0 -2 84q0 35 31 52q135 -4 237.5 -6.5t170.5 -4.5q12 8 12 80q0 6 1 15.5t1 19.5t-1 23.5t-1 29.5q-2 35 -3 55.5t-1 34.5q-23 2 -44.5 3t-43.5 1q-25 0 -46.5 -1t-39.5 -3h-41 q-10 2 -17.5 3t-13.5 1q-8 0 -15.5 -1t-17.5 -3h-407l-41 9q-4 0 -6.5 -7.5t-4.5 -7.5v6q-14 0 -14 -10v-2q2 -6 2 -14q0 -6 -2 -6v-78q-2 -35 -2 -64.5v-54.5v-45.5t2 -36.5q2 -29 2 -55.5v-48.5v-45.5t-2 -38.5q2 -4 2 -15q0 -12 -2 -18t-2 -17q0 -12 2 -14 q0 -20 -1 -42.5t-1 -49.5zM115 1788l6 10l164 94h18l92 -69q4 -4 18.5 -17.5t41.5 -36.5q39 -37 53 -55q10 -13 63 -33q-2 2 -32 -71l-174 35l-201 92z" />
<glyph unicode="&#xc9;" horiz-adv-x="778" d="M2 852q0 27 1 49.5t1 42.5q-2 2 -2 14q0 10 2 17q2 6 2 18q0 10 -2 15q2 18 2 38.5v45.5v49t-2 55q-2 16 -2 36.5v45.5v54.5t2 64.5v78q2 0 2 6q0 8 -2 14v2q0 10 14 10v-6q2 0 4.5 7.5t6.5 7.5l41 -9h407q10 2 17.5 3t15.5 1q6 0 13 -1t18 -3h41q18 2 39.5 3t46.5 1 q23 0 44 -1t44 -3q0 -14 1 -34.5t3 -55.5q0 -16 1 -29.5t1 -23.5t-1 -19.5t-1 -15.5q0 -72 -12 -80q-68 2 -170.5 4t-237.5 7q-31 -16 -31 -52q0 -84 2 -84v2v-73q-2 -4 -2 -13q0 -12 3 -27.5t3 -23.5v-15t-2 -30q0 -25 21 -41h317q16 0 17 -33q-4 -16 -4 -20q0 -12 4 -21 q-2 -14 -2 -36.5v-53.5l6 -22q0 -6 -3 -23.5t-7 -48.5q-4 0 -6.5 1t-6.5 1t-8 -1t-8 -1q-12 -4 -21 -4q-12 0 -29.5 2t-27.5 2h-8q-10 -2 -31 -2q-33 0 -63.5 4t-44.5 4q-29 0 -49.5 -2t-36.5 -4q-4 -31 -6.5 -54.5t-2.5 -39.5q0 -25 2 -33v-248q16 -18 45 -20q4 -2 19 -2 h12t17 2q14 2 25 2h22q14 2 32.5 2h42.5h54.5t66.5 -2q20 0 37 2t31 6h22q17 0 25 -18v-50t-4 -71q-2 -41 -2 -69.5v-51.5v-4h-51t-78 2t-81 2h-61h-196q-6 2 -25 2q-20 0 -43.5 -2t-44.5 -2q-18 0 -24 2q-25 -2 -60 -3t-78 -1l-14 4q4 53 4 120.5v147.5t-1 163t-2 161 t-2 145.5t-1 114.5zM168 1681q55 20 63 33q16 23 39 39q18 10 74 70l92 69h19l166 -94l4 -10l-50 -51l-200 -92l-174 -35q-16 35 -24.5 54t-8.5 17z" />
<glyph unicode="&#xca;" horiz-adv-x="778" d="M2 852q0 -47 1 -114.5t2 -145.5t2 -161t1 -163v-147.5t-4 -120.5l14 -4q43 0 78 1t60 3q6 -2 24 -2q20 0 44 2t44 2q18 0 25 -2h196h61t81 -2t77.5 -2h51.5v4v51.5t2 69.5q4 41 4 71v50q-8 18 -25 18h-22q-14 -4 -30.5 -6t-37.5 -2q-37 2 -66.5 2h-54.5h-43t-32 -2h-21.5 t-25.5 -2q-10 -2 -16.5 -2h-12.5q-14 0 -19 2q-29 2 -45 20v248q-2 8 -2 33q0 16 2 39.5t7 54.5q16 2 36.5 4t49.5 2q14 0 44.5 -4t63.5 -4q20 0 31 2h8q10 0 27.5 -2t29.5 -2q8 0 21 4q4 0 8 1t8 1t6 -1t7 -1q4 31 7 48.5t3 23.5l-6 22v53.5t2 36.5q-4 8 -4 21q0 4 4 20 q0 33 -17 33h-317q-20 16 -21 41q2 18 2 29.5v15.5q0 8 -3 23.5t-3 27.5q0 8 2 13v73v-2q-2 0 -2 84q0 35 31 52q135 -4 237.5 -6.5t170.5 -4.5q12 8 12 80q0 6 1 15.5t1 19.5t-1 23.5t-1 29.5q-2 35 -3 55.5t-1 34.5q-23 2 -44.5 3t-43.5 1q-25 0 -46.5 -1t-39.5 -3h-41 q-10 2 -17.5 3t-13.5 1q-8 0 -15.5 -1t-17.5 -3h-407l-41 9q-4 0 -6.5 -7.5t-4.5 -7.5v6q-14 0 -14 -10v-2q2 -6 2 -14q0 -6 -2 -6v-78q-2 -35 -2 -64.5v-54.5v-45.5t2 -36.5q2 -29 2 -55.5v-48.5v-45.5t-2 -38.5q2 -4 2 -15q0 -12 -2 -18t-2 -17q0 -12 2 -14 q0 -20 -1 -42.5t-1 -49.5zM10 1673q0 4 29 33l104 102l13 15q18 18 30.5 29.5t18.5 17.5l80 82l77 76q19 14 33 22h2q23 -8 33 -22q27 -25 44.5 -44.5t31.5 -31.5l67 -70q10 -2 11 -10q23 -23 36 -34t17 -15l10 -15l105 -102q29 -25 28 -33q-27 -23 -46 -40t-29 -31l-15 -11 q-33 33 -53.5 55.5t-32.5 36.5l-53 52l-70 67q-41 41 -62.5 61.5t-23.5 24.5q-66 -61 -86 -86l-121 -119q-29 -31 -50 -53t-38 -39l-14 11q-16 25 -76 71z" />
<glyph unicode="&#xcb;" horiz-adv-x="778" d="M2 852q0 27 1 49.5t1 42.5q-2 2 -2 14q0 10 2 17q2 6 2 18q0 10 -2 15q2 18 2 38.5v45.5v49t-2 55q-2 16 -2 36.5v45.5v54.5t2 64.5v78q2 0 2 6q0 8 -2 14v2q0 10 14 10v-6q2 0 4.5 7.5t6.5 7.5l41 -9h407q10 2 17.5 3t15.5 1q6 0 13 -1t18 -3h41q18 2 39.5 3t46.5 1 q23 0 44 -1t44 -3q0 -14 1 -34.5t3 -55.5q0 -16 1 -29.5t1 -23.5t-1 -19.5t-1 -15.5q0 -72 -12 -80q-68 2 -170.5 4t-237.5 7q-31 -16 -31 -52q0 -84 2 -84v2v-73q-2 -4 -2 -13q0 -12 3 -27.5t3 -23.5v-15t-2 -30q0 -25 21 -41h317q16 0 17 -33q-4 -16 -4 -20q0 -12 4 -21 q-2 -14 -2 -36.5v-53.5l6 -22q0 -6 -3 -23.5t-7 -48.5q-4 0 -6.5 1t-6.5 1t-8 -1t-8 -1q-12 -4 -21 -4q-12 0 -29.5 2t-27.5 2h-8q-10 -2 -31 -2q-33 0 -63.5 4t-44.5 4q-29 0 -49.5 -2t-36.5 -4q-4 -31 -6.5 -54.5t-2.5 -39.5q0 -25 2 -33v-248q16 -18 45 -20q4 -2 19 -2 h12t17 2q14 2 25 2h22q14 2 32.5 2h42.5h54.5t66.5 -2q20 0 37 2t31 6h22q17 0 25 -18v-50t-4 -71q-2 -41 -2 -69.5v-51.5v-4h-51t-78 2t-81 2h-61h-196q-6 0 -12.5 1t-16.5 1q-8 0 -18 -1t-21 -1q-12 -2 -21 -2h-20q-20 0 -28 2q-25 -2 -60 -3t-78 -1l-14 4q4 53 4 120.5 v147.5t-1 163t-2 161t-2 145.5t-1 114.5zM23 1604v276l8 10q23 0 53.5 1t65.5 1q37 0 79.5 -1t92.5 -1l4 -10q0 -33 2 -74t4 -90v-24q0 -41 -6 -93q-6 -8 -19 -8h-6l-15 3t-10 1q-2 0 -4 -2h-2q-20 -2 -45.5 -2h-54.5h-65.5t-73.5 2zM420 1612v16q0 29 3 68t7 90 q-10 27 -10 94l6 10h291l8 -235v-19q0 -29 -8 -37h-291z" />
<glyph unicode="&#xcc;" horiz-adv-x="430" d="M-39 1788l6 10l166 94h17l92 -69q8 -6 59 -54q39 -37 53 -55q11 -13 64 -33q-2 2 -33 -71l-174 35l-201 92zM43 1507l6 -1392v-57.5t-4 -57.5l10 -4q43 -6 76 -6q31 0 53 6l97 -4h20q62 0 66 12v918q0 16 -1 43.5t-2.5 56.5t-2.5 56.5t-1 43.5v226v6q0 4 -1 10t-3 16 q0 4 -1 6.5t-1 6.5q0 8 6 18q-14 41 -26 68.5t-23 50.5q-29 -4 -49 -6t-35 -4q-2 0 -9 5t-23 5l-29 -8h-36t-24 4q-57 -10 -63 -19z" />
<glyph unicode="&#xcd;" horiz-adv-x="430" d="M-10 1681q51 20 63 33q8 10 17.5 20.5t21.5 18.5q18 10 74 70l92 69h16l166 -94l6 -10l-49 -51l-200 -92l-174 -35q-31 73 -33 71zM43 1507q6 8 63 19q10 -4 23.5 -4h36.5l29 8q16 0 23 -5t9 -5q14 2 35 4t49 6q10 -23 22.5 -50.5t26.5 -68.5q-6 -10 -6 -18q0 -4 1 -6.5 t1 -6.5q2 -10 3 -16t1 -10v-6v-226q0 -16 1 -43.5t2.5 -56.5t2.5 -56.5t1 -43.5v-918q-4 -12 -66 -12h-20l-97 4q-23 -6 -53 -6q-33 0 -76 6l-10 4q4 29 4 57.5v57.5z" />
<glyph unicode="&#xce;" horiz-adv-x="751" d="M35 1647q0 6 28 34l105 101l12 16q20 16 31.5 28.5t17.5 16.5l82 82l76 78q10 8 19.5 13t13.5 9h4q10 -6 18.5 -12t14.5 -10q25 -27 42 -45.5t31 -32.5l70 -67q10 -6 10 -11q39 -43 54 -49l10 -16l104 -101q29 -25 29 -34q-29 -23 -47.5 -40.5t-30.5 -29.5l-12 -10 q-33 33 -54.5 55.5t-31.5 34.5l-56 51l-67 70q-80 80 -88 84q-33 -31 -53.5 -52.5t-32.5 -31.5l-119 -121q-16 -14 -45 -44t-45 -46l-12 10q-20 27 -78 70zM221 1507l6 -1507h29l-20 -4q39 -6 73 -6q35 0 53 6l97 -4h20q62 0 68 12v918q0 16 -1 43.5t-3 56.5t-3 56.5 t-1 43.5v226v6v10t-2 16l-5 15q0 10 7 16q-14 41 -25.5 68.5t-24.5 50.5q-29 -4 -49 -6t-34 -4q-2 0 -9.5 5t-23.5 5l-29 -8h-36t-23 4q-57 -10 -64 -19z" />
<glyph unicode="&#xcf;" horiz-adv-x="675" d="M23 1604v276l8 10q23 0 53.5 1t65.5 1q37 0 79.5 -1t92.5 -1l4 -10q0 -33 2 -74t4 -90v-24q0 -41 -6 -93q-6 -8 -19 -8h-6l-15 3t-10 1q-2 0 -4 -2h-2q-20 -2 -45.5 -2h-54.5h-65.5t-73.5 2zM221 1507q6 8 64 19q10 -4 23.5 -4h35.5l29 8q16 0 23 -5t10 -5q14 2 34.5 4 t48.5 6q12 -23 23.5 -50.5t26.5 -68.5q-6 -6 -7 -16q0 -2 5 -15q2 -10 2 -16v-10v-6v-226q0 -16 1 -43.5t3 -56.5t3 -56.5t1 -43.5v-918q-6 -12 -68 -12h-20l-97 4q-18 -6 -53 -6t-73 6l-11 4q2 29 2 57.5v57.5zM420 1612v16q0 29 3 68t7 90q-10 27 -10 94l6 10h291l8 -235 v-19q0 -29 -8 -37h-291z" />
<glyph unicode="&#xd0;" horiz-adv-x="954" d="M4 653q4 45 5 82t1 66v51l4 31q23 0 59 -3t58 -3q-4 23 -4 40v27q4 35 6 102.5t2 165.5q0 47 -2 114t-6 153q0 25 12 41h203q14 0 47 -1t68 -1t66.5 -1t47.5 -1q154 -18 242 -149.5t88 -373.5q0 -6 -2 -11t-2 -11q0 -12 4 -23.5t4 -13.5l6 -193v-22q0 -41 -3 -117 t-7 -186q-4 -16 -9 -41t-15 -60q0 -10 -4.5 -38.5t-24 -68.5t-57 -85t-105.5 -88h-4q-10 0 -23.5 -8.5t-17.5 -8.5q-16 -6 -49 -10t-68 -6t-66.5 -4t-47.5 -2h-230q-16 0 -29.5 1t-23.5 3v137q0 141 2 266t4 242l-43 -2h-31q-47 0 -55 10zM436 393q0 -18 2 -26v-19v-20.5 t2 -29.5t7.5 -26.5t17.5 -11.5q10 0 20.5 3t16.5 3h6q33 2 76 90q2 29 4 75t2 106v182q0 47 1 81t3 56v152q-6 8 -6 20q0 6 2 14.5t2 14.5q0 88 -27 135l-35 45q-35 18 -59 18q-16 0 -22.5 -17t-8.5 -38.5t-2 -43v-30.5q2 -20 3 -55t1 -86q0 -23 -1 -48.5t-1 -53.5h17 q6 2 13 2h11q31 0 56 -8q-2 -18 -3.5 -41t-1.5 -50q0 -29 1.5 -60.5t3.5 -68.5q-14 -10 -33 -10h-6h-60v-125q2 -4 4 -14t2 -21q0 -6 -4 -31.5t-4 -62.5z" />
<glyph unicode="&#xd1;" horiz-adv-x="839" d="M29 856v463v188l4 13h317q12 -16 21 -41l14 -45q10 -37 24.5 -88.5t30.5 -122.5q6 -8 9.5 -23.5t6.5 -33t7 -33t8 -21.5q6 -25 18.5 -61.5t28.5 -83.5h2q8 0 21 12l-9 70q-2 98 -5 209.5t-9 238.5q0 23 29 23q16 0 32.5 1t34.5 1q16 0 35 -1t39 -1q4 0 7 -1t7 -1 q20 0 46 8q23 -12 22 -19q0 -25 6 -266v-262q0 -45 1 -82t1 -70t-1 -57.5t-1 -44.5q2 -10 2 -22.5v-26.5v-32.5t-2 -39.5q4 -6 4 -20v-15q-6 -18 -6 -28q0 -4 2 -4q0 -109 6 -146q-6 -29 -6 -86q0 -211 6 -305l-12 -4h-178q-8 -4 -27 -4q-10 0 -24.5 2t-30.5 6 q-10 39 -24.5 95.5t-36.5 133.5q0 20 -76 267q-10 27 -25.5 74.5t-38.5 119.5q0 4 -4 6t-6 2q-4 0 -6 -2q0 -29 -8 -45q8 -8 8 -110v-537q-6 -6 -11.5 -10t-15.5 -4q-14 0 -26 6q-53 0 -90 -2t-66 -6q-20 0 -51 16l6 211q4 20 4 43q0 20 -3 47t-7 62q0 4 -1 6t-1 6 q0 10 2 25.5t6 33.5q-4 14 -4 32.5v47.5v2v49.5t-2 34.5zM45 1743q0 16 1 31.5t3 31.5q0 12 12 25q94 115 185 115h-4q0 -2 71 -13q6 0 101 -69l43 -31q80 -55 104 -55q35 0 83 37.5t126 111.5l-18 4v-166l-11 -16q-23 -31 -86 -76q-57 -39 -100 -39q-18 0 -36.5 5.5 t-39.5 15.5q-10 10 -29.5 22.5t-46.5 28.5q-2 2 -13 8t-28 21q-10 10 -25 23.5t-38 27.5q-43 6 -61 6q-74 0 -136 -68q-47 -51 -53 -51q-2 18 -3 35.5t-1 34.5z" />
<glyph unicode="&#xd2;" horiz-adv-x="925" d="M16 823q0 -10 4.5 -24.5t4.5 -18.5q0 -12 -2 -14q4 -47 6 -84t2 -68v-32l4 -41v-80q27 -106 38 -160.5t13 -58.5q16 -25 31.5 -50.5t32.5 -54.5q10 -16 21 -33.5t26 -33.5q47 -35 71.5 -50.5t26.5 -17.5q55 -31 113 -31h104l31 6q125 37 188 138q57 72 70 110l28 86 q33 106 45 230l9 86q0 14 1 29.5t1 33.5v40t-2 46q-4 37 -4 63.5t-2 45.5q-2 23 -3 37q-4 10 -6 27.5t-2 45.5q-4 47 -14 72q-31 166 -39 178q-51 121 -76 141q-14 27 -51 62q-10 8 -25.5 20.5t-37.5 28.5q-10 0 -30 11.5t-32 11.5h-2q-49 18 -104 18q-23 0 -47.5 -4 t-51.5 -8q-10 -6 -22 -6q-37 -10 -73 -34t-75 -63l-36 -53q-80 -125 -97 -266q-18 -18 -18 -68q-2 -31 -2 -50t-2 -25q0 -8 1 -15.5t1 -15.5q0 -23 -4 -48.5t-11 -52.5q0 -2 -1 -3t-1 -3zM166 1788l4 10l166 94h18l92 -69q6 -8 60 -54q39 -37 53 -55q9 -13 64 -33 q-2 2 -33 -71l-174 35l-201 92zM342 920.5v83.5v64.5t4 43.5q4 29 11.5 55.5t17.5 55.5q35 29 69 28q14 0 23 -2q43 -33 59 -57q8 -39 15.5 -94.5t11.5 -130.5q2 -33 4 -58.5t2 -48.5q0 -42 -6 -67q0 -104 -1 -198.5t-3 -178.5q-6 -37 -12.5 -62.5t-10.5 -42.5 q-29 -59 -59 -59q-63 0 -92 53q-20 43 -23 109q-2 27 -2 53.5t-4 54.5v248q-2 8 -2 15.5v13.5q0 14 2 20q-4 55 -4 101.5z" />
<glyph unicode="&#xd3;" horiz-adv-x="925" d="M16 823q0 2 1 3t1 3q6 27 10.5 52.5t4.5 48.5q0 8 -1 15t-1 16q2 6 2 25.5t2 49.5q0 49 18 68q16 141 97 266l36 53q39 39 75 62.5t73 34.5q12 0 22 6q27 4 51.5 8t47.5 4q55 0 104 -18h2q12 0 31.5 -11.5t30.5 -11.5q23 -16 38 -28.5t25 -20.5q37 -35 51 -62 q25 -20 76 -141q8 -12 39 -178q10 -25 14 -72q0 -29 2 -46t6 -27q0 -14 3 -37q2 -18 2 -45t4 -64q2 -25 2 -46v-40q0 -18 -1 -33.5t-1 -29.5l-9 -86q-12 -123 -45 -230l-28 -86q-12 -39 -70 -110q-63 -100 -188 -138l-31 -6h-104q-57 0 -113 31q-2 2 -26.5 17.5t-71.5 50.5 q-14 16 -25.5 33.5t-21.5 33.5q-16 29 -32 54.5t-32 50.5q-2 4 -13.5 58t-37.5 161v80l-4 41v32q0 31 -2 68t-6 84q2 2 2 14q0 4 -4.5 18.5t-4.5 24.5zM246 1681q51 20 63 33q8 10 17.5 20.5t19.5 18.5q8 4 26.5 21.5t47.5 48.5l92 69h18l166 -94l4 -10l-47 -51l-202 -92 l-172 -35q-16 35 -24.5 54t-8.5 17zM342 920.5q0 -46.5 4 -101.5q-2 -6 -2 -20v-13.5t2 -15.5v-248q4 -29 4 -55.5t2 -52.5q2 -66 23 -109q29 -53 92 -53q31 0 59 59l10.5 42t12.5 63q2 84 3 178.5t1 198.5q6 25 6 67q0 23 -2 48.5t-4 58.5q-4 76 -11 131t-16 94 q-16 25 -59 57q-8 2 -23 2q-35 0 -69 -28q-10 -29 -17.5 -55.5t-11.5 -55.5q-4 -16 -4 -44v-64v-83.5z" />
<glyph unicode="&#xd4;" horiz-adv-x="925" d="M16 823q0 -10 4.5 -24.5t4.5 -18.5q0 -12 -2 -14q4 -47 6 -84t2 -68v-32l4 -41v-80q27 -106 38 -160.5t13 -58.5q16 -25 31.5 -50.5t32.5 -54.5q10 -16 21 -33.5t26 -33.5q47 -35 71.5 -50.5t26.5 -17.5q55 -31 113 -31h104l31 6q125 37 188 138q57 72 70 110l28 86 q33 106 45 230l9 86q0 14 1 29.5t1 33.5v40t-2 46q-4 37 -4 63.5t-2 45.5q-2 23 -3 37q-4 10 -6 27.5t-2 45.5q-4 47 -14 72q-31 166 -39 178q-51 121 -76 141q-14 27 -51 62q-10 8 -25.5 20.5t-37.5 28.5q-10 0 -30 11.5t-32 11.5h-2q-49 18 -104 18q-23 0 -47.5 -4 t-51.5 -8q-10 -6 -22 -6q-37 -10 -73 -34t-75 -63l-36 -53q-80 -125 -97 -266q-18 -18 -18 -68q-2 -31 -2 -50t-2 -25q0 -8 1 -15.5t1 -15.5q0 -23 -4 -48.5t-11 -52.5q0 -2 -1 -3t-1 -3zM61 1673q0 4 29 33l105 102l12 15q18 18 30.5 29.5t18.5 17.5l80 82q27 27 45 44 t30.5 28.5t20.5 16.5t14 9h3q23 -8 32 -22q27 -25 44.5 -44.5t29.5 -31.5l70 -70q10 -2 10 -10q23 -23 36 -34t17 -15l10 -15l105 -102q29 -25 28 -33q-27 -23 -46 -40t-29 -31l-15 -11q-33 33 -53 55.5t-33 36.5l-53 52l-70 67q-41 41 -62 61.5t-24 24.5q-12 -12 -25 -25.5 t-26.5 -25.5t-23 -22.5t-11.5 -12.5l-120 -119q-16 -16 -45 -45.5t-45 -46.5l-13 11q-16 25 -76 71zM342 920.5v83.5v64.5t4 43.5q4 29 11.5 55.5t17.5 55.5q35 29 69 28q14 0 23 -2q43 -33 59 -57q8 -39 15.5 -94.5t11.5 -130.5q2 -33 4 -58.5t2 -48.5q0 -42 -6 -67 q0 -104 -1 -198.5t-3 -178.5q-6 -37 -12.5 -62.5t-10.5 -42.5q-29 -59 -59 -59q-63 0 -92 53q-20 43 -23 109q-2 27 -2 53.5t-4 54.5v248q-2 8 -2 15.5v13.5q0 14 2 20q-4 55 -4 101.5z" />
<glyph unicode="&#xd5;" horiz-adv-x="925" d="M16 823q0 2 1 3t1 3q6 27 10.5 52.5t4.5 48.5q0 8 -1 15t-1 16q2 6 2 25.5t2 49.5q0 49 18 68q16 141 97 266l36 53q39 39 75 62.5t73 34.5q12 0 22 6q27 4 51.5 8t47.5 4q55 0 104 -18h2q12 0 31.5 -11.5t30.5 -11.5q23 -16 38 -28.5t25 -20.5q37 -35 51 -62 q25 -20 76 -141q8 -12 39 -178q10 -25 14 -72q0 -29 2 -46t6 -27q0 -14 3 -37q2 -18 2 -45t4 -64q2 -25 2 -46v-40q0 -18 -1 -33.5t-1 -29.5l-9 -86q-12 -123 -45 -230l-28 -86q-12 -39 -70 -110q-63 -100 -188 -138l-31 -6h-104q-57 0 -113 31q-2 2 -26.5 17.5t-71.5 50.5 q-14 16 -25.5 33.5t-21.5 33.5q-16 29 -32 54.5t-32 50.5q-2 4 -13.5 58t-37.5 161v80l-4 41v32q0 31 -2 68t-6 84q2 2 2 14q0 4 -4.5 18.5t-4.5 24.5zM96 1743q0 16 1 31.5t3 31.5q0 12 13 25q94 115 182 115h-4q0 -4 74 -13q6 0 100 -69l43 -31q80 -55 104 -55 q66 0 185 149l6 4v-166l-10 -16q-23 -31 -86 -76q-57 -39 -101 -39q-35 0 -76 21q-10 10 -29.5 22.5t-45.5 28.5q-4 2 -14.5 8t-26.5 21q-10 10 -25.5 23.5t-38.5 27.5q-43 6 -61 6q-74 0 -135 -68q-47 -51 -54 -51q-2 18 -3 35.5t-1 34.5zM342 920.5q0 -46.5 4 -101.5 q-2 -6 -2 -20v-13.5t2 -15.5v-248q4 -29 4 -55.5t2 -52.5q2 -66 23 -109q29 -53 92 -53q31 0 59 59l10.5 42t12.5 63q2 84 3 178.5t1 198.5q6 25 6 67q0 23 -2 48.5t-4 58.5q-4 76 -11 131t-16 94q-16 25 -59 57q-8 2 -23 2q-35 0 -69 -28q-10 -29 -17.5 -55.5t-11.5 -55.5 q-4 -16 -4 -44v-64v-83.5z" />
<glyph unicode="&#xd6;" horiz-adv-x="925" d="M16 823q0 2 1 3t1 3q6 27 10.5 52.5t4.5 48.5q0 8 -1 15t-1 16q2 6 2 25.5t2 49.5q0 49 18 68q16 141 97 266l36 53q39 39 75 62.5t73 34.5q12 0 22 6q27 4 51.5 8t47.5 4q55 0 104 -18h2q12 0 31.5 -11.5t30.5 -11.5q23 -16 38 -28.5t25 -20.5q37 -35 51 -62 q25 -20 76 -141q8 -12 39 -178q10 -25 14 -72q0 -29 2 -46t6 -27q0 -14 3 -37q2 -18 2 -45t4 -64q2 -25 2 -46v-40q0 -18 -1 -33.5t-1 -29.5l-9 -86q-12 -123 -45 -230l-28 -86q-12 -39 -70 -110q-63 -100 -188 -138l-31 -6h-104q-57 0 -113 31q-2 2 -26.5 17.5t-71.5 50.5 q-14 16 -25.5 33.5t-21.5 33.5q-16 29 -32 54.5t-32 50.5q-2 4 -13.5 58t-37.5 161v80l-4 41v32q0 31 -2 68t-6 84q2 2 2 14q0 4 -4.5 18.5t-4.5 24.5zM100 1604v276l6 10q23 0 53.5 1t67.5 1t79 -1t91 -1l6 -10q0 -33 1.5 -74t3.5 -90v-26q0 -18 -1 -41t-4 -50 q-8 -8 -20 -8h-6q-20 4 -25 4q-2 0 -3 -1t-3 -1q-20 -2 -46 -2h-54h-66t-74 2zM342 920.5q0 -46.5 4 -101.5q-2 -6 -2 -20v-13.5t2 -15.5v-248q4 -29 4 -55.5t2 -52.5q2 -66 23 -109q29 -53 92 -53q31 0 59 59l10.5 42t12.5 63q2 84 3 178.5t1 198.5q6 25 6 67q0 23 -2 48.5 t-4 58.5q-4 76 -11 131t-16 94q-16 25 -59 57q-8 2 -23 2q-35 0 -69 -28q-10 -29 -17.5 -55.5t-11.5 -55.5q-4 -16 -4 -44v-64v-83.5zM498 1612v20q0 29 3 67t7 87q-6 12 -8 36.5t-2 57.5l4 10h291l8 -235v-19q0 -29 -8 -37h-291z" />
<glyph unicode="&#xd7;" horiz-adv-x="1015" d="M82 520v6q0 18 18 35q10 8 17.5 15.5t17.5 15.5l199 196l22 31l-22 31l-199 199q-10 10 -20.5 17t-14.5 11q-18 16 -18 33v6q111 92 149 139l27 17q70 -72 112 -118t58 -62l100 -103v-2l84 86q53 53 88 90t58 60l24 28q20 20 39 21q53 -53 92 -91t68 -65q0 -14 -20 -33 q-25 -18 -33 -26q-78 -78 -135.5 -137.5t-96.5 -100.5q78 -78 135.5 -136t96.5 -99q2 -4 10 -11.5t17.5 -16.5t17.5 -18.5t8 -15.5l-93 -93t-67 -64q-25 14 -40 27.5t-23 23.5l-90 90t-56 57l-59 58l-25 30l-100 -104q-66 -72 -110 -116t-60 -66l-27 20q-20 25 -58 57.5 t-91 77.5z" />
<glyph unicode="&#xd8;" horiz-adv-x="935" d="M-35 190q20 35 43 70t47 76q-18 86 -24 129v78l-6 39q-8 141 -13 241q6 27 10.5 51.5t4.5 47.5q0 8 -1 15t-1 15q6 12 6 70q0 49 14 70q10 68 33.5 132t64.5 126l33 51q39 35 75 59.5t71 34.5q6 0 11 1t11 3q49 12 92 12q27 0 52.5 -3t50.5 -13h2q12 0 30.5 -11t28.5 -11 q74 -53 100 -91q14 25 25.5 41.5t15.5 22.5q57 -18 78 -45q55 -23 74 -35q8 -16 10 -25q-66 -106 -96 -137l-8 -16q18 -98 24 -135q12 -51 17.5 -87t5.5 -53l6 -143q0 -23 1 -42t1 -38q0 -16 -1 -32.5t-1 -30.5l-6 -84q-4 -53 -15.5 -108.5t-29.5 -115.5l-29 -83 q-4 -6 -11 -20.5t-15.5 -31t-17.5 -32t-21 -21.5q-74 -102 -185 -135l-26 -6h-105q-55 2 -98 22q-74 45 -107 72q-12 16 -21 30.5t-15 24.5l-27 -45q-4 -4 -10 -4q4 0 -78 43q-20 4 -25 10q-45 25 -45 47zM326 989q0 -74 6 -178v-41l74 123q41 72 70.5 119t45.5 75 q-2 29 -5 50.5t-11 38.5q-37 49 -57 55q-8 2 -23 2q-37 0 -66 -29q-12 -37 -19 -63.5t-9 -44.5q-6 -37 -6 -107zM336 440q6 -178 113 -178q30 0 57 57q8 35 13 59.5t9 41.5q2 82 3 166t1 174l-96 -156q-49 -80 -53 -84z" />
<glyph unicode="&#xd9;" horiz-adv-x="860" d="M49 467q0 -23 2 -57.5t2 -57.5q0 -45 4 -77.5t9 -55.5q4 -2 7 -23.5t17 -29.5q49 -113 189 -170q68 -29 139 -29q33 0 65.5 5t65.5 16q12 6 21.5 8t13.5 4q23 6 47 22.5t55 40.5q31 43 54.5 73t39.5 52q16 70 17 261v577v106.5t2 122.5q2 66 3 105t1 55q0 82 -6 92h-17 q-25 8 -43 9h-10q-31 -4 -58.5 -6.5t-54.5 -2.5h-30h-82h-8q-8 0 -9 -10v2q2 0 2 -24q2 -12 2 -31v-43v-4v-42.5t3 -31.5q-2 -16 -3.5 -45t-1.5 -70q0 -80 5 -96q-6 -29 -7 -45q0 -6 1 -10t1 -8q-2 -16 -2 -30.5v-29.5q0 -31 2 -41v-395q0 -57 1 -92t4 -47l-5 -105 q-2 -51 -53 -67q-12 0 -20 2t-13 4q-47 23 -47 92v608q0 20 -1 46t-3 49.5t-3 43t-1 25.5q6 41 10 71.5t4 53.5v12q-6 74 -6 125q0 61 6 127l-6 15q-25 -4 -47 -4.5t-39 -0.5h-31.5t-27.5 5h-96q-49 0 -60 -15v-397q0 -49 -1 -131t-3 -195v-311zM166 1788l4 10l166 94h18 l92 -69q6 -8 60 -54q39 -37 53 -55q9 -13 64 -33q-2 2 -33 -71l-174 35l-201 92z" />
<glyph unicode="&#xda;" horiz-adv-x="860" d="M49 467v311q2 113 3 195t1 131v397q10 14 60 15h96q12 -4 27.5 -4.5t31.5 -0.5h39t47 5l6 -15q-6 -66 -6 -127q0 -51 6 -125v-12q0 -23 -4 -53.5t-10 -71.5q0 -6 1 -25.5t3 -43t3 -49t1 -46.5v-608q0 -70 47 -92q4 -2 12.5 -4t20.5 -2q51 16 53 67l5 105q-2 12 -3.5 47 t-1.5 92v395q-2 10 -2 41v28.5t2 31.5q0 4 -1 8t-1 10q0 16 7 45q-4 16 -5 96q0 41 1 70t4 45q-2 14 -2.5 31.5t-0.5 42.5v4v43t-2 31q0 25 -2 24v-2q0 10 9 10h8h82h30q27 0 54.5 2t58.5 7h10q18 0 43 -9h17q6 -10 6 -92q0 -16 -1 -55t-3 -105t-2 -123v-106v-577 q0 -190 -17 -261q-16 -23 -39.5 -52.5t-54.5 -72.5q-31 -25 -55.5 -41t-46.5 -22q-4 -2 -13.5 -4t-21.5 -8q-33 -10 -65.5 -15.5t-65.5 -5.5q-72 0 -139 29q-139 57 -189 170q-14 8 -17 29.5t-7 23.5q-4 23 -8.5 55.5t-4.5 77.5q0 23 -2 57.5t-2 57.5zM246 1681q51 20 63 33 q8 10 17.5 20.5t19.5 18.5q8 4 26.5 21.5t47.5 48.5l92 69h18l166 -94l4 -10l-47 -51l-202 -92l-172 -35q-16 35 -24.5 54t-8.5 17z" />
<glyph unicode="&#xdb;" horiz-adv-x="833" d="M10 1673q0 4 29 33l104 102l13 15q18 18 30.5 29.5t18.5 17.5l80 82l77 76q19 14 33 22h2q23 -8 33 -22q27 -25 44.5 -44.5t31.5 -31.5l67 -70q10 -2 11 -10q23 -23 36 -34t17 -15l10 -15l105 -102q29 -25 28 -33q-27 -23 -46 -40t-29 -31l-15 -11q-33 33 -53.5 55.5 t-32.5 36.5l-53 52l-70 67q-41 41 -62.5 61.5t-23.5 24.5l-25.5 -25.5t-26.5 -25.5t-22.5 -22.5t-11.5 -12.5l-121 -119q-16 -16 -43.5 -45.5t-44.5 -46.5l-14 11q-16 25 -76 71zM23 467q0 -23 3 -57.5t3 -57.5q0 -88 12 -133q2 -2 5 -23.5t17 -29.5q49 -113 189 -170 q68 -29 141 -29q33 0 64.5 5t64.5 16q14 6 23.5 8t13.5 4q37 12 103 63q29 43 52 73t42 52q8 33 11 97.5t3 163.5v577v106.5t2 122.5q6 129 6 160q0 84 -8 92h-14q-25 8 -45 9h-11q-31 -4 -58.5 -6.5t-51.5 -2.5h-31h-82h-8q-10 0 -10 -10v2q2 0 2 -24q4 -12 4 -31v-43v-4 v-42.5t2 -31.5q-2 -16 -4 -45t-2 -70t2 -65.5t4 -30.5q-8 -25 -8 -47q0 -4 1 -8t1 -8q-2 -16 -2 -30.5v-29.5q0 -31 2 -41v-395q0 -57 2 -92t4 -47l-6 -105q-2 -51 -53 -67q-10 0 -18.5 2t-14.5 4q-45 20 -45 92v608q0 20 -1 46t-3 49.5t-3 43t-1 25.5q12 76 12 121v16 q-2 37 -3 69t-1 56q0 33 1 63.5t3 63.5l-4 15q-27 -4 -48.5 -4.5t-39.5 -0.5h-31.5t-26.5 5h-98q-51 0 -57 -15v-397q0 -49 -2 -131t-4 -195v-311z" />
<glyph unicode="&#xdc;" horiz-adv-x="860" d="M49 467v311q2 113 3 195t1 131v397q10 14 60 15h96q12 -4 27.5 -4.5t31.5 -0.5h39t47 5l6 -15q-6 -66 -6 -127q0 -51 6 -125v-12q0 -23 -4 -53.5t-10 -71.5q0 -6 1 -25.5t3 -43t3 -49t1 -46.5v-608q0 -70 47 -92q4 -2 12.5 -4t20.5 -2q51 16 53 67l5 105q-2 12 -3.5 47 t-1.5 92v395q-2 10 -2 41v28.5t2 31.5q0 4 -1 8t-1 10q0 16 7 45q-4 16 -5 96q0 41 1 70t4 45q-2 14 -2.5 31.5t-0.5 42.5v4v43t-2 31q0 25 -2 24v-2q0 10 9 10h8h82h30q27 0 54.5 2t58.5 7h10q18 0 43 -9h17q6 -10 6 -92q0 -16 -1 -55t-3 -105t-2 -123v-106v-577 q0 -190 -17 -261q-16 -23 -39.5 -52.5t-54.5 -72.5q-31 -25 -55.5 -41t-46.5 -22q-4 -2 -13.5 -4t-21.5 -8q-33 -10 -65.5 -15.5t-65.5 -5.5q-72 0 -139 29q-139 57 -189 170q-14 8 -17 29.5t-7 23.5q-4 23 -8.5 55.5t-4.5 77.5q0 23 -2 57.5t-2 57.5zM74 1604v276l8 10 q23 0 53.5 1t65.5 1q37 0 80 -1t92 -1l4 -10q0 -33 2 -74t4 -90v-24q0 -41 -6 -93q-6 -8 -19 -8h-6l-15 3t-9 1q-2 0 -4 -2h-2q-20 -2 -46 -2h-55h-65.5t-73.5 2zM471 1612v16q0 29 3 68t7 90q-10 27 -10 94l6 10h291l8 -235v-19q0 -29 -8 -37h-291z" />
<glyph unicode="&#xdd;" horiz-adv-x="770" d="M20 1505q0 16 15 17q41 0 101.5 -1t142.5 -3q2 0 11 2t11 2v-13l4 9q6 -23 17.5 -54.5t23.5 -72.5q0 -16 10 -54q6 -23 8.5 -37t6.5 -20q4 -31 17 -74t36 -100q2 -2 6 -2q6 0 8 2q12 29 31 100q8 29 15.5 63t13.5 74q2 6 6 21.5t8 40.5q6 18 9 32.5t5 27t6.5 24.5 t16.5 29h31q41 0 96 3t127 7q12 0 22 -10l-11 -33t-17 -49q-14 -41 -45 -154t-80 -301q-10 -33 -23.5 -78t-36.5 -104q-23 -66 -35 -117t-12 -92v-225v-160q2 -14 2 -26.5v-24.5v-24.5t-2 -23.5q6 -25 6 -55q0 -29 -6 -53h-104q-100 0 -156 -6q-45 0 -45 22q0 90 8 121 q-8 39 -8 123q0 41 -1 70.5t-3 48.5v258q-10 23 -20.5 56.5t-20.5 80.5q-4 10 -10 29.5t-15 52.5q-12 55 -19 89t-7 44q-14 31 -27.5 75t-23.5 103q-16 66 -27.5 110t-19.5 68q-12 41 -23.5 81t-22.5 81zM219 1681q51 20 64 33q8 10 17 20.5t22 18.5q18 10 73 70l92 69h19 l166 -94l4 -10l-49 -51l-201 -92l-174 -35q-16 35 -24.5 54t-8.5 17z" />
<glyph unicode="&#xde;" horiz-adv-x="780" d="M6 1456q0 27 17 37l20 6h162h98l8 -20q0 -43 -2 -79t-6 -61q-2 -12 -3 -27.5t-1 -33.5q0 -16 1 -37.5t3 -44.5q14 -20 23 -20q8 0 10 2q57 70 145 69q27 0 49 -6q39 -12 69 -38.5t52 -61.5q18 -14 33 -58q10 -25 16.5 -41t10.5 -22q-2 -2 -2 -10q0 -16 8 -37t8 -29 q2 -25 5 -61.5t7 -89.5q2 -25 2 -46.5v-39.5v-36t-2 -30q4 -10 6 -26.5t2 -39.5q-4 -4 -4 -24v-29q0 -18 -4 -22v-13q0 -27 -5 -62.5t-15 -82.5q-16 -135 -101 -229q-72 -59 -135 -60q-10 0 -16 2q-53 10 -133 66h-2q-18 0 -21 -92q0 -37 -10 -37h-268q-20 0 -21 18 q0 223 8 242q-6 25 -6 43q0 20 6 39q-4 8 -4 18v23v45v22.5t-4 18.5q0 49 1 123.5t3 177.5q4 53 4 128v173v303l-8 18v9v21t-2 30q-2 4 -2 12zM303 541q0 -63 8 -111q0 -18 5.5 -36.5t15.5 -39.5q6 0 24 -12q4 -4 15 -4q10 0 14 4q39 0 53 39q6 41 8.5 96t2.5 127v151.5 t2 73.5l-21 109q-39 41 -53 41l-12 -4q-41 0 -54 -49l-8 -344v-41z" />
<glyph unicode="&#xdf;" horiz-adv-x="851" d="M10 -12q6 115 8 290t2 410v152q0 348 -6 563q-2 23 -2 41v33q0 27 2 30q23 2 40.5 3t35.5 1q16 0 27.5 -1t21.5 -3q16 4 27.5 6.5t21.5 2.5l13 -5q20 0 33.5 2.5t23.5 4.5q8 0 16 -11l21 11q27 2 51.5 3t46.5 1q41 0 78 -3t72 -14l6 -8q76 -12 149 -70q16 -27 28.5 -47 t18.5 -32q0 -6 6.5 -18.5t12.5 -26t12 -25.5t6 -21q0 -25 2 -48t7 -46q0 -98 -13.5 -163.5t-38.5 -102.5q-35 -49 -63 -74q-10 -18 -17.5 -27.5t-11.5 -13.5l6 -4q23 -16 43.5 -34.5t24.5 -34.5q35 -33 55.5 -88.5t32.5 -135.5q-4 -12 -6 -20t-2 -14q0 -2 1 -3.5t1 -3.5 q2 -12 2 -21v-20q0 -20 -2 -28l-23 -115q-35 -86 -41 -94q-35 -104 -155 -166q-8 -8 -127 -14q-55 -4 -91 -6.5t-53 -2.5q-20 0 -20 58q0 31 6 78q2 31 3 49t1 26q2 31 8 31l2 -2q16 -6 30.5 -8t31.5 -2q45 0 94 31l23 32q6 27 6 97q0 10 1 23t3 30q2 10 2 17v14q0 14 -2 20 q-4 35 -5 61.5t-5 42.5q-20 66 -68 82q-23 6 -115 7q-16 10 -16 32v9q2 18 6 32q2 8 2 13v-2q-2 8 -2 20q0 14 2 20q-2 14 -2 26.5v29.5v33q0 16 5 28.5t26 12.5q10 0 28.5 -6.5t28.5 -6.5q45 0 68 53q2 2 6 25t14 66q6 86 6 133q0 29 -2 37q-18 78 -129 77q-18 0 -36.5 -2 t-41.5 -4v-688q0 -92 -2 -102l2 -512q0 -12 -14 -13h-119q-10 -4 -17 -6t-13 -2q-2 0 -3.5 1t-3.5 1q-78 0 -92 19z" />
<glyph unicode="&#xe0;" horiz-adv-x="720" d="M55 299q0 -25 2 -48.5t6 -49.5q0 -37 27 -90q25 -59 49 -78q27 -18 45.5 -29.5t34.5 -15.5q8 -2 23 -2q82 0 145 53q8 4 14 4t18.5 -15.5t18.5 -17.5q43 -2 75 -4t52 -2q2 -2 4 -2q4 0 11 6h4q6 0 10 -4q16 2 29.5 2h25.5h21.5t19.5 -2q6 6 8.5 12.5t6.5 12.5v2 q0 6 -4.5 14t-8.5 16q-6 8 -10 19q-25 43 -25 172v29q2 18 2 33.5v29.5v25.5t-2 21.5q0 23 -1 51.5t-1 63.5q0 68 2 157t7 199q-4 49 -26 91t-63 77q-88 53 -163 53q-8 0 -14.5 -1t-14.5 -1q-51 -6 -83 -11t-44 -11q-84 -39 -139 -146q-18 -41 -29.5 -68.5t-11.5 -43.5v-2 q-4 -23 -8.5 -43.5t-4.5 -36.5q25 -12 31 -12q16 0 41 1t60 3q16 2 28.5 2h24.5h21.5t19.5 -2q14 6 20 26q0 4 1 7.5t1 7.5t-1 9t-1 11q-4 14 -4 22.5v12.5q6 2 8 33q8 31 22.5 38t24.5 7q8 0 15.5 -2t11.5 -11.5t7 -29t3 -54.5q0 -8 2 -24t4 -45v-14q0 -35 -16 -50 q-84 -6 -172 -59q-160 -70 -160 -297zM115 1483l6 10l164 94h18l92 -69q6 -8 60 -54q41 -37 53 -57q10 -8 63 -33q-4 0 -32 -71l-174 36l-201 93zM311 285v100q10 23 16.5 38t8.5 26q14 23 25.5 34t21.5 17q16 0 23 -41v-156q0 -6 -4.5 -21.5t-14.5 -41.5q-4 -4 -51 -4 q-25 14 -25 49z" />
<glyph unicode="&#xe1;" horiz-adv-x="720" d="M55 299q0 227 160 297q88 53 172 59q16 14 16 50v14q-2 29 -4 45t-2 24q0 35 -3 54.5t-7 29t-11 11.5t-16 2q-10 0 -24 -7.5t-23 -37.5q-2 -31 -8 -33v-12.5t4 -22.5q0 -6 1 -11t1 -9t-1 -7.5t-1 -7.5q-6 -20 -20 -26q-10 2 -19.5 2h-21.5h-24.5t-28.5 -2 q-35 -2 -59.5 -3t-41.5 -1q-6 0 -31 12q0 16 4.5 36.5t8.5 43.5v2q0 16 11 43.5t30 68.5q55 106 139 146q12 6 44 11t83 11q8 0 14 1t15 1q76 0 163 -53q41 -35 62.5 -77t26.5 -91q-4 -111 -6.5 -200t-2.5 -156q0 -35 1 -63.5t1 -51.5q2 -10 2 -21.5v-25.5v-29.5t-2 -33.5 v-29q0 -129 25 -172q4 -10 10 -19q4 -8 8.5 -16t4.5 -14v-2q-4 -6 -6.5 -12.5t-8.5 -12.5q-10 2 -19 2h-22h-25.5t-29.5 -2q-4 4 -10 4h-4q-6 -6 -11 -6q-2 0 -4 2q-20 0 -52 2t-75 4q-6 2 -18 17.5t-19 15.5q-6 0 -14 -4q-63 -53 -145 -53q-14 0 -23 2q-16 4 -34.5 15 t-45.5 30q-25 18 -49 78q-27 53 -27 90q-4 27 -6 50t-2 48zM117 1374q55 25 63 33q8 12 18.5 21.5t20.5 17.5q8 6 26.5 23.5t47.5 48.5l92 69h18l166 -94l4 -10l-47 -51l-202 -93l-174 -36zM311 285q0 -35 25 -49q47 0 51 4q10 27 14.5 42t4.5 21v156q-6 41 -23 41 q-10 -6 -21.5 -17.5t-25.5 -33.5q-2 -10 -8 -25.5t-17 -38.5v-100z" />
<glyph unicode="&#xe2;" horiz-adv-x="765" d="M0 1370q0 4 29 33l104 102l12 15q23 20 37.5 34.5l24.5 24.5l67 68q29 27 47.5 44t29.5 28.5t19.5 17.5t14.5 10q14 -6 21.5 -13.5l11.5 -11.5q25 -27 44 -44t34 -31l67 -68q4 -2 6 -5t4 -5q43 -43 52 -49l12 -15l104 -102q29 -29 29 -33q-59 -47 -76 -72l-12 -10 q-29 31 -51.5 53.5l-38.5 38.5l-51 52l-70 67q-41 41 -62.5 61.5t-23.5 22.5q-33 -31 -54.5 -51.5t-31.5 -32.5l-70 -67l-51 -52q-31 -31 -53.5 -53t-34.5 -39l-14 10q-16 25 -76 72zM55 299q0 -25 2 -48.5t6 -49.5q0 -37 27 -90q25 -59 49 -78q27 -18 45.5 -29.5 t34.5 -15.5q8 -2 23 -2q82 0 145 53q8 4 14 4t18.5 -15.5t18.5 -17.5q43 -2 75 -4t52 -2q2 -2 4 -2q4 0 11 6h4q6 0 10 -4q16 2 29.5 2h25.5h21.5t19.5 -2q6 6 8.5 12.5t6.5 12.5v2q0 6 -4.5 14t-8.5 16q-6 8 -10 19q-25 43 -25 172v29q2 18 2 33.5v29.5v25.5t-2 21.5 q0 23 -1 51.5t-1 63.5q0 68 2 157t7 199q-4 49 -26 91t-63 77q-88 53 -163 53q-8 0 -14.5 -1t-14.5 -1q-51 -6 -83 -11t-44 -11q-84 -39 -139 -146q-18 -41 -29.5 -68.5t-11.5 -43.5v-2q-4 -23 -8.5 -43.5t-4.5 -36.5q25 -12 31 -12q16 0 41 1t60 3q16 2 28.5 2h24.5h21.5 t19.5 -2q14 6 20 26q0 4 1 7.5t1 7.5t-1 9t-1 11q-4 14 -4 22.5v12.5q6 2 8 33q8 31 22.5 38t24.5 7q8 0 15.5 -2t11.5 -11.5t7 -29t3 -54.5q0 -8 2 -24t4 -45v-14q0 -35 -16 -50q-84 -6 -172 -59q-160 -70 -160 -297zM311 285v100q10 23 16.5 38t8.5 26q14 23 25.5 34 t21.5 17q16 0 23 -41v-156q0 -6 -4.5 -21.5t-14.5 -41.5q-4 -4 -51 -4q-25 14 -25 49z" />
<glyph unicode="&#xe3;" horiz-adv-x="731" d="M-4 1350.5v33.5v32t2 32q0 14 12 27q96 115 185 114h-5q0 -6 72 -12q2 0 100 -70l44 -30q76 -55 104 -56q66 0 184 150l6 2v-166l-10 -14q-27 -37 -86 -76q-57 -39 -98 -39q-20 0 -38.5 5t-39.5 15q-10 10 -29.5 22.5t-46.5 29.5q-2 2 -13 8t-28 18q-23 29 -63 51 q-39 8 -62 9q-74 0 -135 -70q-47 -49 -53 -49q-2 16 -2 33.5zM55 299q0 227 160 297q88 53 172 59q16 14 16 50v14q-2 29 -4 45t-2 24q0 35 -3 54.5t-7 29t-11 11.5t-16 2q-10 0 -24 -7.5t-23 -37.5q-2 -31 -8 -33v-12.5t4 -22.5q0 -6 1 -11t1 -9t-1 -7.5t-1 -7.5 q-6 -20 -20 -26q-10 2 -19.5 2h-21.5h-24.5t-28.5 -2q-35 -2 -59.5 -3t-41.5 -1q-6 0 -31 12q0 16 4.5 36.5t8.5 43.5v2q0 16 11 43.5t30 68.5q55 106 139 146q12 6 44 11t83 11q8 0 14 1t15 1q76 0 163 -53q41 -35 62.5 -77t26.5 -91q-4 -111 -6.5 -200t-2.5 -156 q0 -35 1 -63.5t1 -51.5q2 -10 2 -21.5v-25.5v-29.5t-2 -33.5v-29q0 -129 25 -172q4 -10 10 -19q4 -8 8.5 -16t4.5 -14v-2q-4 -6 -6.5 -12.5t-8.5 -12.5q-10 2 -19 2h-22h-25.5t-29.5 -2q-4 4 -10 4h-4q-6 -6 -11 -6q-2 0 -4 2q-20 0 -52 2t-75 4q-6 2 -18 17.5t-19 15.5 q-6 0 -14 -4q-63 -53 -145 -53q-14 0 -23 2q-16 4 -34.5 15t-45.5 30q-25 18 -49 78q-27 53 -27 90q-4 27 -6 50t-2 48zM311 285q0 -35 25 -49q47 0 51 4q10 27 14.5 42t4.5 21v156q-6 41 -23 41q-10 -6 -21.5 -17.5t-25.5 -33.5q-2 -10 -8 -25.5t-17 -38.5v-100z" />
<glyph unicode="&#xe4;" horiz-adv-x="727" d="M-2 1350v274l6 10q25 2 54.5 2h66.5h79t91 -2l6 -10q0 -33 1 -73t3 -89q0 -6 1 -13t1 -15q0 -18 -2 -41t-4 -50q-12 -8 -18 -8t-9 2q-10 2 -24 2h-4q-23 -2 -47.5 -2h-55.5h-63.5t-75.5 2zM55 299q0 227 160 297q88 53 172 59q16 14 16 50v14q-2 29 -4 45t-2 24 q0 35 -3 54.5t-7 29t-11 11.5t-16 2q-10 0 -24 -7.5t-23 -37.5q-2 -31 -8 -33v-12.5t4 -22.5q0 -6 1 -11t1 -9t-1 -7.5t-1 -7.5q-6 -20 -20 -26q-10 2 -19.5 2h-21.5h-24.5t-28.5 -2q-35 -2 -59.5 -3t-41.5 -1q-6 0 -31 12q0 16 4.5 36.5t8.5 43.5v2q0 16 11 43.5t30 68.5 q55 106 139 146q12 6 44 11t83 11q8 0 14 1t15 1q76 0 163 -53q41 -35 62.5 -77t26.5 -91q-4 -111 -6.5 -200t-2.5 -156q0 -35 1 -63.5t1 -51.5q2 -10 2 -21.5v-25.5v-29.5t-2 -33.5v-29q0 -129 25 -172q4 -10 10 -19q4 -8 8.5 -16t4.5 -14v-2q-4 -6 -6.5 -12.5t-8.5 -12.5 q-10 2 -19 2h-22h-25.5t-29.5 -2q-4 4 -10 4h-4q-6 -6 -11 -6q-2 0 -4 2q-20 0 -52 2t-75 4q-6 2 -18 17.5t-19 15.5q-6 0 -14 -4q-63 -53 -145 -53q-14 0 -23 2q-16 4 -34.5 15t-45.5 30q-25 18 -49 78q-27 53 -27 90q-4 27 -6 50t-2 48zM311 285q0 -35 25 -49q47 0 51 4 q10 27 14.5 42t4.5 21v156q-6 41 -23 41q-10 -6 -21.5 -17.5t-25.5 -33.5q-2 -10 -8 -25.5t-17 -38.5v-100zM395 1358v20q0 29 3 67t8 85q-6 14 -8.5 37.5t-2.5 56.5l6 10h289l8 -233v-19q0 -31 -8 -39h-289z" />
<glyph unicode="&#xe5;" horiz-adv-x="739" d="M55 299q0 227 160 297q88 53 172 59q16 14 16 50v14q-2 29 -4 45t-2 24q0 35 -3 54.5t-7 29t-11 11.5t-16 2q-10 0 -24 -7.5t-23 -37.5q-2 -31 -8 -33v-12.5t4 -22.5q0 -6 1 -11t1 -9t-1 -7.5t-1 -7.5q-6 -20 -20 -26q-10 2 -19.5 2h-21.5h-24.5t-28.5 -2 q-35 -2 -59.5 -3t-41.5 -1q-6 0 -31 12q0 16 4.5 36.5t8.5 43.5v2q0 16 11 43.5t30 68.5q55 106 139 146q12 6 44 11t83 11q8 0 14 1t15 1q76 0 163 -53q41 -35 62.5 -77t26.5 -91q-4 -111 -6.5 -200t-2.5 -156q0 -35 1 -63.5t1 -51.5q2 -10 2 -21.5v-25.5v-29.5t-2 -33.5 v-29q0 -129 25 -172q4 -10 10 -19q4 -8 8.5 -16t4.5 -14v-2q-4 -6 -6.5 -12.5t-8.5 -12.5q-10 2 -19 2h-22h-25.5t-29.5 -2q-4 4 -10 4h-4q-6 -6 -11 -6q-2 0 -4 2q-20 0 -52 2t-75 4q-6 2 -18 17.5t-19 15.5q-6 0 -14 -4q-63 -53 -145 -53q-14 0 -23 2q-16 4 -34.5 15 t-45.5 30q-25 18 -49 78q-27 53 -27 90q-4 27 -6 50t-2 48zM199 1360q0 35 13 65.5t36.5 54t54.5 37t68 13.5q72 0 121 -49t49 -121t-49.5 -122t-120.5 -50q-37 0 -68 13t-54.5 37t-36.5 55.5t-13 66.5zM250 1360q0 -47 36 -84t85 -37q47 0 82.5 37t35.5 84t-35.5 83 t-82.5 36q-49 0 -85 -36t-36 -83zM311 285q0 -35 25 -49q47 0 51 4q10 27 14.5 42t4.5 21v156q-6 41 -23 41q-10 -6 -21.5 -17.5t-25.5 -33.5q-2 -10 -8 -25.5t-17 -38.5v-100z" />
<glyph unicode="&#xe6;" horiz-adv-x="1234" d="M12 299q0 229 158 297q90 53 174 59q16 16 16 54v10q-6 55 -6 69q0 35 -3 54.5t-7 29t-12 11.5t-17 2q-4 0 -24 -4q-14 -23 -19.5 -42.5t-9.5 -31.5v-12.5t4 -22.5q0 -6 1 -11t1 -9q0 -27 -22 -41q-10 2 -20.5 2h-22.5h-23.5t-29.5 -2q-33 -2 -57.5 -3t-41.5 -1 q-10 0 -31 12q0 33 13 80v4q0 25 41 110q53 104 137 146q39 10 69.5 15t55.5 7q8 0 15 1t16 1q82 0 165 -53q78 -66 89 -168q57 117 88 146l57 39q47 35 119 34h25.5t27.5 -4q45 -8 121 -59q10 -14 20.5 -24.5t14.5 -16.5q33 -47 47 -80q10 -25 23.5 -60.5t27.5 -84.5l4 -78 q4 -53 6 -91t2 -57v-16l-12 -10q-59 2 -149.5 4t-208.5 2q-14 -8 -15 -19q0 -4 4 -16l6 -12q-4 -16 -6 -39t-2 -47q0 -25 2 -53.5t6 -61.5q10 -29 45 -41q72 0 78 88q2 35 2 54.5t2 25.5h125q23 2 50.5 4t64.5 2q4 -8 5 -16t1 -19v-20q-6 -27 -8 -40t-2 -15 q-12 -76 -80 -201q-84 -92 -209 -92h-10q-27 0 -100 12q-10 2 -72 2q-45 0 -59 27q-6 -8 -8.5 -14.5t-6.5 -10.5q-2 0 -3 -1t-5 -1q-16 0 -43 6h-14q-14 0 -31 -4q-6 2 -16 2t-13 -2q-10 4 -19 4h-16h-28h-38t-26 2q-6 2 -18 17.5t-21 15.5q-8 0 -12 -4q-66 -53 -145 -53 q-14 0 -23 2q-66 25 -80 45q-39 53 -45 69q-31 45 -31 99q-8 47 -8 98zM268 285q0 -35 23 -49q45 0 53 4q18 51 18 63v156q-8 41 -26 41q-8 -6 -18.5 -17.5t-26.5 -33.5q-2 -16 -23 -64v-100zM823 662l11 -11q92 0 104 11v-7q2 0 6 86v11q0 115 -70 114q-39 -20 -45 -49v-14 q0 -23 -6 -55v-86z" />
<glyph unicode="&#xe7;" horiz-adv-x="645" d="M12 610q4 74 13.5 133.5t25.5 102.5q23 59 55.5 108.5t79.5 85.5q41 16 76 24.5t64 8.5q94 0 172 -51q37 -31 59.5 -60.5t36.5 -64.5l6 -12q10 -16 19.5 -56.5t21.5 -103.5q0 -8 1 -18.5t1 -24.5t-1 -29.5t-1 -31.5q-10 -10 -29 -11q-8 0 -28 4q-8 0 -17.5 -1t-19.5 -1 q-29 0 -68 2t-86 7q-2 2 -2 12q0 14 2 24v13q0 14 -6 26v29q-6 80 -35 92h-33q-39 -39 -38 -80q0 -4 1 -6t1 -6q-6 -6 -7 -10q0 -2 3 -4q0 -4 1 -5t1 -4q0 -2 2 -2l-4 -45v-34q0 -23 -1.5 -47.5t-5.5 -55.5v-115v-31.5t2 -29.5v-33q0 -8 8.5 -25.5t8.5 -25.5q14 -14 33 -22 q2 -2 4 -3q10 0 43 29q14 23 14 80v23q0 76 8 100l4 6q16 0 45 -1t66 -3q35 -2 63.5 -2h44.5q8 4 17 4q20 0 20 -35q0 -25 -8 -49q0 -4 1 -9t1 -9q0 -6 -1 -12.5t-1 -12.5q-2 -16 -3 -27.5t-1 -15.5q-23 -139 -80 -207q-78 -92 -231 -92v-76q12 2 25.5 3t29.5 1 q59 -2 107 -55q20 -47 20 -80q-2 -14 -4 -23.5t-6 -17.5q-43 -92 -205 -92q-16 0 -32.5 1t-35.5 3q-10 0 -10 10l2 64v24q31 4 59.5 6.5t53.5 2.5q70 0 69 22q-2 6 -5 9t-5 8q-31 12 -59 12h-13.5t-15.5 -2q-10 -6 -24 -6q-25 0 -39 18q-20 0 -21 31v12v31.5t4 21.5v95 l-6 -19q-96 59 -125 107l-31 59q-6 27 -14 62.5t-18 82.5l-13 125z" />
<glyph unicode="&#xe8;" horiz-adv-x="681" d="M20 496q0 -180 46 -308q18 -27 33.5 -49t25.5 -43q41 -68 125 -96q74 -12 100 -12h10q123 0 209 92q70 129 78 201q0 -2 10 55q2 8 2 24q0 14 -6 31q-37 0 -65.5 -2t-48.5 -4h-125q-4 -6 -4 -25.5t-2 -54.5q-4 -88 -76 -88q-35 12 -47 41q-6 63 -6 115q0 51 6 86l-4 12 q-2 4 -4.5 8t-2.5 8q0 8 17 19q119 0 208 -2t148 -4l15 10v16q0 18 -2.5 56.5t-6.5 91.5l-6 78q-49 170 -96 225q-16 29 -35 41q-76 51 -121 59q-14 4 -27.5 4h-27.5q-70 0 -119 -34l-55 -39q-145 -127 -146 -486v-26zM115 1483l6 10l164 94h18l92 -69q6 -8 60 -54 q41 -37 53 -57q10 -8 63 -33q-4 0 -32 -71l-174 36l-201 93zM281 662v86q2 16 4 29.5t2 23.5q0 4 -1 8t-1 8q8 31 47 49q70 0 69 -114v-11q-2 -23 -3 -38t-1 -25q-2 -12 -2 -23v7q-12 -10 -104 -11z" />
<glyph unicode="&#xe9;" horiz-adv-x="655" d="M-4 496v26q0 360 143 486l58 39q47 35 118 34h27.5t28.5 -4q43 -8 118 -59q23 -14 37 -41q47 -55 97 -225l4 -78q4 -53 6 -91t2 -57v-16l-12 -10q-59 2 -148.5 4t-208.5 2q-16 -10 -16 -19q0 -8 6 -16l4 -12q-4 -16 -6 -39t-2 -47q0 -25 2 -53.5t6 -61.5q12 -29 45 -41 q74 0 78 88q2 35 2 54.5t2 25.5h125q23 2 51.5 4t63.5 2q4 -8 5 -16t1 -19v-20q-6 -27 -8 -40t-2 -15q-6 -37 -25.5 -87.5t-54.5 -113.5q-84 -92 -209 -92h-8q-31 0 -101 12q-86 29 -125 96q-12 20 -27.5 43t-31.5 49q-45 127 -45 308zM117 1374q55 25 63 33q8 12 18.5 21.5 t20.5 17.5q8 6 26.5 23.5t47.5 48.5l92 69h18l166 -94l4 -10l-47 -51l-202 -93l-174 -36zM256 662l10 -11q43 0 69.5 2t35.5 9v-7q2 10 2 23v25.5t2 37.5v11q0 115 -70 114q-37 -18 -45 -49v-14q0 -10 -1 -24.5t-3 -30.5v-86z" />
<glyph unicode="&#xea;" horiz-adv-x="716" d="M-51 1370q0 4 28 33l105 102l12 15q23 20 37 34.5t25 24.5l69 68q27 27 45.5 44t29.5 28.5t19.5 17.5t14.5 10q14 -6 21 -13.5t12 -11.5q27 -27 45 -44t32 -31l68 -68q4 -2 6 -5t4 -5q43 -43 51 -49l13 -15l104 -102q29 -29 29 -33q-29 -23 -47.5 -40t-28.5 -32l-12 -10 q-29 31 -51.5 53.5l-38.5 38.5l-52 52l-69 67q-41 41 -62.5 61.5t-23.5 22.5q-33 -31 -54.5 -51.5t-31.5 -32.5l-70 -67l-51 -52q-31 -31 -53.5 -53t-34.5 -39l-14 10q-16 25 -76 72zM-4 496q0 -180 45 -308q16 -27 31.5 -49t27.5 -43q39 -68 125 -96q70 -12 101 -12h8 q125 0 209 92q35 63 54 113.5t26 87.5q0 2 2 15t8 40v20q0 10 -1 18.5t-5 16.5q-35 0 -63.5 -2t-51.5 -4h-125q-2 -6 -2 -25.5t-2 -54.5q-4 -88 -78 -88q-33 12 -45 41q-4 33 -6 61.5t-2 53.5t2 47t6 39l-4 12q-6 8 -6 16t16 19q119 0 208 -2t149 -4l12 10v16q0 18 -2 56.5 t-6 91.5l-4 78q-49 170 -97 225q-14 27 -37 41q-76 51 -118 59q-14 4 -27.5 4h-28.5q-72 0 -118 -34l-58 -39q-143 -125 -143 -486v-26zM256 662v86q2 16 3 30.5t1 24.5v14q8 31 45 49q70 0 70 -114v-11q-2 -23 -2 -38v-25q0 -12 -2 -23v7q-8 -6 -35 -8.5t-70 -2.5z" />
<glyph unicode="&#xeb;" horiz-adv-x="698" d="M-4 496v26q0 360 143 486l58 39q47 35 118 34h27.5t28.5 -4q43 -8 118 -59q23 -14 37 -41q47 -55 97 -225l4 -78q4 -53 6 -91t2 -57v-16l-12 -10q-59 2 -148.5 4t-208.5 2q-16 -10 -16 -19q0 -8 6 -16l4 -12q-4 -16 -6 -39t-2 -47q0 -25 2 -53.5t6 -61.5q12 -29 45 -41 q74 0 78 88q2 35 2 54.5t2 25.5h125q23 2 51.5 4t63.5 2q4 -8 5 -16t1 -19v-20q-6 -27 -8 -40t-2 -15q-6 -37 -25.5 -87.5t-54.5 -113.5q-84 -92 -209 -92h-8q-31 0 -101 12q-86 29 -125 96q-12 20 -27.5 43t-31.5 49q-45 127 -45 308zM-2 1350v274l6 10q25 2 54.5 2h66.5 h79t91 -2l6 -10q0 -33 1 -73t3 -89q0 -6 1 -13t1 -15q0 -18 -2 -41t-4 -50q-12 -8 -18 -8t-9 2q-10 2 -24 2h-4q-23 -2 -47.5 -2h-55.5h-63.5t-75.5 2zM256 662l10 -11q43 0 69.5 2t35.5 9v-7q2 10 2 23v25.5t2 37.5v11q0 115 -70 114q-37 -18 -45 -49v-14q0 -10 -1 -24.5 t-3 -30.5v-86zM395 1358v20q0 29 3 67t8 85q-6 14 -8.5 37.5t-2.5 56.5l6 10h289l8 -233v-19q0 -31 -8 -39h-289z" />
<glyph unicode="&#xec;" horiz-adv-x="505" d="M35 1483l6 10l166 94h18l90 -69q4 -4 19.5 -17.5t40.5 -36.5q37 -31 53 -57q11 -8 64 -33q-4 0 -33 -71l-174 36l-201 93zM147 1006q0 -16 7 -29q2 -127 3 -221t1 -160v-334v-51t-2 -74q-2 -41 -2 -70.5v-52.5l32 -4h56q31 0 71.5 -1t92.5 -5q18 12 18 41q-2 10 -3 19.5 t-1 15.5q-2 8 -2 12v281v41q-4 12 -6 47t-2 90v426q4 16 4 25.5v15.5q0 14 -4 23.5t-9 17.5q-41 -2 -76.5 -2h-66.5h-55.5t-44.5 2q-6 -14 -8.5 -27.5t-2.5 -25.5z" />
<glyph unicode="&#xed;" horiz-adv-x="536" d="M117 1374q55 25 63 33q8 12 18.5 21.5t20.5 17.5q8 6 26.5 23.5t47.5 48.5l92 69h18l166 -94l4 -10l-47 -51l-202 -93l-174 -36zM147 1006q0 12 2.5 25t8.5 28q20 -2 44.5 -2h55.5h66.5t76.5 2q4 -8 8.5 -17.5t4.5 -23.5v-15.5t-4 -25.5v-426q0 -55 2 -90t6 -47v-41v-281 q0 -4 2 -12q0 -6 1 -15.5t3 -19.5q0 -29 -18 -41q-51 4 -92.5 5t-71.5 1h-56l-32 4v52.5t2 70.5q2 43 2 74v51v334q0 66 -1 160t-3 221q-6 12 -7 29z" />
<glyph unicode="&#xee;" horiz-adv-x="761" d="M0 1370q0 4 29 33l104 102l12 15q23 20 37.5 34.5l24.5 24.5l67 68q29 27 47.5 44t29.5 28.5t19.5 17.5t14.5 10q14 -6 21.5 -13.5l11.5 -11.5q25 -27 44 -44t34 -31l67 -68q4 -2 6 -5t4 -5q43 -43 52 -49l12 -15l104 -102q29 -29 29 -33q-59 -47 -76 -72l-12 -10 q-29 31 -51.5 53.5l-38.5 38.5l-51 52l-70 67q-41 41 -62.5 61.5t-23.5 22.5q-33 -31 -54.5 -51.5t-31.5 -32.5l-70 -67l-51 -52q-31 -31 -53.5 -53t-34.5 -39l-14 10q-16 25 -76 72zM252 1006q0 -8 2 -15.5t4 -13.5q2 -127 3 -221t1 -160v-334v-51t-2 -74q-2 -41 -2 -70.5 v-52.5l33 -4h55q31 0 72 -1t92 -5q18 12 18 41q-2 10 -2 19.5t-2 15.5q-2 8 -2 12v281v41q-6 25 -6 137v426q2 16 2 25.5v15.5q0 14 -4 23.5t-8 17.5q-41 -2 -77 -2h-67h-55t-45 2q-10 -31 -10 -53z" />
<glyph unicode="&#xef;" horiz-adv-x="698" d="M-2 1350v274l6 10q25 2 54.5 2h66.5h79t91 -2l6 -10q0 -33 1 -73t3 -89q0 -6 1 -13t1 -15q0 -18 -2 -41t-4 -50q-12 -8 -18 -8t-9 2q-10 2 -24 2h-4q-23 -2 -47.5 -2h-55.5h-63.5t-75.5 2zM225 1006q0 12 2 25t9 28q20 -2 44.5 -2h55.5h65.5t75.5 2q12 -16 12 -41v-15.5 t-2 -25.5v-426q0 -115 9 -137v-41v-281q2 -4 2 -12v-15.5t2 -19.5q0 -31 -19 -41q-49 4 -90 5t-74 1h-55l-33 4v52.5t2 70.5q4 43 4.5 74t0.5 51v334q0 66 -2.5 160t-4.5 221q-4 16 -4 29zM395 1358v20q0 29 3 67t8 85q-6 14 -8.5 37.5t-2.5 56.5l6 10h289l8 -233v-19 q0 -31 -8 -39h-289z" />
<glyph unicode="&#xf0;" />
<glyph unicode="&#xf1;" horiz-adv-x="724" d="M-4 1350.5v33.5v32t2 32q0 14 12 27q96 115 185 114h-5q0 -6 72 -12q2 0 100 -70l44 -30q76 -55 104 -56q66 0 184 150l6 2v-166l-10 -14q-27 -37 -86 -76q-57 -39 -98 -39q-20 0 -38.5 5t-39.5 15q-10 10 -29.5 22.5t-46.5 29.5q-2 2 -13 8t-28 18q-23 29 -63 51 q-39 8 -62 9q-74 0 -135 -70q-47 -49 -53 -49q-2 16 -2 33.5zM39 207v852q8 0 26.5 1t42 1t48 1t43.5 1h82h2q12 0 14 -15.5t2 -25.5q0 -23 4 -23q12 10 29.5 23.5t40.5 30.5q53 27 112 26q53 0 88 -26l48 -45q4 -14 12 -32t18 -40v-574q0 -117 1 -204t3 -144 q-8 -10 -31.5 -11t-31.5 -3q-16 4 -40 6t-52 2h-64.5t-34.5 2q-8 12 -8 23q0 2 1 4t1 6q0 6 1 12t1 11q0 4 -1 7t-1 7v690q0 47 -9 69.5t-54 22.5q-37 -12 -39 -104v-713l-8 -35q-41 0 -99.5 1t-140.5 3q0 8 -1 30t-2 50.5t-2 58t-1 54.5z" />
<glyph unicode="&#xf2;" horiz-adv-x="704" d="M33 561q0 -41 3 -88t7 -100q12 -143 70 -242q72 -141 237 -143h8q150 0 215 108q8 14 20.5 30.5t20.5 27.5q14 20 23.5 46.5t15.5 57.5q4 16 7.5 42t5.5 67q2 23 3 46t1 46t-1 42t-3 40q0 10 1 21t1 24q0 12 -1 24.5t-1 24.5q-2 45 -3 68.5t-1 25.5q-25 117 -60 174 q-35 106 -143 156q-37 20 -94 20h-26.5t-29.5 -2l-67 -18q-35 -10 -54 -29q-115 -80 -149 -368q-6 -43 -6 -101zM115 1483l6 10l164 94h18l92 -69q6 -8 60 -54q41 -37 53 -57q10 -8 63 -33q-4 0 -32 -71l-174 36l-201 93zM115 1483l6 10l164 94h18l92 -69q6 -8 60 -54 q41 -37 53 -57q10 -8 63 -33q-4 0 -32 -71l-174 36l-201 93zM293 563q0 90 6 189q-2 4 -2 14q0 18 16 45q25 12 41 12q12 0 19 -2l22 -33q18 -80 19 -110q0 -51 1 -97t1 -87t-1 -77t-1 -67l-6 -51q-4 -16 -11.5 -32.5t-23.5 -18.5q-57 12 -60 22l-10 39q-6 59 -8 122t-2 132 z" />
<glyph unicode="&#xf3;" horiz-adv-x="698" d="M33 561q0 57 6 101q35 289 149 368q18 18 54 29l67 18q16 2 28.5 2h27.5q57 0 94 -20q109 -49 143 -156q35 -57 60 -174q0 -2 1 -25.5t3 -68.5q0 -12 1 -24.5t1 -24.5t-1 -23.5t-1 -21.5q2 -20 3 -40t1 -42q0 -23 -1 -46t-3 -46q-2 -41 -5.5 -67t-7.5 -42 q-6 -31 -15 -57.5t-24 -46.5q-8 -10 -20 -26.5t-21 -31.5q-66 -109 -215 -108h-8q-166 2 -237 143q-57 98 -70 242q-4 53 -7 100t-3 88zM117 1374q55 25 63 33q8 12 18.5 21.5t20.5 17.5q8 6 26.5 23.5t47.5 48.5l92 69h18l166 -94l4 -10l-47 -51l-202 -93l-174 -36z M293 563q0 -70 2 -132t8 -122l10 -39q2 -10 60 -22q16 2 23 18.5t12 32.5l6 51q0 31 1 67t1 77t-1 87t-1 97q0 31 -19 110l-22 33q-6 2 -19 2q-16 0 -41 -12q-16 -27 -16 -45q0 -10 2 -14q-6 -98 -6 -189z" />
<glyph unicode="&#xf4;" horiz-adv-x="770" d="M0 1370q0 4 29 33l104 102l12 15q23 20 37.5 34.5l24.5 24.5l67 68q29 27 47.5 44t29.5 28.5t19.5 17.5t14.5 10q14 -6 21.5 -13.5l11.5 -11.5q25 -27 44 -44t34 -31l67 -68q4 -2 6 -5t4 -5q43 -43 52 -49l12 -15l104 -102q29 -29 29 -33q-59 -47 -76 -72l-12 -10 q-29 31 -51.5 53.5l-38.5 38.5l-51 52l-70 67q-41 41 -62.5 61.5t-23.5 22.5q-33 -31 -54.5 -51.5t-31.5 -32.5l-70 -67l-51 -52q-31 -31 -53.5 -53t-34.5 -39l-14 10q-16 25 -76 72zM74 553q0 -41 3 -88t7 -100q12 -143 70 -242q72 -141 237 -143h8q150 0 215 110 q8 12 20.5 28.5t20.5 26.5q27 47 39 105l13 110q2 23 2 43.5v42.5v43.5t-2 42.5q0 10 1 21.5t1 24.5q0 12 -1 24t-1 25q-2 45 -4.5 68.5t-2.5 25.5q-20 119 -57 174q-35 106 -143 156q-37 20 -94 20h-26.5t-29.5 -2l-67 -18q-35 -6 -54 -29q-115 -78 -149 -369 q-6 -43 -6 -100zM334 555q0 88 6 190q-2 4 -2 13q0 18 16 45q20 14 41 14q10 0 19 -4l22 -33q18 -80 19 -108q0 -51 1 -97.5t1 -87.5t-1 -77.5t-1 -67.5l-6 -51q-6 -16 -12.5 -32.5t-22.5 -18.5q-55 12 -60 22l-10 39q-6 59 -8 122.5t-2 131.5z" />
<glyph unicode="&#xf5;" horiz-adv-x="714" d="M-4 1350.5v33.5v32t2 32q0 14 12 27q96 115 185 114h-5q0 -6 72 -12q4 -6 100 -70l46 -32q72 -53 102 -54q66 0 184 150l6 2v-166l-10 -14q-27 -37 -86 -76q-57 -39 -98 -39q-20 0 -38.5 5t-39.5 15q-10 10 -29.5 22.5t-46.5 29.5q-2 2 -13 8t-28 18q-23 29 -63 51 q-39 8 -62 9q-74 0 -135 -70q-47 -49 -53 -49q-2 16 -2 33.5zM33 561q0 57 6 101q35 289 149 368q18 18 54 29l67 18q16 2 28.5 2h27.5q57 0 94 -20q109 -49 143 -156q35 -57 60 -174q0 -2 1 -25.5t3 -68.5q0 -12 1 -24.5t1 -24.5t-1 -23.5t-1 -21.5q2 -20 3 -40t1 -42 q0 -23 -1 -46t-3 -46q-2 -41 -5.5 -67t-7.5 -42q-6 -31 -15 -57.5t-24 -46.5q-8 -10 -20 -26.5t-21 -31.5q-66 -109 -215 -108h-8q-166 2 -237 143q-57 98 -70 242q-4 53 -7 100t-3 88zM293 563q0 -70 2 -132t8 -122l10 -39q2 -10 60 -22q16 2 23 18.5t12 32.5l6 51 q0 31 1 67t1 77t-1 87t-1 97q0 31 -19 110l-22 33q-6 2 -19 2q-16 0 -41 -12q-16 -27 -16 -45q0 -10 2 -14q-6 -98 -6 -189z" />
<glyph unicode="&#xf6;" horiz-adv-x="708" d="M-2 1350v274l6 10q25 2 54.5 2h66.5h79t91 -2l6 -10q0 -33 1 -73t3 -89q0 -6 1 -13t1 -15q0 -18 -2 -41t-4 -50q-12 -8 -18 -8t-9 2q-10 2 -24 2h-4q-23 -2 -47.5 -2h-55.5h-63.5t-75.5 2zM33 561q0 57 6 101q35 289 149 368q18 18 54 29l67 18q16 2 28.5 2h27.5 q57 0 94 -20q109 -49 143 -156q35 -57 60 -174q0 -2 1 -25.5t3 -68.5q0 -12 1 -24.5t1 -24.5t-1 -23.5t-1 -21.5q2 -20 3 -40t1 -42q0 -23 -1 -46t-3 -46q-2 -41 -5.5 -67t-7.5 -42q-6 -31 -15 -57.5t-24 -46.5q-8 -10 -20 -26.5t-21 -31.5q-66 -109 -215 -108h-8 q-166 2 -237 143q-57 98 -70 242q-4 53 -7 100t-3 88zM293 563q0 -70 2 -132t8 -122l10 -39q2 -10 60 -22q16 2 23 18.5t12 32.5l6 51q0 31 1 67t1 77t-1 87t-1 97q0 31 -19 110l-22 33q-6 2 -19 2q-16 0 -41 -12q-16 -27 -16 -45q0 -10 2 -14q-6 -98 -6 -189zM395 1358v20 q0 29 3 67t8 85q-6 14 -8.5 37.5t-2.5 56.5l6 10h289l8 -233v-19q0 -31 -8 -39h-289z" />
<glyph unicode="&#xf7;" horiz-adv-x="905" d="M-8 614q4 45 5 82t1 66v51l4 31h51.5t69.5 -2t70.5 -2h52.5h325h77t89 2q41 2 65.5 2h37.5q2 0 3 -1t5 -1q6 0 15 1t20 3q4 0 7 1t7 1q12 0 21 -8q2 -37 2 -69v-60v-51.5t-2 -38.5q-37 -12 -64 -13q-10 0 -14 2h-314q-57 0 -90 -2t-45 -4l-39 6l-276 -6q-10 -2 -21.5 -2 t-21.5 -2q-29 0 -41 14zM319 1016v244q4 10 52 10q20 0 54 -1t77 -3h92q0 -8 3 -38t3 -52v-160q0 -14 -10 -15q-86 0 -148.5 -1t-107.5 -3q-14 14 -15 19zM326 221v250q8 8 51 8q23 0 54.5 -1t76.5 -3h92q0 -8 2 -37.5t2 -52.5v-164q0 -14 -10 -14q-164 0 -252 -6 q-16 16 -16 20z" />
<glyph unicode="&#xf8;" horiz-adv-x="757" d="M23 168q14 23 30.5 46.5t32.5 51.5l-10 50t-10 71q-4 47 -7.5 88t-3.5 80q0 61 6 111q31 283 146 360q16 16 51 25.5t66 17.5q10 2 19 2h19q102 0 179 -70q8 18 18 27q51 -27 72 -43q25 -10 41 -19.5t26 -13.5q4 -6 6.5 -11l4.5 -9q-14 -23 -23.5 -36t-13.5 -22 q-12 -16 -19.5 -25t-9.5 -13l-2 -2q4 -18 11.5 -43t13.5 -56q0 -8 6 -94q0 -14 1 -26.5t1 -22.5q0 -12 -1 -22.5t-1 -20.5q2 -20 2 -40v-42v-42t-2 -44q-12 -147 -51 -207q-14 -20 -23.5 -33.5t-15.5 -23.5q-33 -53 -86.5 -79t-124.5 -26h-9q-109 2 -182 78l-10 -14l-4 -4 q-4 0 -8 2q-20 14 -38 24.5t-28 16.5q-8 2 -13 5t-9 5q-45 29 -47 43zM309 616l21 31q31 47 50 82t30 53q-2 4 -2 9l-23 32q-6 2 -14 2q-16 0 -41 -14q-18 -29 -19 -45q0 -6 2 -10zM322 315l8 -30q27 -16 55 -23q20 6 23 21l10 30l8 52q-2 23 -2 52v64l-37 -55 q-31 -49 -37 -59z" />
<glyph unicode="&#xf9;" horiz-adv-x="694" d="M20 1012q2 -4 3 -4q2 -205 4 -348.5t2 -221.5l6 -168q-2 -18 -3 -37.5t-1 -37.5q0 -23 1 -42.5t3 -37.5q55 -137 174 -138q88 0 166 64q18 -25 18 -41q25 -4 46.5 -6t37.5 -2h18.5t16.5 4q33 -8 115 -8q18 0 18 30v801q2 6 3 19.5t1 28t1 27.5t5 21q-6 25 -6 43 q0 14 2 21q4 16 4 22q0 12 -4 21q-4 10 -41 14t-84 4h-26q-41 -2 -66.5 -3t-36.5 -1l-12 -6v-223q6 -92 6 -234q0 -141 -6 -331q-6 -16 -12 -27.5t-17 -17.5q-4 -2 -14 -2q-16 0 -37 6q-18 18 -18 37q0 6 2 10v608q0 23 -1 50.5t-2 53t-2 46t-1 30.5q-78 6 -213 6 q-33 0 -41 -6q-8 -14 -9 -24zM115 1483l6 10l164 94h18l92 -69q6 -8 60 -54q41 -37 53 -57q10 -8 63 -33q-4 0 -32 -71l-174 36l-201 93z" />
<glyph unicode="&#xfa;" horiz-adv-x="690" d="M20 1012q0 10 9 24q8 6 41 6q135 0 213 -6q0 -10 1 -30.5t2 -46t2 -53t1 -50.5v-608q-2 -4 -2 -10q0 -18 18 -37q20 -6 37 -6q10 0 14 2q10 6 16.5 17t12.5 28q6 190 6 331t-6 234v223l12 6q10 0 36 1t67 3h26q47 0 84 -4t41 -14q4 -8 4 -21q0 -6 -4 -22q-2 -6 -2 -21 q0 -18 6 -43q-4 -8 -5 -21t-1 -27.5t-1 -28t-3 -19.5v-801q0 -31 -18 -30q-82 0 -115 8q-8 -4 -16.5 -4h-18.5q-16 0 -37.5 2t-46.5 6q0 16 -18 41q-78 -63 -166 -64q-119 0 -174 138q-2 18 -3 37.5t-1 42.5q0 18 1 37.5t3 37.5l-6 168q0 78 -2 221.5t-4 348.5zM117 1374 q55 25 63 33q8 12 18.5 21.5t20.5 17.5q8 6 26.5 23.5t47.5 48.5l92 69h18l166 -94l4 -10l-47 -51l-202 -93l-174 -36z" />
<glyph unicode="&#xfb;" horiz-adv-x="772" d="M0 1370q0 4 29 33l104 102l12 15q23 20 37.5 34.5l24.5 24.5l67 68q29 27 47.5 44t29.5 28.5t19.5 17.5t14.5 10q14 -6 21.5 -13.5l11.5 -11.5q25 -27 44 -44t34 -31l67 -68q4 -2 6 -5t4 -5q43 -43 52 -49l12 -15l104 -102q29 -29 29 -33q-59 -47 -76 -72l-12 -10 q-29 31 -51.5 53.5l-38.5 38.5l-51 52l-70 67q-41 41 -62.5 61.5t-23.5 22.5q-33 -31 -54.5 -51.5t-31.5 -32.5l-70 -67l-51 -52q-31 -31 -53.5 -53t-34.5 -39l-14 10q-16 25 -76 72zM72 1012l2 -4q2 -205 4 -348.5t2 -221.5l6 -168q-2 -18 -3 -37.5t-1 -37.5q0 -23 1 -42.5 t3 -37.5q55 -137 174 -138q88 0 166 64q18 -25 18 -41q25 -4 46.5 -6t37.5 -2h18.5t16.5 4q31 -8 115 -8q18 0 18 30v801q2 6 3 19.5t1 28t1.5 27.5t5.5 21q-8 25 -9 48q0 14 4.5 22t4.5 16q0 14 -7 21q-2 10 -38.5 14t-83.5 4h-27q-41 -2 -66.5 -3t-35.5 -1l-13 -6v-223 q6 -92 6 -234q0 -141 -6 -331q-12 -35 -28 -45q-4 -2 -15 -2q-16 0 -37 6q-18 18 -18 37q0 6 2 10v608q0 23 -1 50.5t-2 53t-2 46t-1 30.5q-78 6 -213 6q-33 0 -41 -6q-8 -14 -8 -24z" />
<glyph unicode="&#xfc;" horiz-adv-x="708" d="M-2 1350v274l6 10q25 2 54.5 2h66.5h79t91 -2l6 -10q0 -33 1 -73t3 -89q0 -6 1 -13t1 -15q0 -18 -2 -41t-4 -50q-12 -8 -18 -8t-9 2q-10 2 -24 2h-4q-23 -2 -47.5 -2h-55.5h-63.5t-75.5 2zM20 1012q0 10 9 24q8 6 41 6q135 0 213 -6q0 -10 1 -30.5t2 -46t2 -53t1 -50.5 v-608q-2 -4 -2 -10q0 -18 18 -37q20 -6 37 -6q10 0 14 2q10 6 16.5 17t12.5 28q6 190 6 331t-6 234v223l12 6q10 0 36 1t67 3h26q47 0 84 -4t41 -14q4 -8 4 -21q0 -6 -4 -22q-2 -6 -2 -21q0 -18 6 -43q-4 -8 -5 -21t-1 -27.5t-1 -28t-3 -19.5v-801q0 -31 -18 -30 q-82 0 -115 8q-8 -4 -16.5 -4h-18.5q-16 0 -37.5 2t-46.5 6q0 16 -18 41q-78 -63 -166 -64q-119 0 -174 138q-2 18 -3 37.5t-1 42.5q0 18 1 37.5t3 37.5l-6 168q0 78 -2 221.5t-4 348.5zM395 1358v20q0 29 3 67t8 85q-6 14 -8.5 37.5t-2.5 56.5l6 10h289l8 -233v-19 q0 -31 -8 -39h-289z" />
<glyph unicode="&#xfd;" horiz-adv-x="724" d="M10 1030q0 23 10 23q20 4 43 4q12 0 25.5 -1t26.5 -1q23 0 43 4h100q12 -10 16 -74q12 -29 25 -90q8 -59 27 -88q0 -6 8 -50t26 -130q14 -6 23 -6q4 0 8 2q16 70 35.5 174t42.5 245q12 16 63 25q12 -6 19 -6q6 0 18 6l97 -8h34q12 -10 13 -31q0 -4 -1 -8t-1 -8v-6 q0 -10 -5.5 -21.5t-5.5 -17.5q-4 -25 -13 -61t-21 -83q0 -20 -33 -159q-6 -25 -16.5 -70t-24.5 -109q0 -10 -6 -30.5t-6 -28.5q-14 -55 -37 -154.5t-56 -242.5q-10 -45 -20 -83t-21 -73q-8 -104 -69 -188q-51 -41 -86 -41h-10q-6 0 -49.5 -3t-125.5 -8q-16 0 -30.5 3.5 t-14.5 19.5q0 31 1 77t4 107q12 8 24 8q4 0 7 -1t7 -1q12 -2 21.5 -3t15.5 -1q2 0 3 1t3 1h7q23 0 63 19q6 10 11 26.5t9.5 35t7.5 33.5t7 24q0 2 1 3t1 3q0 8 -8 24q0 8 -4 22.5t-8.5 30t-9.5 30t-5 22.5t-2 21.5t-8 31.5q-6 14 -8 26.5t-2 22.5q-10 35 -20.5 82t-20.5 107 q-2 4 -6.5 17t-8.5 36q-4 4 -11 46t-26 126q-4 29 -29.5 127t-66.5 270zM117 1374q55 25 63 33q8 12 18.5 21.5t20.5 17.5q8 6 26.5 23.5t47.5 48.5l92 69h18l166 -94l4 -10l-47 -51l-202 -93l-174 -36z" />
<glyph unicode="&#xfe;" horiz-adv-x="694" d="M20 1329v10q0 27 15 35l18 6h137h89l4 -18q0 -41 -1 -73t-3 -54q-2 -10 -3.5 -24.5t-1.5 -30.5t1 -35t4 -41q8 -16 20 -17q4 0 6 3q51 61 125 61q12 0 23.5 -2t21.5 -4q70 -27 100 -92q10 -8 19.5 -24.5t15.5 -34t11.5 -32t9.5 -18.5v-8q0 -16 5 -34.5t5 -27.5 q2 -25 5 -57.5t7 -77.5q2 -23 2 -42v-35v-34t-2 -28q2 -10 3 -25.5t1 -33.5v-19q0 -27 -6 -74t-16 -118q-10 -63 -31.5 -115.5t-54.5 -93.5q-63 -53 -115 -53q-12 0 -18 2q-35 6 -115 57h-2q-16 0 -16 -84q0 -33 -11 -33h-229q-18 0 -18 19q0 98 2 153.5t4 65.5q-2 10 -4 18 t-2 19q0 10 2 19l4 18v20q0 35 -6 94q0 76 1 143.5t2 133t2 132t1 140.5v272l-6 19q-2 4 -2 12q0 6 -1.5 16.5t-1.5 24.5zM276 500q0 -53 7 -92q0 -35 18 -68q6 0 23 -10q4 -4 12 -4q6 0 10 4q35 0 47 32q6 39 8 89.5t2 113.5v138.5t3 66.5l-19 100q-39 35 -45 35 q-8 0 -12 -2q-35 0 -47 -47q0 -59 -1 -136t-3 -173q-2 -12 -2.5 -24.5t-0.5 -22.5z" />
<glyph unicode="&#xff;" horiz-adv-x="735" d="M-2 1350v274l6 10q25 2 54.5 2h66.5h79t91 -2l6 -10q0 -33 1 -73t3 -89q0 -6 1 -13t1 -15q0 -18 -2 -41t-4 -50q-12 -8 -18 -8t-9 2q-10 2 -24 2h-4q-23 -2 -47.5 -2h-55.5h-63.5t-75.5 2zM10 1030q0 23 10 23q20 4 43 4q12 0 25.5 -1t26.5 -1q23 0 43 4h100 q12 -10 16 -74q12 -29 25 -90q8 -59 27 -88q0 -6 8 -50t26 -130q14 -6 23 -6q4 0 8 2q16 70 35.5 174t42.5 245q12 16 63 25q12 -6 19 -6q6 0 18 6l97 -8h34q12 -10 13 -31q0 -4 -1 -8t-1 -8v-6q0 -10 -5.5 -21.5t-5.5 -17.5q-4 -25 -13 -61t-21 -83q0 -20 -33 -159 q-6 -25 -16.5 -70t-24.5 -109q0 -10 -6 -30.5t-6 -28.5q-14 -55 -37 -154.5t-56 -242.5q-10 -45 -20 -83t-21 -73q-8 -104 -69 -188q-51 -41 -86 -41h-10q-6 0 -49.5 -3t-125.5 -8q-16 0 -30.5 3.5t-14.5 19.5q0 31 1 77t4 107q12 8 24 8q4 0 7 -1t7 -1q12 -2 21.5 -3 t15.5 -1q2 0 3 1t3 1h7q23 0 63 19q6 10 11 26.5t9.5 35t7.5 33.5t7 24q0 2 1 3t1 3q0 8 -8 24q0 8 -4 22.5t-8.5 30t-9.5 30t-5 22.5t-2 21.5t-8 31.5q-6 14 -8 26.5t-2 22.5q-10 35 -20.5 82t-20.5 107q-2 4 -6.5 17t-8.5 36q-4 4 -11 46t-26 126q-4 29 -29.5 127 t-66.5 270zM395 1358v20q0 29 3 67t8 85q-6 14 -8.5 37.5t-2.5 56.5l6 10h289l8 -233v-19q0 -31 -8 -39h-289z" />
<glyph unicode="&#x152;" horiz-adv-x="1363" d="M16 823q0 2 1 3t1 3q6 27 10.5 52.5t4.5 48.5q0 8 -1 15t-1 16q2 6 2 25.5t2 49.5q0 49 18 68q16 141 97 266l36 53q39 39 75 62.5t73 34.5q12 0 22 6q27 4 51.5 8t47.5 4q55 0 104 -18h4q10 0 33 -13h8v-6q2 0 5 7.5t5 7.5l41 -9h408q10 2 18.5 3t14.5 1t13 -1t17 -3h41 q20 2 42 3t46 1q23 0 43.5 -1t42.5 -3q0 -23 7 -90q0 -16 1 -29.5t1 -23.5t-1 -19.5t-1 -15.5q0 -70 -15 -80q-66 2 -169 4t-238 7q-31 -16 -31 -52q0 -84 2 -84v2v-73q-2 -4 -2 -13q0 -12 4 -27.5t4 -23.5v-15t-2 -30q0 -27 21 -41h315q18 0 18 -33q-6 -12 -6 -20 q0 -14 6 -21q-4 -14 -4 -36.5v-53.5v-30q0 -16 -1 -31.5t-3 -32.5q-4 0 -6 1t-6 1t-8 -1t-8 -1q-12 -4 -21 -4q-12 0 -28.5 2t-26.5 2h-10q-10 -2 -31 -2h-16.5t-18.5 2q-27 2 -44 4t-28 2q-29 0 -50 -2t-38 -4q-6 -61 -6 -94q0 -25 2 -33v-248q23 -23 62 -22h13t17 2 q12 2 23.5 2h21.5q14 2 34 2h44h53.5t65.5 -2q23 0 39 2t31 6h22q17 0 23 -18v-50t-2 -71t-2 -69.5v-51.5v-4h-52t-79 2q-45 2 -80 2h-60h-196q-6 0 -13.5 1t-17.5 1q-8 0 -18.5 -1t-20.5 -1q-10 -2 -20.5 -2h-20.5q-20 0 -29 2q-25 -2 -58.5 -3t-78.5 -1l-8 2 q-12 -6 -25.5 -11t-27.5 -10l-31 -6h-104q-57 0 -113 31q-2 2 -26.5 17.5t-71.5 50.5q-14 16 -25.5 33.5t-21.5 33.5q-16 29 -32 54.5t-32 50.5q-2 4 -13.5 58t-37.5 161v80l-4 41v32q0 31 -2 68t-6 84q2 2 2 14q0 4 -4.5 18.5t-4.5 24.5zM342 920.5q0 -46.5 4 -101.5 q-2 -6 -2 -20v-13.5t2 -15.5v-248q4 -29 4 -55.5t2 -52.5q2 -66 23 -109q29 -53 92 -53q31 0 59 59l10.5 42t12.5 63q2 84 3 178.5t1 198.5q6 25 6 67q0 23 -2 48.5t-4 58.5q-4 76 -11 131t-16 94q-16 25 -59 57q-8 2 -23 2q-35 0 -69 -28q-10 -29 -17.5 -55.5t-11.5 -55.5 q-4 -16 -4 -44v-64v-83.5z" />
<glyph unicode="&#x153;" horiz-adv-x="1234" d="M16 553q0 59 7 109q33 289 147 368q23 23 123 47q16 2 29.5 2h27.5q31 0 53.5 -5t40.5 -15q106 -49 142 -156q14 -20 26 -51q16 35 26.5 55.5t16.5 28.5q14 23 26.5 40t27.5 32l59 39q57 35 125 34q10 0 22.5 -1t26.5 -3q43 -10 119 -59q16 -12 33 -41q45 -35 100 -225 l4 -78q6 -104 6 -144v-20l-10 -10q-61 2 -151.5 4t-206.5 2q-14 -8 -15 -21q0 -8 2 -14l8 -12q-4 -16 -6 -39t-2 -47q0 -25 2 -53.5t6 -61.5q6 -29 46 -41q70 0 75 88q0 29 1 49.5t3 30.5h127q23 2 51.5 4t63.5 2q4 -8 5 -16t1 -19v-20q-6 -27 -8 -40t-2 -15 q-12 -70 -82 -201q-80 -92 -207 -92h-8q-31 0 -100 12q-84 29 -129 96q-8 16 -20.5 39t-33.5 51q-6 -10 -9 -19t-5 -13q-18 -18 -41 -58q-70 -109 -217 -108h-8q-162 2 -238 143q-29 51 -46 111.5t-21 130.5q-12 100 -13 180zM276 598q0 -158 13 -289l10 -39q2 -10 57 -22 q20 2 35 51l6 51v328q-2 20 -7 47t-9 63l-25 33q-6 2 -16 2q-23 0 -41 -12q-18 -25 -18 -51v-8q-2 -41 -3.5 -79t-1.5 -75zM823 662l13 -11q94 0 106 11v-7q2 10 2 23v25.5t2 37.5v11q0 115 -69 114q-39 -20 -46 -49v-12q0 -27 -8 -57v-86z" />
<glyph unicode="&#x178;" horiz-adv-x="911" d="M-4 1477q0 43 37 43h6q41 0 102.5 -1t139.5 -3q4 0 20 4l10 -15l11 15h4v-13q8 -25 19 -57.5t28 -77.5q0 -10 2 -23.5t8 -29.5l12 -51q4 -23 11.5 -55.5t21.5 -77.5l2 12q4 8 6 20.5t8 28.5q10 41 17.5 75t9.5 56q4 16 16.5 53t12.5 58l8 18v12q4 35 31 43 q43 0 107.5 4.5l150.5 10.5l20 -6q-4 0 -6 2q25 -2 41 -29q-6 -16 -14.5 -38.5t-18.5 -51.5q-23 -72 -55.5 -181.5t-73.5 -256.5q-10 -31 -22.5 -75t-34.5 -104q-43 -121 -43 -182v-383q2 -8 2 -18v-23v-23.5t-2 -29.5q2 -10 3 -22.5t1 -24.5q0 -18 -2 -37.5t-6 -40.5 q-12 -4 -23.5 -5t-21.5 -5q-14 0 -38 3t-42 3q-102 0 -152 -6q-74 0 -73 47q0 82 6 117q0 78 -13 231q0 -4 7 39v12q0 8 -2.5 13.5t-4.5 9.5v172q-8 23 -17 54.5t-22 74.5q-2 6 -7 26.5t-15 55.5q-16 45 -31 127q-12 31 -24.5 73.5t-26.5 98.5q-12 61 -23.5 103t-21.5 67 q-10 31 -21.5 70.5t-23.5 93.5zM49 1577v281l17 30h131.5t189.5 -4l16 -26q0 -16 1.5 -39t1.5 -46.5t1 -47t1 -37.5q-2 -4 -2.5 -11.5t-2.5 -13.5q0 -6 1.5 -14.5t1.5 -18.5q0 -12 -1.5 -28.5t-3.5 -34.5q-23 -25 -39 -25h-7t-13 4q-4 0 -6 1t-6 1q-2 0 -4 -2h-2 q-14 -2 -29.5 -2h-32.5q-41 0 -90 1t-109 3zM446 1583v23q0 29 3.5 66.5t7.5 84.5q-6 14 -8.5 38t-2.5 58l15 31h330q4 -57 6 -110.5t2 -106.5v-63q0 -23 -19 -48h-32.5t-47.5 -4h-239z" />
<glyph unicode="&#x2c6;" horiz-adv-x="886" d="M25 1624q0 14 9 27.5t21 23.5l111 101l12 16q8 6 21.5 18.5t29.5 28.5q2 10 17 14l65 64q14 14 32.5 31.5t43.5 44.5q10 10 20.5 20t38.5 10l9 -8q12 -4 26 -20l32.5 -32.5t47.5 -45.5l64 -64q16 -4 18 -14v-2l19.5 -19.5t27.5 -25.5l17 -16l110 -101q27 -23 27 -47 l-2 -14q-57 -49 -82 -76l-33 -20q-41 35 -95 90t-126 129q-29 27 -70 63q-41 -37 -69 -63q-20 -23 -50 -50.5t-69 -66.5q-16 -16 -41 -42t-62 -60l-34 20q-20 27 -82 76q0 4 -2 6t-2 4z" />
<glyph unicode="&#x2dc;" horiz-adv-x="1361" d="M8 838.5v62.5v60.5t2 58.5q0 20 25 49q180 217 346 217q10 0 25.5 -4t37.5 -10q29 -4 44.5 -8t21.5 -7q29 -2 90 -51q29 -27 94 -76l84 -61q137 -100 189 -100q49 0 135 71q31 25 61.5 51.5t61.5 53.5q10 10 31.5 36.5t54.5 69.5l18 4v-311l-18 -29q-23 -35 -61 -68.5 t-93 -66.5q-133 -80 -196 -80q-68 0 -142 39q-23 16 -59.5 39t-85.5 56q-2 2 -20.5 14t-53.5 37q-10 4 -59 61q-29 33 -60 39q-39 4 -66.5 8t-49.5 4q-131 0 -250 -131q-86 -94 -105 -94q-2 35 -2 66.5z" />
<glyph unicode="&#x2000;" horiz-adv-x="1025" />
<glyph unicode="&#x2001;" horiz-adv-x="2050" />
<glyph unicode="&#x2002;" horiz-adv-x="1025" />
<glyph unicode="&#x2003;" horiz-adv-x="2050" />
<glyph unicode="&#x2004;" horiz-adv-x="683" />
<glyph unicode="&#x2005;" horiz-adv-x="512" />
<glyph unicode="&#x2006;" horiz-adv-x="341" />
<glyph unicode="&#x2007;" horiz-adv-x="341" />
<glyph unicode="&#x2008;" horiz-adv-x="256" />
<glyph unicode="&#x2009;" horiz-adv-x="410" />
<glyph unicode="&#x200a;" horiz-adv-x="113" />
<glyph unicode="&#x2010;" horiz-adv-x="532" d="M10 563l4 187q12 25 125 30q111 18 156 31q82 16 149 53q8 4 11 4q12 1 22 -24q-2 -16 -4 -36t-2 -42q0 -23 2 -50.5t4 -58.5q-4 -10 -28 -22q-16 0 -64 -29q-43 -25 -61 -24l-15 4l-250 -45q-4 0 -8 -1t-8 -1q-14 0 -29 8z" />
<glyph unicode="&#x2011;" horiz-adv-x="532" d="M10 563l4 187q12 25 125 30q111 18 156 31q82 16 149 53q8 4 11 4q12 1 22 -24q-2 -16 -4 -36t-2 -42q0 -23 2 -50.5t4 -58.5q-4 -10 -28 -22q-16 0 -64 -29q-43 -25 -61 -24l-15 4l-250 -45q-4 0 -8 -1t-8 -1q-14 0 -29 8z" />
<glyph unicode="&#x2012;" horiz-adv-x="532" d="M10 563l4 187q12 25 125 30q111 18 156 31q82 16 149 53q8 4 11 4q12 1 22 -24q-2 -16 -4 -36t-2 -42q0 -23 2 -50.5t4 -58.5q-4 -10 -28 -22q-16 0 -64 -29q-43 -25 -61 -24l-15 4l-250 -45q-4 0 -8 -1t-8 -1q-14 0 -29 8z" />
<glyph unicode="&#x2013;" horiz-adv-x="937" d="M-10 653q4 45 5 82t1 66v51l4 31h51.5t69.5 -2q41 -4 70.5 -4h50.5h327h70t78 4q16 0 30.5 1t24.5 1t16.5 -1t10.5 -1q8 0 18 1t27 3h12q16 0 25 -8q0 -37 1 -69t1 -58q0 -29 -1 -51.5t-1 -41.5q-20 -6 -37 -8t-29 -2h-14h-279q-55 0 -88 -1t-47 -3l-37 4h-276l-45 -10 q-27 0 -39 16z" />
<glyph unicode="&#x2014;" horiz-adv-x="1310" d="M18 641q4 41 4.5 77t0.5 64v58l6 30h48.5t69.5 -4q41 -2 71 -2h52h326h138t184 2q92 4 155.5 4h102.5q2 -2 8 -2q8 0 19 2t28 2q16 0 24 -8q0 -37 1 -68.5t1 -58.5q0 -29 -1 -51t-1 -41q-20 -6 -36.5 -8t-28.5 -2h-14h-625q-55 0 -88 -1t-47 -3l-39 4l-275 -4 q-12 -4 -22 -4t-21 -2q-31 0 -41 16z" />
<glyph unicode="&#x2018;" horiz-adv-x="376" d="M29 1004q0 78 6 200q10 25 25.5 62t35.5 84q10 10 18.5 38.5t18.5 38.5q2 27 33 74h100l13 -4v-29q-47 -94 -99 -241q0 -10 19 -10h112q18 0 19 -19q0 -27 1 -56.5t1 -64.5t-1 -74.5t-1 -84.5l-15 -13q-47 4 -84.5 6t-64.5 2h-29h-102q-4 4 -4 9q0 2 3 9t3 11q0 6 -6 10 q0 10 -1 22.5t-1 29.5z" />
<glyph unicode="&#x2019;" horiz-adv-x="350" d="M-2 1217v6q2 6 2 16v6q-2 16 -2 41v53v67t2 79q0 12 14 12h277q6 0 18 -22q-6 -86 -6 -258q-14 -29 -30.5 -71t-36.5 -99q-8 -23 -21.5 -58t-36.5 -84q-12 -6 -28 -6q-10 0 -17 2q-10 0 -18.5 1t-14.5 1t-9 -1t-7 -1q-33 6 -33 17q14 39 43 122q10 23 22.5 54.5 t28.5 76.5q2 2 2 11q0 10 -8 12q-4 0 -9 1t-15 1t-20.5 -1t-22.5 -1q-4 0 -7.5 -1t-7.5 -1q-8 0 -15 1t-17 3q-27 2 -27 21z" />
<glyph unicode="&#x201a;" horiz-adv-x="356" d="M-4 16q0 2 1 3t1 4q2 4 2 9v7v4q-2 18 -2 44v54v67t2 77q0 10 14 10h277q6 0 18 -23q-6 -84 -6 -258q-14 -33 -30.5 -73.5t-36.5 -94.5q-14 -33 -27.5 -68.5t-30.5 -70.5q-10 -8 -33 -8q-14 0 -32.5 1t-51.5 5q-10 2 -10 12q8 20 18.5 51t24.5 74q8 16 21.5 48t29.5 79 q2 4 2 11q0 10 -8 12q-4 2 -24 2h-20.5t-22.5 -2h-19q-35 0 -49 12q-8 4 -8 12z" />
<glyph unicode="&#x201c;" horiz-adv-x="778" d="M23 956q2 41 4 106.5t2 151.5q10 25 26.5 67t40.5 103q8 20 21.5 54.5t36.5 87.5q6 2 12 3t16 1h17q10 -2 17 -2h13q14 0 19 2q35 -6 35 -19q-6 -16 -17.5 -46.5t-27.5 -73.5q-29 -72 -41.5 -108t-12.5 -34q0 -10 6 -12t27 -2h20.5t22.5 2h12h16.5t16.5 -2q29 -6 29 -23 v-4q-2 -10 -2 -22q0 -20 1 -45t1 -54t-1 -64.5t-1 -76.5q0 -12 -17 -12h-274q-6 0 -18 22zM416 956q4 41 6 106.5t2 151.5q8 23 16.5 45.5t21.5 55.5t32.5 82t52.5 129q12 4 28 4h17q10 -2 17 -2h14q16 0 20 2q33 -6 33 -19q-6 -16 -17.5 -46.5t-27.5 -73.5 q-8 -18 -21.5 -51t-29.5 -80q-4 -8 -5 -11q0 -14 35 -14h20.5t22.5 2h13h16t16 -2q29 -6 29 -23v-4q-2 -6 -2 -12q0 -8 2 -10q0 -20 1 -45t1 -54t-1 -64.5t-1 -76.5q-4 -12 -18 -12h-275q-6 0 -18 22z" />
<glyph unicode="&#x201d;" horiz-adv-x="755" d="M20 1372v67t3 77q4 10 18 10h274q4 0 19 -21q-4 -43 -6 -107.5t-2 -152.5q-10 -23 -25.5 -65.5t-40.5 -102.5q-16 -43 -55 -141q-10 -8 -33 -8h-14q-14 4 -31.5 4t-42.5 2q-10 2 -10 12q6 16 17 48t30 77q16 37 49 131q4 8 4 10q0 6 -10 11q-4 0 -9 1t-14 1q-10 0 -20 -1 t-25 -1q-6 -2 -16 -2q-31 0 -49 14q-8 2 -8 12v4q0 4 1 7.5t1 5.5q0 4 -1 5t-1 3q-2 20 -2.5 44.5t-0.5 55.5zM414 1316.5v55.5v67t2 77q4 10 18 10h275q4 0 18 -21q-4 -43 -6 -107.5t-2 -152.5q-10 -23 -25.5 -65.5t-40.5 -102.5q-8 -23 -21.5 -57.5t-35.5 -83.5 q-10 -8 -33 -8h-12q-14 4 -31.5 4t-42.5 2q-10 2 -10 12q10 23 21.5 53.5t23.5 71.5q18 39 51 131q2 2 2 10q0 4 -6 11q-4 0 -10 1t-14 1q-10 0 -20.5 -1t-25.5 -1q-6 -2 -18 -2q-27 0 -47 14q-8 2 -8 12v4q0 4 1 7.5t1 5.5q0 4 -1 5t-1 3q-2 20 -2 44.5z" />
<glyph unicode="&#x201e;" horiz-adv-x="749" d="M-4 16q0 2 1 3t1 4q2 4 2 9v7v4q-2 18 -2 44v54v67t2 77q0 10 14 10h277q6 0 18 -23q-6 -84 -6 -258q-14 -33 -30.5 -73.5t-36.5 -94.5q-14 -33 -27.5 -68.5t-30.5 -70.5q-10 -8 -33 -8q-14 0 -32.5 1t-51.5 5q-10 2 -10 12q8 20 18.5 51t24.5 74q8 16 21.5 48t29.5 79 q2 4 2 11q0 10 -8 12q-4 2 -24 2h-20.5t-22.5 -2h-19q-35 0 -49 12q-8 4 -8 12zM391 23q2 4 2 9v7v4q-2 18 -2 44v54v67t2 77q0 10 17 10h276q6 0 14 -23q-2 -41 -3 -105.5t-1 -152.5q-14 -31 -65 -168q-8 -18 -21.5 -53t-36.5 -86q-14 -8 -32 -8h-13q-25 0 -73 6 q-10 2 -11 12q8 20 18.5 51t24.5 74q8 16 21.5 48t30.5 79q2 4 2 11q0 10 -9 12q-6 2 -24 2h-20.5t-22.5 -2h-19q-35 0 -49 12q-6 6 -6 19z" />
<glyph unicode="&#x2022;" horiz-adv-x="987" d="M301 799q0 63 43 106t105 43q61 0 104 -43t43 -106q0 -61 -43 -104.5t-104 -43.5t-104.5 43t-43.5 105z" />
<glyph unicode="&#x202f;" horiz-adv-x="410" />
<glyph unicode="&#x205f;" horiz-adv-x="512" />
<glyph unicode="&#x20ac;" horiz-adv-x="1060" d="M2 502q4 47 6 85t2 68v31.5t-2 30.5l6 33h51.5t69.5 -2t69.5 -2.5t51.5 -0.5h70q4 25 4 42.5v29.5l-244 -6q-10 -2 -20.5 -2t-22.5 -2q-31 0 -41 16q4 47 6 85t2 67v31.5t-2 29.5l6 35q23 0 51.5 -1t69.5 -3q41 -4 69.5 -4h51.5h90q4 25 7 47.5t7 40.5h5q0 37 18 47 q18 121 84 186v-2q2 0 14 25q57 80 215 135l103 17q41 -4 71.5 -6.5t51.5 -4.5q25 -6 42 -11t31 -7q6 -47 6 -74v-47v-29q2 -59 6.5 -81.5t4.5 -36.5q0 -12 -2 -17h-4v-6q-12 0 -72 39q-115 0 -123 -2q-51 -12 -92 -64q-41 -72 -51 -143q94 2 166.5 2h119.5q2 -2 4 -2 q6 0 14.5 1t22.5 3q4 0 5 1t6 1q18 0 26 -12q2 -41 2 -75v-62v-52.5t-2 -44.5q-35 -14 -63 -14q-10 0 -15 2q-8 -2 -24 -2q-23 0 -61 3t-66 3q-16 0 -29.5 -1t-23.5 -3h-99l2 -69q100 2 174 2h127q4 0 11 2q4 0 12 1t18 3h6q10 0 18.5 -3.5t12.5 -7.5q2 -41 2 -74.5v-64.5 v-53.5t-2 -44.5q-20 -6 -36.5 -8t-28.5 -2h-13q-4 0 -9 -1t-9 -1q-14 0 -34.5 1t-49.5 3h-33h-36.5t-32.5 -2h-88q14 -135 96 -197q29 -14 56.5 -21.5t55.5 -7.5q37 0 78 23q57 12 58 16q0 -20 -3.5 -47.5t-7.5 -68.5q0 -12 -1 -35t-2 -45.5l-2 -45t-1 -34.5 q-20 -14 -41 -15l-78 -12q-8 0 -24.5 -3t-24.5 -3h-10q-25 0 -70 6t-110 17q-12 0 -51 24q-39 20 -75 54t-64.5 75t-48 87t-27.5 91q-18 45 -19 109q-6 18 -6 33l-254 -6q-25 -4 -34 -4.5t-19 -0.5q-23 0 -31 15z" />
<glyph unicode="&#x2122;" horiz-adv-x="872" d="M8 1468q2 6 2 11.5t2 9.5h146h153l15 4q10 0 10 -8q4 -10 8 -17.5t4 -15.5q0 -2 -1 -3t-1 -3l-2 -43q-8 -4 -8 -6v-21h-78q-23 -4 -22 -10q0 -2 2 -4q2 -41 2 -74v-53v-358q-2 -2 -9 -3q-6 0 -10 3q-33 -2 -58.5 -2.5t-41.5 -2.5q-8 2 -8 19v74v37.5t-2 44.5v157q0 4 1 5 t1 5t-1 5.5t-1 5.5q-4 16 -4.5 27.5t-0.5 19.5q2 10 3.5 17t1.5 14v8v26q-6 25 -7 39h-92l-2 4v50.5t-2 37.5zM377 883v14q0 31 2 78t4 112v199q-2 2 -2 10q0 6 2 11v32q0 4 1 9.5t1 9.5t-1 8t-1 8q0 18 1 33.5t1 30.5q0 14 -1 24.5t-1 20.5q8 2 20 2h5h51t37 -2q10 2 19 2 h15q10 0 17 -17v-23t2 -18q12 -66 20.5 -111.5t12.5 -70.5q2 -14 5 -21t5 -10q6 0 7 4.5t3 4.5q10 14 10 28q37 197 39 197v20q4 14 13 15q12 -2 22 -3t21 -1q12 0 28 4h17q14 2 25 2t16 2q10 -4 15 -7t9 -5v-80v-78t-4 -72q0 -23 4 -31l-4 -67h2q2 0 2 -33q0 -174 -2 -174 t-2 4q-2 -10 -2 -27.5v-39.5l-4 -3h-102l-5 7v280q2 2 2 8q0 8 -6 15q-6 -2 -8 -4l-4 -4q-6 -29 -11 -51.5t-7 -37.5q-16 -88 -23.5 -130t-11.5 -74q-6 -8 -19 -9l-43 3q-4 0 -8 14q-6 35 -12 51t-6 27l-6 53q0 2 -3.5 17.5t-7.5 40t-9 52t-9 54.5q-2 0 -3 1t-3 1l-4 -2 q-4 -12 -6.5 -23.5t-2.5 -21.5q0 -4 1.5 -6t1.5 -5q0 -6 -1.5 -36.5t-3.5 -85.5q-2 -18 -2 -34v-32v-30.5t2 -28.5l-12 -9q-14 2 -23.5 2.5t-17.5 0.5h-20q-29 6 -37 6z" />
<glyph unicode="&#x25fc;" horiz-adv-x="1054" d="M0 0v1055h1055v-1055h-1055z" />
</font>
</defs>
</svg>
